<svg xmlns="http://www.w3.org/2000/svg" viewBox="0 0 1440 320"><path fill="#000" fill-opacity="1" d="M0,128L24,128C48,128,96,128,144,149.3C192,171,240,213,288,197.3C336,181,384,107,432,112C480,117,528,203,576,229.3C624,256,672,224,720,218.7C768,213,816,235,864,229.3C912,224,960,192,1008,165.3C1056,139,1104,117,1152,138.7C1200,160,1248,224,1296,234.7C1344,245,1392,203,1416,181.3L1440,160L1440,0L1416,0C1392,0,1344,0,1296,0C1248,0,1200,0,1152,0C1104,0,1056,0,1008,0C960,0,912,0,864,0C816,0,768,0,720,0C672,0,624,0,576,0C528,0,480,0,432,0C384,0,336,0,288,0C240,0,192,0,144,0C96,0,48,0,24,0L0,0Z"></path></svg>