<?xml version="1.0" standalone="no"?><svg xmlns="http://www.w3.org/2000/svg" viewBox="0 0 1440 320"><path fill="#000" fill-opacity="1" d="M0,128L21.8,122.7C43.6,117,87,107,131,106.7C174.5,107,218,117,262,133.3C305.5,149,349,171,393,165.3C436.4,160,480,128,524,117.3C567.3,107,611,117,655,128C698.2,139,742,149,785,133.3C829.1,117,873,75,916,64C960,53,1004,75,1047,90.7C1090.9,107,1135,117,1178,133.3C1221.8,149,1265,171,1309,160C1352.7,149,1396,107,1418,85.3L1440,64L1440,0L1418.2,0C1396.4,0,1353,0,1309,0C1265.5,0,1222,0,1178,0C1134.5,0,1091,0,1047,0C1003.6,0,960,0,916,0C872.7,0,829,0,785,0C741.8,0,698,0,655,0C610.9,0,567,0,524,0C480,0,436,0,393,0C349.1,0,305,0,262,0C218.2,0,175,0,131,0C87.3,0,44,0,22,0L0,0Z"></path></svg>