<?xml version="1.0" standalone="no"?>
<!DOCTYPE svg PUBLIC "-//W3C//DTD SVG 1.1//EN" "http://www.w3.org/Graphics/SVG/1.1/DTD/svg11.dtd" >
<svg xmlns="http://www.w3.org/2000/svg" xmlns:xlink="http://www.w3.org/1999/xlink" version="1.1">
<metadata>
Created by FontForge 20200314 at Tue May  8 17:07:09 2007
 By Unknown
Copyright (c) 1992 Adobe Systems Incorporated.  All Rights Reserved.Block Berthold is a registered trademark of H. Berthold AG.
</metadata>
<defs>
<font id="BlockBE-ExtraCn" horiz-adv-x="396" >
  <font-face 
    font-family="Block Berthold"
    font-weight="500"
    font-stretch="condensed"
    units-per-em="1000"
    panose-1="0 0 0 0 0 0 0 0 0 0"
    ascent="800"
    descent="-200"
    x-height="554"
    cap-height="706"
    bbox="-55 -208 910 921"
    underline-thickness="50"
    underline-position="-125"
    stemh="152"
    stemv="146"
    unicode-range="U+0020-FB02"
  />
<missing-glyph horiz-adv-x="208" 
 />
    <glyph glyph-name=".notdef" horiz-adv-x="208" 
 />
    <glyph glyph-name="space" unicode=" " horiz-adv-x="208" 
 />
    <glyph glyph-name="exclam" unicode="!" horiz-adv-x="208" 
d="M38 398c-3 32 -5 68 -7 102c-1 14 -5 115 -5 125c0 9 1 18 1 27c0 4 -2 26 -2 30c0 25 20 25 40 25c6 0 36 -2 42 -2c8 0 46 3 55 3c25 0 34 -12 34 -25c0 -12 -8 -82 -9 -97c-4 -43 -4 -86 -7 -129c-1 -29 -16 -169 -16 -201c-1 -7 -1 -14 -1 -20c-1 -11 -4 -29 -25 -29
c-8 0 -47 1 -56 1c-14 0 -32 0 -36 13c-1 5 1 40 1 48c0 26 -3 78 -9 129zM24 148c0 15 12 25 21 25c3 0 6 -1 8 -1c5 -1 36 -2 47 -2c8 0 46 1 55 1c25 0 25 -20 25 -29c0 -5 -1 -32 -1 -38v-22c0 -8 2 -47 2 -56c0 -21 -14 -28 -27 -28c-4 0 -9 1 -13 1c-13 2 -27 2 -40 2
c-7 0 -42 -1 -50 -1c-27 0 -27 12 -27 23c0 5 1 9 1 14c0 10 1 24 1 53c0 12 0 23 -1 35c0 3 -1 19 -1 23z" />
    <glyph glyph-name="quotedbl" unicode="&#x22;" horiz-adv-x="354" 
d="M354 669l-53 -261h-31l-55 250c-2 10 -2 22 -2 23c0 50 44 68 75 68c25 0 68 -13 68 -64c0 -4 0 -9 -2 -16zM146 669l-53 -261h-31l-55 250c-2 10 -2 22 -2 23c0 50 44 68 75 68c25 0 68 -13 68 -64c0 -4 0 -9 -2 -16z" />
    <glyph glyph-name="dollar" unicode="$" horiz-adv-x="375" 
d="M162 776c0 28 6 43 22 43c0 0 25 -2 26 -2c14 0 24 -5 24 -22c0 -3 -1 -37 -1 -42c0 -2 1 -15 1 -18c0 -2 -1 -10 -1 -12c0 -5 2 -5 14 -5c11 0 47 -2 59 -6c21 -8 23 -26 23 -37v-55c0 -4 1 -26 1 -31s-1 -13 -6 -21c-7 -9 -22 -15 -33 -15c-4 0 -4 0 -15 5
c-5 3 -26 11 -47 11c-44 0 -46 -31 -46 -39c0 -13 5 -24 13 -35c4 -4 24 -25 28 -30c107 -116 137 -161 137 -267c0 -62 -18 -98 -36 -123c-28 -37 -75 -61 -83 -63c-3 -1 -6 -1 -7 -3c-2 -2 -2 -3 -2 -50c0 -13 0 -50 -6 -59c-5 -7 -8 -7 -45 -7c-20 0 -21 15 -21 20
c0 7 1 42 1 50c0 3 -1 16 -1 19c0 2 2 10 2 12c0 4 -2 4 -8 5c-31 1 -49 5 -76 12c-32 7 -49 11 -49 37c0 3 1 47 1 53c0 5 -1 28 -1 33c0 6 0 12 1 18c1 4 1 6 1 15c0 19 30 27 33 27c5 0 6 -1 17 -8c9 -6 43 -22 66 -22c49 0 52 42 52 50c0 22 -9 32 -33 57
c-103 108 -136 154 -136 256c0 24 0 108 59 153c21 17 51 28 63 29c7 1 8 1 9 9v58z" />
    <glyph glyph-name="percent" unicode="%" horiz-adv-x="708" 
d="M18 530c0 86 9 109 30 136c34 40 69 44 105 44c4 0 20 -3 23 -3c17 -3 19 -3 27 -7c26 -12 38 -26 53 -62c13 -33 16 -52 16 -237c0 -37 -7 -73 -28 -103c-23 -34 -64 -47 -106 -47c-48 0 -86 19 -104 61c-13 32 -17 91 -17 119c0 7 1 45 1 53v46zM141 612
c-6 0 -23 -3 -23 -32c0 -10 1 -59 1 -70s1 -63 1 -75c0 -6 -1 -36 -1 -43c0 -10 0 -40 26 -40c11 0 27 12 27 31c0 3 -2 22 -2 26c0 7 1 44 1 52c0 15 -1 89 -1 106c0 20 0 45 -29 45zM434 265c0 75 6 105 30 135c22 27 50 46 101 46c77 0 96 -48 103 -65
c11 -26 19 -46 19 -163c0 -8 -1 -45 -1 -53v-27c0 -40 -8 -80 -33 -111c-26 -32 -72 -40 -99 -40c-35 0 -57 11 -69 19c-22 15 -34 39 -36 44c-4 8 -15 44 -15 112v103zM558 348c-9 0 -23 -9 -23 -29c0 -17 -1 -45 -1 -63c0 -10 2 -63 2 -74c0 -7 -2 -42 -2 -50
c0 -20 2 -43 26 -43c11 0 27 8 27 31c-1 22 -1 24 -1 42c1 20 0 117 0 139c0 19 -1 26 -4 32c-5 9 -14 15 -24 15zM245 14c0 3 0 5 1 8l3 15c2 15 8 29 11 44c2 8 3 16 4 24c3 12 7 22 9 34c1 7 1 14 2 20c1 5 16 75 17 82c3 10 6 21 8 32s4 23 6 34c3 21 12 68 18 87
c7 28 10 38 13 60c2 8 4 16 5 24c1 5 2 11 2 17c1 3 12 57 20 92c3 12 13 69 16 81l6 24c1 5 2 15 14 15c0 0 27 -3 32 -3c1 0 4 0 7 1h6c8 0 14 -9 14 -16c0 -11 -18 -68 -20 -76c-5 -19 -7 -39 -10 -59c-6 -45 -18 -98 -25 -130c-2 -10 -11 -58 -14 -69
c-5 -18 -12 -35 -17 -53c-4 -19 -27 -151 -28 -156c-1 -11 -3 -22 -5 -33c-2 -12 -11 -54 -14 -66c-8 -33 -10 -44 -23 -44c-2 0 -13 1 -15 1c-4 0 -21 -1 -24 -1c-11 0 -19 1 -19 11z" />
    <glyph glyph-name="ampersand" unicode="&#x26;" horiz-adv-x="500" 
d="M351 430c-12 -16 -41 -49 -56 -63c10 -14 32 -50 50 -90c6 9 15 23 15 48c0 3 -1 16 -1 19c0 13 10 24 21 27c8 2 62 2 73 2c14 0 40 0 40 -30c0 -3 -6 -46 -7 -51c-4 -29 -10 -57 -21 -84c-7 -18 -22 -51 -32 -62c-8 -9 -9 -10 -9 -14s3 -9 6 -13c14 -21 32 -57 45 -79
c5 -7 7 -12 7 -19c0 -21 -22 -23 -38 -23c-7 0 -42 2 -49 2h-25c-3 -1 -17 -2 -20 -2c-11 0 -21 10 -26 18c-3 5 -3 6 -5 6s-11 -8 -13 -9c-19 -10 -45 -23 -92 -23c-46 0 -73 9 -91 16c-12 4 -29 11 -53 37c-45 49 -58 102 -58 173c0 30 4 60 16 87c13 32 46 72 70 91
c15 12 25 20 25 26c0 4 -1 5 -13 23c-10 16 -31 50 -31 93c0 17 5 63 24 95c27 44 80 74 130 74c6 0 59 -1 96 -21c17 -9 70 -43 70 -124c0 -65 -25 -99 -48 -130zM212 550c0 -22 13 -45 24 -63c14 13 40 37 40 66c0 15 -7 34 -34 34c-23 0 -30 -22 -30 -37zM160 210
c0 -36 32 -70 54 -70c20 0 28 11 31 15l-60 114c-11 -15 -25 -34 -25 -59z" />
    <glyph glyph-name="quoteright" unicode="&#x2019;" horiz-adv-x="167" 
d="M6 676c0 14 3 32 27 32c4 0 8 -1 13 -2c8 -1 19 -1 32 -1c3 0 12 0 21 1h22c16 0 29 -4 32 -21c2 -5 3 -68 3 -76c0 -21 0 -75 -48 -140c-16 -20 -16 -20 -25 -22c-6 -1 -40 -2 -46 -2c-12 0 -21 5 -21 13c0 2 1 5 2 7c3 8 10 13 15 19c8 11 11 27 11 33c0 3 0 6 -1 9
c-4 9 -8 10 -18 12c-19 4 -19 21 -19 30c0 8 2 47 2 55c0 13 0 26 -1 39c0 4 -1 9 -1 14z" />
    <glyph glyph-name="parenleft" unicode="(" horiz-adv-x="271" 
d="M99 625c10 14 30 46 70 68c20 11 50 19 72 19c19 0 19 -10 19 -21c0 -17 1 -96 1 -115c0 -20 0 -20 -15 -32c-15 -11 -27 -29 -34 -48c-12 -29 -18 -80 -19 -110c0 -13 0 -26 -1 -40c0 -7 -2 -43 -2 -51c0 -152 21 -183 54 -206c11 -9 16 -13 16 -37c0 -4 -1 -28 -1 -33
c0 -6 1 -35 1 -41c0 -3 -1 -20 -1 -23s1 -13 1 -16c0 -10 -4 -18 -17 -18h-25c-26 0 -110 33 -146 132l-9 27c-11 34 -13 38 -17 58c-6 28 -16 78 -16 190c0 157 41 253 69 297z" />
    <glyph glyph-name="parenright" unicode=")" horiz-adv-x="271" 
d="M9 693c0 13 8 18 16 18c4 0 22 1 26 1c23 0 56 -18 75 -33c39 -32 60 -67 75 -111c3 -11 9 -27 13 -38c3 -8 5 -17 7 -26c16 -74 18 -130 18 -201c0 -33 0 -101 -21 -178c-7 -26 -23 -75 -36 -96c-19 -33 -29 -49 -54 -70c-46 -38 -84 -38 -104 -38c-15 0 -15 8 -15 29
c0 2 -2 102 -2 108c0 15 3 18 12 27c24 20 31 30 38 52c17 48 18 86 19 133c1 10 3 57 3 68c0 147 -20 181 -52 204c-14 10 -18 14 -17 33c0 11 -1 66 -1 78c0 4 1 19 1 23c0 2 -1 15 -1 17z" />
    <glyph glyph-name="asterisk" unicode="*" horiz-adv-x="292" 
d="M55 565v1c-1 0 -20 10 -28 14c-26 12 -27 13 -27 17c0 3 0 4 9 15c7 10 27 45 31 56c1 5 2 7 5 7c6 0 13 -6 16 -9c18 -15 37 -27 39 -27s3 3 3 6c0 7 -5 50 -5 51c0 11 3 11 7 11h4c11 -2 18 -2 77 -2c4 0 6 -1 6 -7c0 -2 -1 -8 -2 -13c0 -4 -1 -26 -1 -30
c0 -5 1 -12 4 -12c0 0 7 5 11 8s7 4 10 6c2 1 27 21 30 21c2 0 3 -2 11 -16c20 -37 32 -54 33 -56c2 -3 3 -5 3 -7c0 -8 -9 -11 -19 -14c-8 -3 -15 -7 -21 -11c-3 -2 -18 -8 -18 -10c0 -4 34 -16 40 -19c4 -2 7 -4 10 -5c7 -2 9 -3 9 -7s-1 -5 -6 -11c-1 -2 -17 -27 -19 -31
c-5 -8 -9 -17 -13 -24c-7 -15 -8 -16 -10 -16c-4 0 -21 13 -25 17c-3 2 -18 11 -21 13c-2 2 -4 4 -6 4c-3 0 -3 -7 -3 -11s3 -27 3 -32c0 -2 2 -12 2 -14c0 -4 -2 -8 -7 -8c-2 0 -9 1 -11 1c-5 0 -28 1 -34 1s-34 -2 -39 -2s-7 1 -7 6c0 4 5 44 5 53c0 4 0 8 -2 8
s-21 -13 -36 -26c-12 -10 -13 -11 -16 -11c-4 0 -5 2 -10 16c-7 14 -33 55 -35 57c-4 4 -4 5 -4 6c0 7 9 11 18 13c2 1 39 19 39 23z" />
    <glyph glyph-name="comma" unicode="," horiz-adv-x="187" 
d="M84 172c8 0 43 4 51 4c28 0 38 -19 38 -36v-94c0 -21 0 -55 -30 -102c-11 -19 -22 -23 -34 -23c-4 0 -23 1 -27 1h-12c-4 0 -26 -1 -30 -1c-5 0 -17 1 -17 11c0 13 4 15 12 20s17 11 17 27c0 12 -9 18 -11 19c-6 3 -13 4 -18 8c-9 6 -9 16 -9 22c0 9 2 54 2 64
c0 6 -2 40 -2 47c0 34 21 35 32 35c6 0 32 -2 38 -2z" />
    <glyph glyph-name="hyphen" unicode="-" horiz-adv-x="229" 
d="M222 285v-35c0 -19 0 -31 -12 -38c-6 -4 -9 -4 -42 -4c-13 1 -35 0 -48 0c-3 0 -20 2 -23 2s-19 -1 -23 -1c-7 0 -14 1 -20 1c-4 0 -21 -2 -24 -2c-25 0 -24 22 -23 40c1 9 0 50 0 60c0 27 3 43 23 43c5 0 26 -1 31 -1h28c10 0 20 0 30 -1c9 0 19 -1 28 -1c8 0 49 3 50 3
c12 0 27 -9 27 -26c0 -5 -2 -33 -2 -40z" />
    <glyph glyph-name="period" unicode="." horiz-adv-x="187" 
d="M143 170c8 0 12 -1 15 -2c2 -1 13 -9 13 -22c0 -2 -1 -4 -1 -6c0 -10 -1 -33 -1 -50c0 -7 1 -44 1 -52c0 -25 -3 -41 -26 -40c-15 1 -50 1 -66 1c-6 0 -33 -2 -39 -2c-11 0 -25 4 -25 26c0 6 2 35 2 41c0 22 0 49 -1 64c0 5 -1 10 -1 14c0 17 5 27 23 27h8
c6 -1 14 -1 49 -1c8 0 17 0 25 1c8 0 16 1 24 1z" />
    <glyph glyph-name="slash" unicode="/" horiz-adv-x="333" 
d="M0 14c0 13 6 29 13 48c12 29 63 166 74 194c26 67 67 174 93 241c21 54 55 141 76 195c10 27 15 37 28 37c1 0 28 -9 34 -11c6 -3 17 -8 17 -25c0 -4 -1 -8 -3 -13c-10 -30 -252 -659 -259 -680c-3 -8 -7 -21 -23 -21c-3 0 -5 1 -8 2c-7 2 -13 5 -20 8
c-16 6 -22 9 -22 25z" />
    <glyph glyph-name="zero" unicode="0" horiz-adv-x="437" 
d="M28 426v48c0 92 24 151 59 188c14 15 53 56 126 56c46 0 123 -12 161 -82c32 -59 35 -169 35 -235c0 -42 -1 -85 -2 -128c-1 -62 -3 -117 -19 -159c-14 -33 -43 -68 -71 -86c-23 -15 -64 -32 -107 -32c-38 0 -75 10 -105 32c-27 18 -58 71 -69 139c-7 41 -9 156 -9 175
c0 12 1 71 1 84zM248 222v95c0 15 -2 88 -2 104c0 9 3 54 3 64c0 30 0 70 -33 70c-24 0 -30 -24 -30 -45c0 -6 1 -31 1 -37c0 -5 -1 -30 -1 -35v-207c0 -42 1 -77 32 -77c16 0 27 11 30 31c1 5 0 31 0 37z" />
    <glyph glyph-name="one" unicode="1" horiz-adv-x="417" 
d="M32 515c0 11 5 17 12 23c7 8 19 21 26 29c9 10 46 59 56 70c6 6 36 37 42 44c12 14 22 25 38 25c1 0 44 -2 49 -2c6 -1 35 0 41 0c14 0 33 0 33 -34c0 -7 -1 -13 -1 -28c-2 -35 -2 -92 -2 -94c0 -8 1 -45 1 -54s-2 -56 -2 -66c0 -8 2 -47 2 -56c0 -8 -2 -50 -2 -59
c0 -14 2 -84 2 -99c0 -10 -3 -58 -3 -69s3 -68 3 -81c0 -46 -1 -48 -7 -57c-5 -6 -7 -9 -30 -9c-6 0 -35 2 -42 2c-8 1 -47 0 -56 0c-11 0 -29 0 -29 33c0 5 3 44 3 49c1 17 1 34 1 51v40c0 57 2 114 2 170c1 30 0 60 1 89c0 7 1 46 1 54c0 3 1 16 1 17c0 2 -1 4 -3 4
c-5 0 -7 -3 -12 -10c-3 -4 -6 -7 -9 -10c-7 -8 -13 -16 -20 -27c-5 -8 -12 -18 -21 -18c-10 0 -17 8 -26 17c-5 6 -8 8 -31 27c-11 9 -18 17 -18 29z" />
    <glyph glyph-name="two" unicode="2" 
d="M16 479c0 25 2 55 5 75c1 6 8 50 9 53c5 18 17 40 32 56c37 39 98 49 134 49c22 0 44 -3 64 -12c7 -2 37 -17 43 -20c25 -16 74 -66 74 -182c0 -13 -1 -54 -4 -66c-1 -4 -3 -8 -4 -11c-1 -6 -1 -11 -1 -16c-2 -8 -14 -47 -29 -72c-4 -7 -8 -14 -12 -22
c-5 -9 -9 -18 -13 -26c-26 -51 -77 -111 -89 -121c-3 -2 -7 -4 -7 -6c0 -4 8 -4 28 -4c7 0 37 -2 44 -2s42 4 49 4c24 0 35 -7 35 -36c0 -7 -3 -40 -3 -47c0 -5 1 -26 1 -31c0 -20 -1 -43 -29 -43c-5 0 -10 1 -16 2c-20 2 -46 2 -70 2c-10 0 -59 -2 -71 -2
c-29 0 -58 2 -86 2c-10 0 -56 -2 -67 -2c-22 0 -25 16 -25 40v27c0 6 -1 36 -1 43c0 19 3 21 21 38c21 19 43 41 62 68c4 4 7 8 10 12c17 21 19 23 25 33s11 20 17 31c9 14 18 27 26 41c9 15 17 31 25 46c13 26 24 47 24 131c0 25 -6 50 -31 50c-32 0 -37 -45 -37 -79
c0 -5 0 -9 1 -14c0 -6 2 -12 2 -18c0 -3 -2 -28 -33 -29h-65c-38 0 -38 7 -38 58z" />
    <glyph glyph-name="three" unicode="3" horiz-adv-x="417" 
d="M308 398c4 -4 22 -18 26 -22c11 -9 29 -31 37 -47c8 -20 20 -56 20 -97c0 -54 0 -63 -15 -104s-23 -50 -45 -75c-20 -21 -30 -32 -61 -44c-32 -12 -57 -14 -89 -14c-25 0 -50 2 -72 11c-7 2 -40 18 -60 30c-43 27 -46 31 -46 50c0 8 1 11 15 31c21 30 24 34 37 57
c12 20 12 21 32 21c13 0 16 -3 26 -17c11 -13 28 -23 49 -23c7 0 33 2 47 19c14 18 14 57 14 61c0 30 -11 71 -57 71c-5 0 -31 -4 -37 -4c-8 0 -28 5 -28 30c0 5 1 27 1 32c0 8 -3 46 -3 54c0 20 11 35 30 35c4 0 21 -3 25 -3c23 0 41 9 55 26c4 5 12 15 12 38
c0 27 -21 52 -53 52c-13 0 -26 -4 -38 -13c-8 -5 -9 -6 -15 -19c-5 -9 -11 -10 -16 -10c-13 0 -17 7 -26 20c-2 4 -35 44 -36 44c-11 12 -14 16 -14 29c0 15 3 19 11 27c18 19 20 20 40 34c55 37 112 37 112 37c7 0 23 -1 28 -1c6 -1 17 -3 22 -3c5 -1 50 -5 88 -42
c28 -28 44 -70 44 -72c4 -11 8 -44 8 -69c0 -36 -8 -54 -15 -69c-17 -36 -34 -48 -53 -61z" />
    <glyph glyph-name="four" unicode="4" horiz-adv-x="417" 
d="M15 265c0 7 0 13 2 19c3 10 10 19 16 29c5 8 9 18 13 27c12 26 28 70 40 96c8 20 18 40 27 60c5 12 9 24 15 35c5 11 11 21 16 32l15 36c8 16 17 33 26 49c7 13 20 36 23 41c5 10 8 17 27 17c5 0 9 -1 14 -1c6 -1 18 -2 44 -2c3 0 11 1 19 1c8 1 16 1 19 1
c18 0 21 -17 21 -29v-31c-2 -36 -2 -63 -2 -92c0 -10 -1 -61 -1 -72c0 -10 2 -61 2 -72c0 -12 -2 -66 -2 -79v-23c0 -4 0 -11 13 -11c4 0 24 1 25 1c18 0 18 -13 18 -20c0 -8 -2 -49 -2 -59c0 -6 1 -37 1 -43s0 -25 -22 -25c-3 0 -18 2 -21 2c-11 0 -13 -2 -13 -39
c0 -15 0 -30 2 -45c2 -16 2 -18 2 -32c0 -13 -1 -36 -26 -36c-6 0 -11 1 -17 2c-9 1 -18 1 -27 1c-10 0 -57 -2 -68 -2c-19 0 -22 20 -22 28s2 17 3 26c1 5 0 27 0 32c0 4 1 26 1 31c0 34 -3 37 -29 35h-67c-9 0 -51 -3 -60 -3c-7 0 -26 0 -26 30c0 5 1 26 1 31v54zM202 466
c0 4 -2 7 -4 7s-4 -5 -5 -9c-3 -6 -7 -18 -9 -25c-16 -42 -25 -64 -36 -88c-7 -15 -19 -40 -19 -47c0 -10 11 -10 33 -10c27 0 39 0 39 15c0 1 -1 23 -1 27c0 7 3 43 3 51c0 16 0 42 -1 58c0 4 -1 8 -1 12c0 1 1 7 1 9z" />
    <glyph glyph-name="five" unicode="5" 
d="M47 507v74c0 15 0 30 -1 44c0 3 -2 42 -2 42c0 4 0 16 6 25c1 3 14 19 25 19c3 0 16 -1 19 -2c13 0 21 -1 31 -1s55 2 65 2c14 0 83 -2 99 -2c13 0 22 0 30 1c5 1 9 2 14 2c14 0 24 -12 25 -21v-14c0 -5 1 -35 1 -41c0 -5 1 -28 1 -34c0 -20 -9 -32 -31 -32
c-4 0 -23 2 -27 2s-25 -1 -30 -1c-8 0 -17 0 -25 1c-6 0 -32 3 -38 3c-30 0 -31 -22 -31 -40c0 -8 0 -11 2 -24c2 -10 3 -14 14 -14c4 0 21 2 25 2c66 0 92 -24 108 -42c25 -29 29 -41 35 -58c9 -27 23 -69 23 -154c0 -60 -10 -111 -46 -162c-21 -29 -68 -85 -162 -85
c-33 0 -86 7 -132 39c-41 29 -46 39 -46 54c0 13 3 17 18 39c6 7 27 43 30 49c5 12 12 27 28 27c8 0 16 -5 22 -11c4 -5 6 -10 10 -15c9 -11 30 -24 54 -24c21 0 30 8 36 14c22 19 25 41 25 68c0 54 -1 70 -14 91s-33 31 -60 31c-10 0 -22 -2 -32 -6c-7 -4 -14 -10 -21 -15
c-5 -3 -9 -5 -14 -5s-7 1 -28 15c-6 3 -8 5 -8 12c0 3 0 16 1 20c0 8 2 52 2 62c0 22 -1 43 -1 65z" />
    <glyph glyph-name="six" unicode="6" horiz-adv-x="417" 
d="M183 440c35 29 76 29 81 29c30 0 64 -17 89 -45c38 -43 42 -79 42 -176c0 -111 -12 -135 -25 -162c-11 -23 -47 -94 -152 -94c-61 0 -92 16 -112 29c-49 31 -72 86 -80 143c-4 26 -7 123 -7 140c0 21 1 63 4 90c2 23 13 94 17 111c7 31 34 120 115 169
c28 17 59 35 122 35c16 0 60 -1 74 -7c22 -10 21 -33 21 -46c-1 -26 -1 -52 -1 -78c0 -4 0 -14 -2 -18c-2 -3 -15 -11 -21 -11c-5 0 -11 3 -16 4c-1 1 -23 7 -37 7c-57 0 -77 -26 -86 -39c-30 -39 -28 -66 -26 -81zM212 323c-10 0 -21 -6 -26 -20c-5 -12 -5 -59 -5 -77
c0 -51 0 -93 33 -93c26 0 30 27 32 40c1 11 1 17 1 71c0 25 0 79 -35 79z" />
    <glyph glyph-name="seven" unicode="7" horiz-adv-x="375" 
d="M50 558h-14c-7 0 -28 0 -28 26c0 6 1 12 2 18c1 5 3 19 3 40c0 4 -2 28 -2 33c0 22 15 32 25 32c3 0 5 0 8 -1c7 -1 27 -2 40 -2c7 0 38 1 46 1c17 0 34 -1 51 -1c5 0 31 1 37 1c5 0 28 -1 34 -1c2 0 53 1 60 1s14 1 21 1s27 0 27 -25v-38c0 -19 -2 -23 -13 -48
c-7 -15 -16 -46 -19 -60c-5 -17 -8 -34 -12 -50c-6 -21 -12 -40 -17 -61c-3 -12 -17 -76 -21 -90c-4 -16 -9 -32 -13 -48c-6 -24 -9 -49 -13 -73c-5 -25 -11 -50 -15 -75c-5 -22 -7 -43 -7 -65c0 -5 1 -30 1 -36c0 -14 -2 -37 -33 -37c-6 0 -11 0 -17 1c-7 0 -18 1 -38 1
c-8 0 -47 -2 -56 -2c-35 0 -38 26 -38 37s4 33 6 44c2 12 2 13 3 23c12 84 61 230 65 240c3 9 6 18 10 27c5 14 9 29 13 43c9 26 19 51 28 77c15 41 17 46 17 56c0 11 -7 12 -11 12c-3 0 -7 -1 -10 -1c-8 -1 -16 -1 -24 -1s-16 1 -23 1c-4 0 -23 -1 -28 -1c-6 0 -38 1 -45 1
z" />
    <glyph glyph-name="eight" unicode="8" horiz-adv-x="437" 
d="M338 383c34 -31 78 -72 78 -181c0 -22 -2 -52 -16 -91c-11 -29 -22 -44 -46 -65c-21 -18 -59 -50 -136 -50c-73 0 -118 31 -131 42c-25 20 -68 77 -68 156c0 3 0 46 8 73c4 14 19 49 22 56c4 7 22 38 55 71c-46 33 -67 82 -67 139c0 81 48 183 187 183
c47 0 96 -11 128 -46c46 -49 51 -89 51 -126c0 -85 -28 -118 -65 -161zM224 471c13 13 36 36 36 71c0 18 -10 49 -42 49c-20 0 -38 -20 -38 -48c0 -8 0 -43 44 -72zM215 306c-14 -17 -39 -49 -39 -92c0 -27 7 -62 43 -62c9 0 17 5 23 9c11 10 17 21 17 57
c0 55 -32 80 -44 88z" />
    <glyph glyph-name="nine" unicode="9" horiz-adv-x="417" 
d="M233 265c-31 -25 -67 -29 -82 -29c-35 0 -74 24 -98 57c-29 39 -33 69 -33 166c0 110 13 135 26 161c15 29 51 93 150 93c36 0 85 -4 128 -40c47 -39 61 -99 66 -134c3 -26 7 -112 7 -131c0 -13 -1 -71 -3 -92c-1 -8 -13 -97 -17 -113c-44 -170 -164 -207 -243 -207
c-14 0 -55 2 -68 7c-22 10 -22 33 -22 42s1 51 1 61c0 3 -1 20 -1 24c0 7 2 12 4 15s12 11 20 11c5 0 11 -2 16 -4c12 -5 23 -7 38 -7c21 0 42 3 60 15c30 19 52 63 52 96c0 4 0 6 -1 9zM201 571c-12 0 -21 -7 -25 -17c-8 -16 -8 -74 -8 -78c0 -57 7 -94 35 -94
c6 0 12 2 17 6c12 10 15 23 15 68c0 21 0 49 -1 67c-1 12 -3 48 -33 48z" />
    <glyph glyph-name="colon" unicode=":" horiz-adv-x="208" 
d="M25 467c0 33 17 32 31 31c8 -1 43 0 52 0c6 0 36 1 43 1c27 0 31 -15 31 -23c0 -3 0 -5 -1 -7c0 -10 -1 -40 -1 -58c0 -8 2 -45 2 -54c0 -31 -20 -30 -29 -29h-98c-30 0 -30 13 -30 35c0 6 2 35 2 42c0 9 -2 52 -2 62zM25 144c0 7 1 25 22 25c5 0 29 -1 34 -1h25
c7 0 42 2 50 2c3 0 9 0 13 -2s11 -11 12 -17c1 -4 0 -25 0 -30c0 -8 -1 -47 -1 -56c0 -5 1 -26 1 -31c0 -27 -8 -36 -25 -36c-3 0 -21 1 -25 1h-50c-4 0 -26 -1 -31 -1c-7 0 -25 0 -25 25c0 4 1 27 1 32c0 7 1 43 1 51c0 5 -2 32 -2 38z" />
    <glyph glyph-name="semicolon" unicode=";" horiz-adv-x="208" 
d="M26 471c0 27 21 27 28 27c5 0 31 -1 36 -1c9 0 52 3 61 3c24 0 34 -13 34 -29c0 -7 -2 -41 -2 -48c0 -9 2 -53 2 -63c0 -14 -4 -33 -31 -33c-5 0 -30 2 -35 2c-9 0 -52 -3 -62 -3c-11 0 -31 3 -31 30c0 6 1 13 2 20c1 8 1 15 1 23c0 26 0 45 -2 57c0 5 -1 10 -1 15z
M26 140c0 24 11 34 32 34c5 0 31 -2 37 -2c16 0 33 4 50 4c8 0 39 0 39 -39c0 -3 -1 -19 -1 -22c0 -5 2 -27 2 -32c0 -8 -1 -17 -1 -26c-1 -45 -1 -56 -14 -84c-24 -51 -37 -51 -50 -51h-50c-3 0 -17 -1 -20 -1c-6 0 -15 2 -15 12c0 11 3 13 14 21c5 3 15 10 15 24
c0 10 -7 17 -11 19c-5 3 -12 4 -17 8c-11 7 -11 16 -11 21c0 10 3 55 3 65c0 7 -2 41 -2 49z" />
    <glyph glyph-name="question" unicode="?" horiz-adv-x="292" 
d="M77 294c0 43 9 87 20 129c16 61 18 68 18 82c0 33 -22 42 -35 42c-3 0 -6 0 -10 -2c-7 -2 -14 -7 -21 -7c-4 0 -7 1 -10 3c-11 8 -10 21 -9 35c1 12 0 75 0 89s4 28 25 34c14 5 54 9 78 9c98 0 135 -55 138 -101c1 -4 2 -56 2 -62v-8c-3 -42 -31 -104 -37 -117
c-9 -19 -19 -37 -25 -56c-9 -25 -12 -54 -12 -90c0 -5 1 -32 1 -38c0 -33 -16 -32 -35 -31c-6 1 -36 0 -43 0c-20 0 -32 3 -36 14c-2 3 -9 37 -9 75zM64 140c0 9 0 31 24 31c3 0 6 -1 10 -1c8 -1 17 -1 25 -1c16 0 41 -1 57 -1h18c24 0 26 -17 26 -28c0 -3 -1 -7 -1 -10
c-1 -13 -2 -78 -2 -94c-1 -25 -1 -39 -40 -38c-13 1 -76 0 -90 0c-27 0 -28 16 -28 27c0 4 0 8 1 12c0 8 1 62 1 71c0 5 -1 27 -1 32z" />
    <glyph glyph-name="A" unicode="A" horiz-adv-x="417" 
d="M-2 22c0 20 7 53 13 79c9 39 16 78 22 117c4 30 7 59 13 88c2 16 6 32 10 47c7 36 13 72 21 107c5 24 10 48 16 72c7 33 15 67 21 101l3 21s3 14 4 21c2 14 4 31 23 31c10 0 58 -2 68 -2s54 2 64 2c13 0 23 0 29 -15c5 -11 13 -84 17 -100c1 -9 4 -17 5 -26
c2 -11 4 -22 6 -32c3 -18 7 -36 11 -54c19 -84 40 -236 42 -254c5 -39 10 -78 18 -117c3 -15 6 -31 9 -46c2 -6 6 -28 6 -38c0 -15 -10 -24 -27 -24c-7 0 -39 2 -46 2c-9 0 -48 -4 -57 -4c-34 0 -35 14 -35 35c0 5 -2 30 -2 35c-1 21 -2 53 -38 53c-5 0 -8 -1 -16 -2
c-11 -3 -15 -4 -21 -14c-7 -13 -7 -15 -9 -70c-1 -15 -2 -35 -36 -35c-3 0 -11 1 -19 2s-14 1 -31 1c-10 0 -20 0 -30 -1c-16 -2 -18 -2 -31 -2c-21 0 -23 14 -23 22zM210 449c-3 0 -8 -37 -9 -40c-2 -19 -18 -110 -18 -119c0 -13 13 -16 27 -16c10 0 27 0 27 19
c0 9 -18 134 -19 139c0 12 -4 17 -8 17z" />
    <glyph glyph-name="B" unicode="B" horiz-adv-x="417" 
d="M345 389c18 -16 41 -36 56 -82c8 -30 10 -77 10 -109c0 -65 -23 -167 -114 -191c-26 -7 -102 -7 -138 -7c-7 0 -39 2 -46 2c-6 0 -38 -2 -45 -2c-43 0 -43 14 -43 49c0 9 2 51 2 61c0 14 -3 82 -3 98c0 6 1 34 1 41v39c0 15 2 86 2 102c0 18 0 36 -1 54
c-2 26 -3 46 -3 54c0 12 3 68 3 81c0 10 -1 59 -1 70c0 33 0 56 47 56c5 0 17 0 29 -1c12 0 25 -1 29 -1c15 0 86 3 102 3c129 0 168 -67 168 -185c0 -44 -15 -79 -20 -88c-11 -26 -26 -37 -35 -44zM202 567c-20 0 -23 -12 -22 -41v-61c0 -7 0 -16 21 -16c7 0 13 2 19 5
c10 6 24 16 24 54c0 32 -17 59 -42 59zM206 302c-18 0 -27 -14 -27 -34v-68c0 -26 0 -51 27 -51c19 0 33 12 37 26c5 13 5 42 5 69c0 11 -1 25 -7 36c-8 13 -22 22 -35 22z" />
    <glyph glyph-name="C" unicode="C" horiz-adv-x="333" 
d="M21 353c0 32 2 72 4 112c3 44 7 100 37 151c16 28 33 47 50 60c36 26 65 38 114 38c5 0 59 -1 74 -7c3 -1 26 -10 26 -33c0 -4 -1 -22 -1 -26c0 -10 2 -58 2 -68c0 -8 0 -35 -28 -35c-6 0 -12 1 -18 3c-9 2 -18 3 -26 3c-36 0 -55 -23 -61 -36c-12 -25 -14 -140 -14 -160
c0 -112 11 -144 35 -167c15 -14 35 -19 69 -19c42 0 44 -17 45 -37c0 -6 -1 -37 -1 -44c0 -6 1 -40 1 -48c0 -11 0 -16 -8 -26c-7 -8 -15 -17 -38 -17c-4 0 -9 0 -14 1c-66 4 -98 6 -137 25c-16 8 -29 14 -60 54c-41 52 -51 134 -51 276z" />
    <glyph glyph-name="D" unicode="D" horiz-adv-x="437" 
d="M25 651c0 44 8 53 51 53c8 0 47 -2 55 -2h51c9 0 51 1 60 1c53 0 103 -28 126 -72c30 -58 34 -74 40 -118c1 -8 7 -93 8 -105c1 -14 1 -29 1 -43c0 -26 0 -51 -3 -76l-3 -33c-2 -16 -2 -33 -3 -49c-2 -25 -7 -49 -15 -73c-25 -69 -41 -86 -71 -105
c-38 -23 -62 -27 -101 -29c-8 -1 -49 0 -58 0c-5 0 -42 0 -56 -1c-5 0 -30 -1 -35 -1c-16 0 -26 3 -38 18c-7 10 -8 17 -8 25c0 10 3 56 3 66c0 11 -1 21 -1 31c-1 31 -3 105 -3 118c0 12 2 69 2 82c0 31 -2 62 -2 93c0 41 3 106 3 147c0 10 -3 61 -3 73zM205 553
c-4 0 -9 -1 -13 -4c-11 -6 -11 -15 -11 -24v-79c0 -6 -1 -38 -1 -46c0 -5 2 -32 2 -37c0 -7 -1 -14 -1 -21c0 -4 1 -23 1 -28c0 -10 -2 -59 -2 -71c0 -6 1 -40 1 -48c0 -14 0 -35 21 -35c8 0 20 6 23 8c13 8 21 36 22 40c5 19 6 88 6 89c0 4 -1 28 -1 33c0 6 2 33 2 40
c0 3 -7 116 -7 116c-6 41 -19 67 -42 67z" />
    <glyph glyph-name="E" unicode="E" horiz-adv-x="375" 
d="M368 102v-57c0 -16 -2 -41 -31 -46c-7 -1 -79 0 -93 0c-6 0 -34 -1 -40 -1c-8 0 -44 3 -53 3c-12 0 -73 -3 -87 -3c-20 0 -36 12 -36 37c0 4 2 104 2 123c0 22 -4 130 -4 154c0 9 1 52 1 62c0 28 -1 57 -1 85c0 11 1 62 1 74c0 9 -2 51 -2 61v37c0 6 -1 32 -1 38
c0 20 8 36 35 36c3 0 12 0 21 -1c9 0 19 -1 22 -1c14 0 81 4 97 4c11 0 63 -2 75 -2c11 0 23 1 35 1c38 0 43 -17 43 -47c0 -10 -1 -20 -1 -30c0 -4 1 -27 1 -32c0 -33 -11 -44 -41 -44c-8 0 -17 1 -25 1h-17c-8 0 -16 1 -24 1c-6 0 -33 -1 -39 -1c-7 0 -16 0 -21 -11
c-4 -7 -4 -10 -3 -38c0 -5 -1 -25 -1 -30c0 -22 6 -30 37 -30c11 0 43 0 66 1c8 1 16 1 24 1c11 0 27 -1 36 -13c6 -8 6 -9 6 -65c0 -5 1 -26 1 -31c0 -37 -14 -49 -46 -49c-8 0 -49 3 -58 3c-51 0 -57 -8 -60 -22c-1 -5 1 -31 1 -37c0 -4 -1 -25 -1 -30c0 -38 9 -42 34 -41
c6 0 37 -1 44 -1c4 0 25 1 30 1c68 0 73 -3 73 -60z" />
    <glyph glyph-name="F" unicode="F" horiz-adv-x="333" 
d="M256 556h-49c-22 0 -27 -9 -27 -53c0 -52 0 -57 41 -57c4 0 22 0 47 2c14 1 34 3 36 3c11 0 23 -9 23 -24c0 -4 -2 -23 -2 -27c0 -6 2 -33 2 -39c0 -3 -1 -18 -1 -21s1 -17 1 -20c0 -16 -8 -31 -26 -31c-9 0 -54 1 -64 1c-4 0 -23 -1 -28 -1c-16 0 -23 -14 -24 -16
c-2 -4 -2 -7 -1 -27c0 -5 -1 -29 -1 -34c0 -19 3 -38 3 -57c0 -7 -2 -41 -2 -48c0 -9 4 -50 4 -60v-21c0 -21 -13 -24 -26 -24c-4 0 -24 2 -29 2s-28 -2 -33 -2c-4 0 -22 1 -26 1s-22 -2 -27 -2c-24 0 -24 18 -24 27c0 5 0 9 1 13c1 15 3 59 3 71c0 7 -2 42 -2 50
c0 4 -1 80 -1 84c0 16 4 92 4 110c0 19 -5 113 -5 134c0 15 2 88 2 105c0 11 -1 63 -1 75c0 24 9 38 37 38c6 0 33 -1 40 -1c10 0 57 1 68 1h40c15 0 56 0 76 2c4 0 9 1 13 1c19 0 34 -10 34 -49c0 -6 -1 -34 -1 -41v-25c0 -38 -12 -40 -75 -40z" />
    <glyph glyph-name="G" unicode="G" horiz-adv-x="437" 
d="M419 269v-87c0 -12 -1 -71 -1 -84c0 -7 2 -41 2 -49c0 -32 -9 -55 -122 -55c-115 0 -174 23 -217 80c-49 66 -67 158 -67 257c0 23 3 58 5 88c3 46 4 50 15 86c9 31 14 49 30 79c6 10 45 57 47 60c29 32 77 50 99 56c8 2 58 11 81 11c17 0 49 -3 61 -5
c32 -6 39 -7 47 -17c6 -9 7 -11 7 -94c0 -14 0 -35 -4 -41c-3 -5 -18 -16 -28 -16c-5 0 -16 4 -24 7c-14 4 -38 6 -45 6c-20 0 -50 -4 -67 -15c-14 -9 -43 -43 -52 -74c-7 -24 -6 -50 -7 -75c-1 -9 -4 -53 -4 -64c0 -43 8 -118 32 -149c10 -12 24 -21 39 -21c9 0 15 6 17 8
c7 8 8 16 8 30c0 10 -1 20 -2 30v33c-1 10 -1 26 -5 34c-3 7 -4 7 -22 7c-20 0 -20 9 -19 19c0 0 -1 70 -1 76c0 14 0 15 1 35c2 22 12 28 23 28c3 0 17 -1 21 -1c11 0 69 -1 71 -1c9 0 19 0 28 1c5 0 11 1 17 1c33 0 36 -24 36 -55c0 -9 -2 -49 -2 -58c0 -10 2 -60 2 -71z
" />
    <glyph glyph-name="H" unicode="H" horiz-adv-x="437" 
d="M26 28v29c0 13 1 72 1 86s0 28 -1 42c0 8 -1 16 -1 24c0 6 1 37 1 44v32c0 7 1 37 1 44c0 30 -2 61 -2 91c0 11 1 41 3 71c2 32 2 66 2 88c0 16 0 33 -1 49c0 6 -2 32 -2 38c0 38 23 38 36 38c4 0 23 -1 27 -1c8 0 49 2 59 2c37 0 37 -20 37 -31c0 -18 -1 -100 -2 -115
c0 -5 -2 -30 -2 -36c0 -5 2 -29 2 -35c0 -2 -1 -14 -1 -16c0 -14 7 -21 23 -21c1 0 30 2 32 3c12 4 12 15 12 23c0 3 1 10 1 16c1 8 0 54 0 64v110c0 17 0 40 35 40c3 0 11 -1 20 -1c8 -1 17 -2 20 -2s13 1 23 2s20 2 23 2c38 0 40 -22 40 -41c0 -7 -1 -13 -1 -19
c-2 -39 -3 -59 -3 -81c0 -24 1 -48 1 -72c1 -26 1 -108 1 -112c0 -13 -1 -78 -2 -93c0 -15 1 -91 1 -108c0 -10 -1 -60 -1 -71c0 -12 0 -23 1 -35l3 -33c0 -42 -20 -44 -41 -44c-15 0 -32 2 -48 2c-5 0 -35 -3 -41 -3c-29 0 -33 16 -33 56c0 10 4 61 4 73c0 5 -1 31 -1 37
v18c0 11 3 64 3 76c0 2 -5 25 -5 26c-5 12 -22 12 -27 12c-38 0 -41 -4 -41 -35c0 -5 -2 -28 -2 -33c0 -7 1 -14 1 -22c3 -25 4 -33 4 -46c0 -12 -3 -66 -3 -78c0 -8 3 -46 3 -54c0 -15 -5 -30 -28 -30c-5 0 -32 2 -38 2c-8 0 -47 -2 -56 -2c-31 0 -37 13 -37 30z" />
    <glyph glyph-name="I" unicode="I" horiz-adv-x="208" 
d="M25 667c0 29 7 39 32 39c7 0 40 -2 48 -2s49 2 58 2c23 0 24 -23 24 -29s-1 -13 -2 -19c-1 -12 -2 -25 -2 -37c0 -34 0 -67 -1 -101c0 -17 1 -45 1 -62c0 -6 -2 -34 -2 -41c0 -10 1 -60 1 -71s-2 -64 -2 -76c0 -9 1 -51 1 -60c0 -16 -3 -96 -3 -114c0 -14 1 -29 1 -43
c1 -4 2 -22 2 -26c0 -8 -4 -23 -24 -26c-4 -1 -28 0 -34 0c-11 0 -67 -1 -79 -1c-24 0 -24 25 -24 37v2c0 14 2 83 2 98c1 31 0 79 0 109c0 18 4 106 4 126c0 10 -2 59 -2 70c0 8 2 44 3 52c0 13 -1 75 -1 89c0 5 1 31 1 37c0 7 -2 39 -2 47z" />
    <glyph glyph-name="J" unicode="J" horiz-adv-x="250" 
d="M229 372v-16c0 -7 1 -43 1 -51v-50c0 -14 -3 -80 -3 -95c0 -7 1 -42 1 -50c0 -13 -1 -38 -13 -59c-13 -24 -44 -47 -77 -51c-1 0 -100 -1 -109 -1c-16 0 -24 11 -24 22c0 3 1 17 1 20v24c0 5 1 32 1 38c0 3 -1 23 -1 27c0 23 13 31 18 32c2 1 9 1 18 1c8 0 26 0 29 20
c1 2 2 68 2 69c0 30 -2 60 -2 90v190c0 39 -4 120 -6 132c0 5 -1 11 -1 16c0 19 12 25 22 25c1 0 10 -1 11 -1h42c14 0 29 1 44 1c30 0 43 0 43 -33c1 -11 0 -62 0 -74c0 -10 2 -63 2 -75c0 -6 -1 -38 -1 -45s1 -44 1 -52c0 -3 -1 -18 -1 -22s2 -27 2 -32z" />
    <glyph glyph-name="K" unicode="K" horiz-adv-x="417" 
d="M26 31v3c0 23 1 59 2 82c0 10 -1 56 -1 67c0 39 1 78 1 117c0 20 -1 119 -1 141c0 11 1 65 1 77c0 19 -1 39 -1 58c-1 8 0 45 0 54c0 6 -1 40 -1 47c0 28 18 28 25 28c5 0 19 -1 33 -1c14 -1 29 -2 34 -2c7 0 14 0 21 1c5 1 10 2 16 2c12 0 26 -7 26 -29
c0 0 -3 -32 -3 -34c-1 -12 -1 -24 -1 -37c0 -7 1 -39 1 -46c0 -4 -2 -20 -2 -24c0 -6 3 -13 6 -13s11 22 13 27c15 43 31 85 45 128c5 13 10 28 35 28c3 0 12 0 22 -1c9 0 18 -1 21 -1c8 0 45 4 54 4c8 0 26 0 26 -20c0 -7 -3 -14 -8 -27c-8 -18 -15 -37 -22 -56
c-10 -28 -17 -48 -37 -89c-5 -11 -11 -23 -16 -34c-5 -13 -8 -25 -13 -38c-9 -23 -11 -28 -11 -36c0 -14 4 -23 16 -49c9 -20 16 -41 22 -62c6 -19 11 -39 17 -59c5 -13 9 -25 14 -38c7 -19 13 -37 18 -56c8 -26 13 -53 24 -79c5 -12 12 -29 12 -37c0 -7 -2 -12 -4 -16
c-6 -11 -15 -11 -21 -11s-35 2 -42 2c-13 0 -49 -1 -54 -2c-6 -1 -12 -2 -17 -2c-19 0 -25 20 -27 26c-2 7 -13 47 -15 56c-5 16 -10 32 -15 49c-9 33 -27 121 -28 124c-2 11 -6 12 -7 12c-7 0 -6 -11 -6 -13v-31c0 -6 3 -74 3 -101v-33c1 -9 5 -49 5 -58
c0 -8 0 -19 -12 -27c-4 -2 -8 -4 -12 -4c-3 0 -16 1 -19 1c-7 0 -37 2 -44 2c-8 0 -42 -2 -49 -2c-24 0 -24 21 -24 32z" />
    <glyph glyph-name="L" unicode="L" horiz-adv-x="313" 
d="M28 680c0 27 15 28 24 28c6 0 12 -1 18 -2c12 -1 25 -2 37 -2c11 0 23 1 34 2c6 0 12 1 18 1c24 0 29 -15 29 -24c0 -3 -1 -19 -1 -23c-2 -23 -3 -51 -3 -69s3 -108 3 -128c0 -10 -2 -61 -2 -72c0 -8 1 -47 1 -55c0 -18 -1 -106 -1 -126c0 -30 1 -58 36 -58
c1 0 24 1 34 2c3 0 24 3 26 3c27 0 32 -21 32 -44c0 -6 -2 -34 -2 -41c0 -5 2 -29 2 -35c0 -26 -14 -37 -39 -37c-6 0 -36 2 -43 2c-17 0 -35 -2 -52 -2c-7 0 -39 2 -47 2c-9 0 -55 -3 -66 -3c-29 0 -35 22 -36 26c-2 7 -2 29 -2 37c0 1 1 16 1 18v62c0 10 -2 57 -2 68
c0 9 1 57 1 68c0 6 -1 110 -1 130c0 4 2 21 2 25c0 2 -1 11 -1 13c0 4 1 21 1 25c0 5 -1 31 -1 37c0 17 3 100 3 119c0 7 0 15 -1 23c0 4 -2 26 -2 30z" />
    <glyph glyph-name="M" unicode="M" horiz-adv-x="562" 
d="M184 221v-46c0 -9 2 -53 2 -63c0 -7 -1 -41 -1 -48s2 -37 2 -44c0 -6 0 -23 -28 -23c-2 0 -23 2 -24 2c-11 1 -22 2 -40 2c-12 0 -31 -2 -43 -2c-20 0 -25 10 -25 30c0 22 1 128 1 153s-1 149 -1 177c0 13 1 80 1 95c0 10 -1 58 -1 69c0 8 1 45 1 53c0 10 -2 57 -2 68
c0 26 0 35 5 45c2 5 10 17 23 17c8 0 48 -2 57 -2c8 0 51 2 60 2c7 0 19 0 26 -12c3 -4 8 -25 9 -29c2 -6 11 -30 12 -36c5 -14 12 -27 16 -41c2 -6 14 -45 15 -49s2 -9 3 -13l6 -18c2 -4 7 -25 8 -30c3 -9 7 -10 8 -10c5 0 13 23 16 32c5 21 6 23 10 33c7 16 30 82 35 99
c3 12 6 25 9 38c6 20 12 36 34 36c9 0 61 -1 73 -1c7 0 42 1 51 1c12 0 33 0 33 -27c0 -2 -1 -5 -1 -7c0 -13 -3 -74 -3 -83c0 -11 2 -65 2 -78c0 -12 1 -74 1 -88v-39c-1 -21 -1 -80 -1 -82c0 -14 2 -80 2 -96c0 -12 -3 -70 -3 -83v-25c1 -8 4 -47 4 -56
c0 -27 -5 -42 -32 -42c-8 0 -45 1 -53 1c-6 0 -34 -1 -40 -1c-38 0 -38 27 -38 35c0 5 2 28 2 34c1 10 1 21 1 32v54c0 12 2 70 2 84c0 5 -2 32 -2 38c0 3 2 64 1 70v14c0 2 -1 4 -4 4c-7 0 -7 -2 -10 -14c0 -3 -1 -6 -2 -9c-2 -4 -3 -9 -4 -13c-1 -7 -13 -41 -16 -50
c-6 -18 -13 -36 -21 -53c-5 -10 -10 -21 -14 -31c-10 -21 -13 -29 -24 -29c-13 0 -24 7 -33 29c-4 11 -7 23 -11 34c-5 16 -13 31 -20 47c-5 14 -9 29 -14 44c-13 43 -14 45 -18 45c-2 0 -7 -4 -7 -10c0 -2 2 -14 2 -17c0 -2 -1 -14 -1 -17c0 -8 1 -16 1 -23
c2 -18 3 -63 3 -77z" />
    <glyph glyph-name="N" unicode="N" horiz-adv-x="479" 
d="M27 95v71c0 12 -1 70 -1 83c0 28 0 94 1 121c0 4 2 40 2 45c0 26 -2 53 -2 79c0 13 2 76 2 90c0 13 -3 76 -3 90c0 15 6 25 19 27c2 1 20 1 24 1h26c10 0 59 2 64 2c19 0 30 -2 44 -40c4 -10 19 -62 22 -74c7 -20 14 -39 21 -58c6 -20 11 -41 17 -61c3 -14 23 -79 25 -94
c3 -13 8 -15 8 -15c3 0 3 22 3 24c0 7 -3 58 -4 82c-1 19 -2 38 -2 57c0 8 1 47 1 56c0 20 -2 40 -5 70c0 7 -1 19 -1 28c0 14 7 23 19 23c4 0 22 -1 26 -1h35c14 0 28 0 42 2c5 1 10 2 16 2c14 0 25 -6 25 -25v-49c-1 -37 -2 -118 -2 -157c0 -10 1 -61 1 -73
c0 -16 -3 -92 -3 -110c0 -34 3 -68 3 -102c0 -23 -1 -46 -1 -68c0 -11 2 -67 2 -80c0 -35 -12 -41 -28 -41c-4 0 -9 0 -14 1c-12 1 -23 1 -34 1c-18 0 -30 0 -42 -2c-5 0 -15 -2 -17 -2c-20 0 -25 15 -43 70c-8 27 -21 70 -29 97c-4 11 -8 23 -11 34c-3 10 -6 21 -9 31
c-4 14 -9 27 -13 41s-25 88 -26 88c-2 0 -4 -17 -4 -28c0 -5 0 -10 1 -15c1 -36 2 -72 2 -99c0 -11 -1 -66 -1 -78c0 -24 0 -30 5 -84c0 -7 1 -21 1 -28c0 -29 -20 -29 -30 -29c-9 0 -54 1 -64 1c-6 0 -35 -1 -42 -1c-28 0 -28 21 -28 33c0 9 2 54 2 64z" />
    <glyph glyph-name="O" unicode="O" horiz-adv-x="437" 
d="M22 445c0 45 5 137 17 172c17 47 61 70 76 78c17 9 40 21 106 21c27 0 68 -4 93 -14c19 -7 45 -25 60 -44c36 -51 38 -110 40 -163c0 -28 0 -56 1 -84c1 -50 3 -100 3 -150c0 -108 -12 -181 -68 -228c-38 -31 -81 -42 -141 -42c-71 0 -114 28 -136 53
c-30 35 -34 57 -40 85c-8 38 -8 39 -8 91c0 19 -3 110 -3 130c0 6 1 36 1 43s-1 44 -1 52zM218 573c-2 0 -25 0 -33 -27c-5 -18 -5 -77 -5 -97c0 -39 1 -102 1 -142c0 -21 0 -102 3 -118c2 -12 9 -41 34 -41c28 0 40 24 40 55c0 11 -2 60 -2 72c0 16 2 98 2 116
c0 34 -1 93 -3 128c-1 16 -3 54 -37 54z" />
    <glyph glyph-name="P" unicode="P" horiz-adv-x="437" 
d="M29 372v51c0 6 -2 35 -2 42c0 12 1 25 2 37c0 11 2 81 2 91c0 9 -3 58 -3 69c0 23 1 39 37 39c5 0 29 -1 35 -1c14 0 87 4 103 4c88 0 110 -16 137 -35c28 -19 41 -39 47 -51c1 -1 20 -46 23 -57c4 -15 14 -93 14 -129c0 -7 -2 -40 -3 -48c0 -12 -1 -16 -6 -36
c-4 -16 -5 -32 -11 -47c-11 -25 -39 -60 -57 -78c-27 -28 -86 -33 -88 -33c-4 0 -21 2 -25 2c-40 0 -48 -24 -48 -48c0 -7 3 -77 3 -84c1 -6 3 -28 3 -32c0 -7 0 -30 -35 -30c-3 0 -11 1 -20 2c-8 0 -17 1 -20 1s-6 -1 -9 -1c-7 0 -45 -2 -53 -2s-29 0 -29 26c0 8 3 17 4 25
v31c0 7 -2 42 -2 49s1 41 1 49v110c0 5 -1 28 -1 33c0 7 1 43 1 51zM183 523v-26c0 -13 2 -81 2 -96c0 -12 0 -49 29 -49c41 0 50 54 50 80c0 4 -2 45 -2 48c-1 5 -7 31 -9 38c-6 14 -19 35 -42 35c-3 0 -28 0 -28 -30z" />
    <glyph glyph-name="Q" unicode="Q" horiz-adv-x="458" 
d="M455 120v-13c-1 -13 -2 -51 -2 -64c0 -3 1 -20 1 -23c0 -14 -6 -24 -25 -24c-2 0 -32 0 -74 34c-20 -15 -53 -40 -138 -40c-44 0 -89 9 -124 36c-29 23 -50 51 -60 103c-11 56 -11 156 -11 273c0 121 1 201 32 243c10 14 35 36 58 48c35 17 93 22 127 22
c115 0 144 -55 160 -86c26 -48 28 -103 28 -195c0 -18 2 -107 2 -128c0 -85 -3 -116 -8 -164c6 3 11 5 16 5c4 0 18 -2 18 -27zM267 182c-1 36 -1 72 -1 108c0 22 1 130 1 154c0 20 0 84 -3 98c-5 18 -16 29 -39 29c-18 0 -32 -4 -39 -24c-3 -9 -4 -60 -4 -71
c0 -6 1 -36 1 -42c0 -25 -1 -148 -1 -176c0 -19 1 -75 6 -91c2 -4 10 -20 24 -20c4 0 4 1 4 2c0 4 -4 10 -7 13c-12 17 -12 21 -12 25c0 18 22 26 33 26c12 0 16 -5 24 -15c5 -6 12 -16 13 -16z" />
    <glyph glyph-name="R" unicode="R" horiz-adv-x="458" 
d="M32 415l2 192c0 19 0 74 4 83c7 18 30 18 43 18c8 0 45 -1 53 -1h2c9 0 51 2 60 3c26 1 51 2 76 2s76 0 122 -63c34 -46 35 -74 37 -157c0 -10 3 -57 3 -68c0 -33 -11 -105 -60 -148c-12 -10 -15 -12 -15 -19s5 -14 9 -20c3 -6 6 -12 8 -18c13 -30 15 -35 30 -77
c10 -28 23 -55 34 -82c4 -9 7 -18 7 -28c0 -12 -8 -30 -37 -30c-7 0 -43 2 -51 2c-7 0 -44 -3 -52 -3c-25 0 -27 11 -32 34c-3 18 -18 56 -18 57c-6 15 -12 30 -18 44c-5 12 -9 24 -12 36c-6 24 -10 42 -25 42c-11 0 -14 -8 -14 -10c-3 -7 -3 -57 -3 -67c0 -15 1 -27 1 -33
c0 -9 4 -56 4 -66c0 -8 0 -39 -30 -39c-8 0 -44 3 -53 3c-8 0 -15 -1 -23 -2c-4 0 -23 -3 -27 -3c-16 0 -27 12 -27 38v11c1 21 1 25 1 64c0 11 2 65 2 77c0 13 0 17 -1 55c-1 51 0 121 0 173zM185 538c0 -6 2 -33 2 -39c0 -21 -2 -42 -2 -63c0 -28 0 -59 34 -59
c18 0 54 10 54 54c0 5 0 10 -1 16c0 10 -1 60 -3 71c-6 46 -34 46 -49 46c-31 0 -35 -9 -35 -26z" />
    <glyph glyph-name="S" unicode="S" horiz-adv-x="354" 
d="M14 41v50c0 5 -1 26 -1 31c0 3 2 19 2 23c1 8 0 16 3 22c4 7 23 17 31 17c5 0 6 -1 17 -8c5 -3 10 -5 15 -7c16 -8 33 -14 51 -14c49 0 51 44 51 49c0 24 -16 40 -44 66c-6 7 -13 13 -20 20c-9 9 -16 19 -23 29c-9 10 -18 19 -26 29c-14 17 -19 26 -28 45
c-17 33 -30 58 -30 119c0 66 9 91 21 112c9 18 39 50 41 52c13 11 63 35 135 35c18 0 70 -1 84 -9c18 -10 18 -22 18 -72v-49c0 -4 0 -14 -5 -21c-6 -9 -22 -17 -31 -17c-5 0 -7 1 -18 6s-28 10 -46 10c-30 0 -45 -14 -45 -40c0 -19 7 -27 21 -41c6 -6 15 -16 21 -22
c5 -5 31 -35 38 -41c26 -23 29 -26 49 -54c16 -23 17 -26 31 -59c11 -28 20 -51 20 -118c0 -23 -2 -91 -57 -141c-21 -19 -47 -38 -74 -45c-31 -8 -51 -9 -69 -9c-29 0 -43 3 -85 12c-30 7 -47 12 -47 40z" />
    <glyph glyph-name="T" unicode="T" horiz-adv-x="333" 
d="M60 543h-14c-5 -1 -9 -2 -14 -2c-8 0 -21 5 -25 12c-1 4 -3 43 -3 47c0 5 2 30 2 36c0 5 -1 30 -1 36c0 8 1 22 11 28c8 5 32 6 42 6c5 0 30 -1 36 -1s36 1 43 2h51c9 0 19 -1 29 -1c2 0 13 0 16 1h70c22 0 23 -25 24 -48c0 -11 1 -65 1 -77c0 -27 -10 -40 -30 -40
c-3 0 -19 2 -22 2c-27 0 -33 -2 -33 -23c0 -9 0 -28 1 -38c0 -9 3 -58 3 -68c0 -11 -2 -60 -2 -71c0 -15 3 -89 3 -106c0 -15 -2 -88 -2 -104c0 -22 1 -44 1 -66c0 -5 1 -30 1 -35c0 -8 0 -35 -30 -35c-5 0 -10 1 -16 2c-10 1 -19 1 -29 1h-12c-5 0 -29 -1 -33 -2
c-6 0 -12 -2 -18 -2c-13 0 -25 11 -25 23c0 3 0 5 1 7c2 13 2 22 3 46c0 48 -1 125 -1 173c0 13 -1 74 -1 88c0 23 1 46 1 69v73c0 11 1 30 1 41c0 26 -15 26 -29 26z" />
    <glyph glyph-name="U" unicode="U" horiz-adv-x="437" 
d="M21 668c0 38 23 40 27 40c9 0 56 -2 66 -2c5 0 30 2 35 2c12 0 34 -3 34 -29c0 -30 -2 -80 -2 -110c0 -11 1 -64 1 -76c0 -16 -3 -94 -3 -112c0 -10 3 -57 3 -68c0 -16 -1 -42 -1 -59c0 -8 -1 -51 -1 -61c0 -26 8 -42 36 -42c26 0 42 9 42 42v52c0 6 -1 23 -1 32
c-1 6 -1 60 -1 70c0 8 2 46 2 54c0 15 -2 86 -2 103c0 12 1 76 1 90c0 8 -2 45 -2 53v17c0 3 -1 17 -1 21c0 19 16 24 32 24c7 0 44 -1 52 -1c6 0 34 1 40 1c7 0 37 0 37 -37c0 -4 -2 -28 -2 -33c0 -11 3 -62 3 -74c0 -7 -1 -43 -1 -51c0 -9 2 -51 2 -61s-3 -60 -3 -71
c0 -10 2 -61 2 -72c0 -13 -3 -75 -3 -89c0 -8 2 -51 2 -60c0 -43 -18 -94 -71 -133c-37 -28 -70 -37 -121 -37c-90 0 -123 19 -150 45c-47 44 -48 88 -49 132c0 25 0 50 -1 75c0 13 -3 81 -3 96c0 25 2 50 2 75c0 10 2 57 2 68c0 4 -1 22 -1 27c0 12 2 24 2 37
c0 5 0 7 -1 25c-1 15 -1 26 -1 47c0 7 -2 42 -2 50z" />
    <glyph glyph-name="V" unicode="V" horiz-adv-x="437" 
d="M62 308c-4 26 -9 51 -14 76c-9 44 -19 88 -26 132c-5 34 -7 69 -13 104c-9 50 -10 56 -10 65c0 20 17 20 25 20c6 0 35 -2 41 -2c9 0 52 3 62 3c28 0 32 -15 36 -33c4 -17 15 -110 16 -121c2 -18 5 -35 8 -53c2 -20 4 -42 5 -63c2 -22 15 -133 17 -158c0 -5 3 -30 3 -32
c0 -5 1 -19 7 -19c4 0 5 3 8 27c0 4 6 67 7 74c2 25 16 145 19 172c0 7 2 42 3 50c1 10 3 20 5 30c4 20 3 42 5 62c3 53 5 64 46 64c9 0 52 -3 62 -3c3 0 11 0 19 1h19c15 0 23 -11 23 -28c0 -8 -1 -12 -6 -31c-7 -30 -16 -111 -17 -121s-2 -21 -3 -31
c-1 -4 -24 -134 -26 -145c-5 -27 -24 -160 -30 -190c-4 -17 -8 -34 -11 -52c-2 -9 -9 -57 -11 -68c-3 -16 -7 -40 -34 -40c0 0 -20 1 -22 2c-22 1 -41 1 -55 1h-51c-4 0 -21 -1 -25 -1c-20 0 -23 16 -26 29c-2 9 -12 58 -15 69c-8 43 -19 86 -27 129c-5 27 -10 54 -14 81z
" />
    <glyph glyph-name="W" unicode="W" horiz-adv-x="646" 
d="M76 205c-11 55 -24 144 -34 199c-8 48 -20 95 -28 143c-2 14 -15 117 -15 126c0 5 0 29 22 29c3 0 6 0 10 -1c11 -1 22 -1 32 -1c23 0 33 1 37 1c7 1 15 2 22 2c33 0 38 -10 41 -39c4 -37 4 -41 11 -83c9 -51 18 -103 26 -153c4 -25 8 -50 10 -76c1 -10 2 -19 4 -28
c1 -7 1 -7 1 -13c0 -4 1 -6 4 -6c8 0 8 6 8 12c0 2 31 135 31 144c-4 24 -9 49 -12 73c-3 20 -5 40 -8 59c-2 14 -14 86 -14 90c0 12 11 19 22 19c4 0 8 0 12 -1c9 -1 18 -2 27 -2c6 0 22 1 38 2c16 0 33 1 39 1c25 0 31 -10 34 -34c8 -73 30 -259 31 -275
c2 -16 3 -43 6 -59c1 -6 1 -7 1 -17c0 -8 4 -14 6 -14s3 5 4 8c3 11 10 99 12 117c2 24 7 47 10 71c1 12 5 69 7 82c2 18 5 48 6 80c0 15 1 37 27 37h11c20 -2 49 -2 70 -2c4 0 27 1 33 1c25 0 25 -16 25 -24s-6 -45 -6 -46c-3 -17 -6 -34 -9 -50c-2 -13 -4 -25 -5 -37
c-4 -36 -5 -44 -18 -118c-4 -24 -8 -49 -12 -73c-4 -23 -8 -45 -14 -68c-1 -6 -3 -12 -4 -18c-8 -37 -15 -95 -24 -131c-2 -11 -6 -22 -8 -32c-3 -12 -5 -23 -7 -35c-7 -54 -9 -68 -36 -68c-4 0 -15 1 -26 2c-12 0 -23 1 -27 1c-5 0 -18 -1 -31 -1c-13 -1 -25 -2 -30 -2
c-22 0 -26 13 -29 22c-2 10 -3 14 -8 49c-4 25 -9 50 -15 74c-7 26 -13 53 -13 60c-1 9 -1 11 -3 11c-6 0 -6 -7 -6 -11c0 -1 -16 -96 -18 -106c-1 -9 -2 -19 -3 -28c-2 -11 -4 -22 -6 -34c-2 -14 -5 -36 -29 -36h-6c-16 2 -22 2 -40 2c-11 0 -42 0 -61 -2
c-4 0 -8 -1 -11 -1c-22 0 -27 18 -29 25c-2 11 -6 40 -8 52c-3 19 -23 110 -27 131z" />
    <glyph glyph-name="X" unicode="X" horiz-adv-x="437" 
d="M344 467c-8 -20 -17 -39 -25 -59c-16 -37 -16 -37 -16 -43c0 -9 2 -13 20 -53c31 -68 74 -185 75 -188l15 -42c5 -12 10 -23 15 -35c2 -7 5 -18 5 -23c0 -24 -20 -24 -29 -24h-48c-10 0 -54 -2 -63 -2c-25 0 -30 15 -35 31c-3 8 -19 50 -22 60c-3 11 -6 23 -10 34
c-5 13 -5 15 -7 29c-1 2 -5 18 -7 18s-8 -28 -8 -30c-1 -6 -1 -13 -2 -19s-3 -12 -5 -18c-2 -8 -20 -73 -20 -75c-3 -13 -7 -30 -29 -30c-2 0 -27 2 -32 2s-31 2 -36 2c-8 0 -16 -1 -23 -1c-6 0 -34 -2 -35 -2c-7 0 -22 2 -22 18c0 10 6 26 10 37c8 22 18 44 27 66
c8 20 15 41 24 61c5 12 10 24 16 36c4 11 9 22 13 34c11 26 22 51 32 77c3 8 6 16 10 24c6 14 7 16 7 22s-2 12 -11 37c-6 16 -14 32 -20 48c-6 14 -23 60 -24 63c-27 70 -29 77 -48 119c-5 12 -16 38 -16 45c0 20 18 20 26 20c3 0 12 0 22 -1c9 0 19 -1 22 -1
c8 0 51 3 61 3c28 0 33 -9 39 -28c3 -12 9 -31 16 -46c9 -21 18 -48 18 -58c0 -2 1 -15 7 -15c1 0 2 1 2 7c1 7 3 15 4 22c1 8 15 55 18 64c2 6 4 12 5 17c6 19 10 34 36 34c7 0 43 -2 51 -2c7 0 44 1 53 1c14 0 32 0 32 -16c0 -10 -31 -85 -38 -102c-8 -17 -15 -34 -22 -51
c-10 -23 -18 -45 -28 -67z" />
    <glyph glyph-name="Y" unicode="Y" horiz-adv-x="417" 
d="M-3 679c0 19 13 24 23 24c4 0 14 -1 25 -1c10 -1 21 -2 25 -2c5 0 19 1 34 2c14 0 28 1 33 1c24 0 27 -15 32 -35c2 -12 3 -24 5 -36c2 -8 4 -16 5 -24c8 -30 13 -60 16 -79c1 -7 8 -44 11 -44c1 0 2 4 3 7c4 10 13 64 15 75c5 23 11 46 14 69c1 10 1 21 2 32
c1 14 3 36 35 36c9 0 49 -3 58 -3c4 0 15 1 26 1c11 1 22 1 26 1c10 0 31 0 31 -21c0 -4 -1 -11 -3 -19c-4 -11 -9 -23 -13 -34c-3 -10 -4 -21 -7 -32c-4 -17 -9 -34 -16 -51c-8 -23 -16 -46 -23 -69c-11 -35 -17 -71 -29 -106c-5 -14 -10 -28 -15 -41
c-26 -72 -26 -73 -26 -111c-1 -26 -2 -51 -2 -76c0 -15 0 -22 4 -88c0 -4 2 -25 2 -29c0 -5 0 -27 -32 -27c-7 0 -43 2 -51 2c-9 0 -51 -4 -56 -4c-7 0 -26 4 -26 31c0 5 3 31 3 36c0 10 -2 58 -2 69c0 15 4 89 4 105c0 10 -1 21 -3 30c-2 8 -14 45 -23 69
c-2 4 -14 38 -17 49c-8 29 -9 33 -16 50c-9 25 -40 118 -52 165c-4 15 -8 30 -13 45c-6 18 -7 24 -7 33z" />
    <glyph glyph-name="Z" unicode="Z" 
d="M26 671c0 30 19 34 34 34c6 0 33 -2 40 -2c6 0 35 1 42 1c13 0 79 -2 94 -2c46 0 56 0 66 1c9 0 17 1 25 1h27c26 0 28 -16 29 -56c0 -3 1 -33 1 -35c0 -16 -3 -21 -11 -36c-7 -15 -17 -39 -25 -58c-10 -26 -35 -83 -46 -106c-8 -16 -16 -31 -23 -46
c-7 -16 -38 -94 -45 -112c-6 -12 -11 -24 -16 -37c-3 -7 -15 -42 -18 -45c-4 -8 -4 -8 -4 -11c0 -5 3 -5 7 -4h25c6 0 34 2 41 2h33c7 0 44 3 52 3c25 0 32 -16 32 -29c0 -5 -1 -10 -1 -15c-1 -5 -1 -35 -1 -43c0 -5 1 -29 1 -35c0 -10 0 -40 -33 -40c-4 0 -9 1 -14 1
c-10 1 -21 1 -39 1c-9 0 -51 -1 -61 -1c-8 0 -48 2 -57 2c-12 0 -73 -2 -87 -2h-25c-3 0 -22 -1 -26 -1c-32 0 -33 22 -33 31c0 18 -1 55 -1 75c0 26 1 28 15 56c6 13 10 26 15 39c32 78 34 82 48 112c15 29 17 35 36 82c12 31 26 60 42 88c12 22 17 30 21 42c1 4 2 8 4 12
c4 8 5 9 5 12c0 7 -4 7 -6 7c-1 0 -7 -1 -8 -1c-9 0 -51 2 -61 2c-7 0 -39 -2 -46 -3h-19c-12 0 -29 0 -29 23c0 7 1 41 1 48s-1 38 -1 45z" />
    <glyph glyph-name="bracketleft" unicode="[" horiz-adv-x="250" 
d="M33 658c0 32 16 48 39 48c11 0 22 -2 33 -3c13 -1 27 -2 48 -2c13 0 26 0 39 3c8 1 15 3 23 3c7 0 32 0 32 -32c0 -5 -1 -28 -1 -34c0 -4 1 -25 1 -29c0 -32 -16 -32 -35 -33c-27 -1 -29 -28 -28 -73v-149c0 -28 2 -164 2 -195v-42c0 -7 -2 -39 -2 -47
c0 -12 5 -23 17 -27c4 -1 9 -1 14 -2c9 -2 26 -10 31 -22c2 -6 2 -9 1 -36c0 -5 1 -30 1 -36c0 -35 -37 -35 -45 -35c-6 0 -12 1 -19 1c-15 1 -31 2 -47 2c-12 0 -25 -1 -37 -2c-5 0 -11 -1 -16 -1c-6 0 -22 0 -38 14c-7 7 -14 14 -14 56c0 14 4 86 5 103c1 25 0 49 1 74
c2 73 2 111 2 211c0 19 2 111 2 132c0 34 -3 95 -5 109s-4 29 -4 44z" />
    <glyph glyph-name="bracketright" unicode="]" horiz-adv-x="250" 
d="M0 615v52c0 11 0 40 44 40c8 0 16 -1 24 -1c12 -1 24 -2 35 -2c24 0 36 1 44 2h17c6 0 17 0 29 -7c20 -12 23 -26 23 -67c0 -13 -4 -80 -5 -95c-1 -20 -2 -124 -3 -148c0 -29 -1 -167 -1 -199c0 -25 -2 -66 -2 -91c0 0 4 -80 4 -82c1 -8 5 -44 5 -52c0 -5 0 -15 -5 -26
c-7 -17 -18 -23 -37 -23c-7 0 -14 1 -21 2c-23 2 -43 3 -56 3s-26 0 -38 -2c-8 -2 -16 -3 -25 -3c-23 0 -32 13 -32 29c0 5 1 34 1 41c0 3 -1 21 -1 25c0 32 20 32 34 32c29 0 29 33 29 52v87c0 14 1 79 1 94c0 52 -2 105 -2 158c0 7 1 94 2 104c0 4 1 7 1 11
c0 3 0 23 -22 28c-20 4 -43 8 -43 38z" />
    <glyph glyph-name="underscore" unicode="_" horiz-adv-x="500" 
d="M510 -75v-50h-520v50h520z" />
    <glyph glyph-name="quoteleft" unicode="&#x2018;" horiz-adv-x="167" 
d="M150 693c0 -4 -10 -16 -16 -23c-10 -12 -12 -33 -12 -36c0 -12 9 -16 11 -17c5 -3 11 -3 15 -5c12 -7 12 -18 12 -32c0 -7 -2 -43 -2 -52c0 -7 2 -44 2 -53c0 -7 0 -30 -28 -30c-5 0 -11 1 -16 2c-12 1 -24 1 -36 1c-5 0 -33 -1 -39 -1c-25 0 -28 17 -29 24
c-2 14 -2 52 -2 68c0 31 0 86 57 155c8 11 10 13 60 13c16 0 23 -4 23 -14z" />
    <glyph glyph-name="a" unicode="a" horiz-adv-x="375" 
d="M356 214v-73c0 -8 1 -45 1 -54c0 -7 -2 -42 -2 -50v-15c0 -19 -14 -23 -26 -23c-7 0 -42 1 -50 1c-9 1 -19 0 -28 -1c-5 0 -10 -1 -15 -1c-14 0 -14 6 -14 16c0 7 -3 11 -6 11s-15 -12 -18 -14c-11 -9 -29 -17 -57 -17c-35 0 -55 9 -70 19c-56 35 -64 130 -64 176
c0 72 13 123 36 153c32 43 79 49 98 49c22 0 30 -3 55 -15c2 -1 5 -2 8 -2c5 0 14 5 14 16c0 9 -3 24 -8 31c-5 8 -15 17 -57 17c-26 0 -49 -6 -64 -14c-11 -7 -13 -7 -17 -7c-9 0 -25 9 -27 18c-1 3 -2 15 -2 19c0 3 1 20 1 24c0 11 -1 21 -1 31c0 16 3 26 32 35
c40 13 57 13 78 13c6 0 35 1 41 1c25 0 91 -7 125 -31c27 -19 38 -41 38 -115c0 -7 -1 -41 -1 -49c0 -9 1 -53 1 -62c0 -29 -1 -58 -1 -87zM179 268c-6 0 -18 -4 -26 -19c-7 -14 -7 -23 -7 -51v-19c0 -41 11 -60 33 -60c25 0 31 30 31 33c1 4 1 66 1 76c0 26 -18 40 -32 40z
" />
    <glyph glyph-name="b" unicode="b" 
d="M19 539v111c-1 6 -2 34 -2 35c0 10 1 23 25 23c7 0 42 -3 50 -3s16 1 23 2c14 1 22 2 25 2c16 0 28 -8 28 -28c0 -7 -3 -40 -3 -47c0 -9 2 -52 2 -61v-14c-1 -3 -1 -15 -1 -18s0 -8 7 -8c5 0 7 2 13 6c21 17 47 22 69 22c78 0 127 -51 127 -270c0 -12 -5 -71 -5 -84
c-2 -60 -3 -101 -22 -140c-14 -26 -46 -74 -108 -74c-28 0 -50 10 -62 18c-2 1 -12 10 -14 10c-3 0 -4 -3 -5 -6c-2 -4 -2 -8 -4 -11c-3 -6 -10 -6 -13 -6c-7 0 -38 2 -45 2c-20 0 -32 -1 -41 -2c-5 0 -10 -1 -14 -1c-20 0 -32 10 -32 32c0 4 1 28 2 33v106
c0 11 -2 60 -2 72c0 10 2 62 2 73c0 17 -2 95 -2 113c0 16 2 95 2 113zM196 419c-9 0 -16 -9 -19 -13c-10 -14 -10 -28 -10 -49c0 -9 -2 -48 -2 -57c0 -20 2 -108 6 -121c5 -15 15 -23 26 -23c18 0 25 17 27 27c2 7 7 83 7 104c0 34 -1 91 -9 110c-4 11 -16 22 -26 22z" />
    <glyph glyph-name="c" unicode="c" horiz-adv-x="271" 
d="M17 279c0 87 5 112 16 155c16 65 44 131 157 131h41c16 0 27 -5 30 -20v-17c0 -11 1 -65 1 -77c0 -29 -12 -38 -31 -38c-6 0 -11 1 -17 1c-12 0 -20 -4 -28 -14c-13 -19 -18 -55 -18 -126c0 -13 2 -58 3 -70c3 -24 14 -47 47 -47c3 0 18 2 22 2c16 0 23 -12 23 -30
c0 -8 -3 -54 -3 -64c0 -5 1 -27 1 -32c0 -37 -33 -37 -44 -37s-22 2 -34 2c-2 0 -12 -1 -14 -1c-65 0 -93 34 -112 58c-15 21 -19 32 -24 51c-16 56 -16 83 -16 173z" />
    <glyph glyph-name="d" unicode="d" 
d="M229 565v55c0 8 -2 48 -2 57c0 22 10 31 28 31c7 0 14 -1 21 -2c9 -1 19 -2 29 -2c7 0 43 3 51 3c12 0 28 -3 28 -27c0 -4 0 -8 -1 -12c0 -3 -6 -103 -6 -202c0 -16 -1 -96 -1 -114c0 -13 2 -77 2 -91c0 -20 -1 -117 -1 -139c0 -14 2 -85 2 -100c0 -24 -20 -24 -31 -24
c-7 0 -43 2 -52 2c-5 0 -31 -2 -37 -2c-18 0 -18 8 -18 16s-6 12 -8 12c-4 0 -7 -3 -10 -6c-12 -11 -33 -28 -77 -28c-51 0 -77 32 -86 43c-37 45 -41 129 -42 158c0 8 -2 76 -2 92c0 31 4 104 5 111c11 138 91 164 130 164c22 0 42 -7 47 -9c14 -7 15 -7 18 -7
c12 0 13 8 13 21zM196 406c-32 0 -32 -51 -32 -61v-74c0 -18 -1 -36 -1 -53c0 -33 4 -80 33 -80c30 0 33 28 33 105c0 7 -1 43 -1 51c0 14 1 28 1 42c0 42 -8 70 -33 70z" />
    <glyph glyph-name="e" unicode="e" 
d="M360 85v-41c0 -10 -1 -16 -10 -23c-13 -10 -53 -25 -122 -25c-62 0 -122 11 -165 70c-42 56 -45 119 -45 213c0 7 4 83 5 93c9 126 70 193 176 193c48 0 97 -8 136 -65c35 -50 38 -101 38 -141c0 -12 -2 -105 -3 -111c-2 -4 -13 -31 -35 -30c-4 0 -23 2 -27 2
c-7 0 -42 -3 -50 -3c-10 0 -60 2 -72 2c-9 0 -24 0 -24 -25c0 -11 4 -24 11 -33c19 -27 48 -28 66 -28c37 0 42 2 77 19c6 2 11 4 17 4c13 0 29 -11 29 -25c0 -2 -2 -39 -2 -46zM161 365c0 -7 0 -26 10 -30c5 -2 31 -2 37 -2c17 0 26 4 26 28c0 21 0 41 -3 52
c-9 27 -29 27 -34 27c-36 0 -36 -48 -36 -75z" />
    <glyph glyph-name="f" unicode="f" horiz-adv-x="250" 
d="M17 519h9c12 0 12 8 12 15c0 8 -2 50 -2 60c0 39 0 109 96 113c6 0 39 -1 47 -1c4 0 24 1 29 1c35 0 35 -16 35 -47c0 -6 1 -34 1 -40v-23c-1 -23 -16 -24 -20 -24s-22 4 -26 4c-11 0 -21 -8 -21 -27c0 -28 1 -28 16 -28c3 0 20 1 24 1c28 0 28 -20 28 -28
c0 -5 -1 -28 -1 -34s1 -39 1 -47c0 -10 0 -19 -11 -21c-3 -1 -17 0 -19 0c-26 0 -27 -14 -27 -20v-43c0 -12 3 -115 4 -128c1 -8 2 -16 2 -25c0 -5 -1 -34 -1 -40c0 -9 -1 -55 -1 -65c0 -2 3 -49 3 -49c0 -16 -13 -22 -15 -23c-5 -1 -22 -1 -32 -1c-5 0 -30 1 -36 1
s-35 -2 -42 -2c-19 0 -34 2 -34 20c0 10 5 60 5 71c0 14 -3 79 -3 94c0 12 2 75 2 89c0 10 -2 57 -2 68v24c0 3 2 18 2 18c0 7 -6 12 -12 12c-4 0 -7 -1 -10 -1c-14 0 -14 9 -14 25c0 6 1 34 1 40s-1 34 -1 41c0 5 0 20 13 20z" />
    <glyph glyph-name="g" unicode="g" horiz-adv-x="375" 
d="M357 101v-9c-1 -15 -2 -61 -6 -75c-14 -48 -76 -96 -193 -96c-28 0 -66 3 -83 6c-14 2 -32 7 -35 25c0 2 -1 56 -1 65c0 21 7 38 28 38c2 0 23 -7 35 -11c8 -3 30 -8 44 -8c22 0 57 9 65 26c2 5 4 27 4 31c0 8 -5 12 -7 12s-4 -3 -7 -5c-2 -2 -4 -3 -7 -4
c-26 -14 -33 -17 -53 -17c-18 0 -34 5 -42 8c-25 10 -35 19 -50 43c-26 37 -30 59 -35 115c-2 20 -3 40 -3 60c0 9 1 55 1 66c0 0 1 76 24 124c33 67 98 72 103 72c20 0 49 -10 60 -25c4 -6 6 -10 10 -10c3 0 4 3 6 7c1 6 1 10 3 15c3 8 9 8 14 8c7 0 13 -1 20 -2
c6 -1 16 -1 31 -1c3 0 13 1 22 1c10 1 20 1 23 1c10 0 29 0 29 -28c0 -13 -1 -78 -1 -92c0 -35 1 -70 1 -105c0 -10 0 -33 -1 -60c-1 -19 -2 -38 -2 -57c0 -4 1 -39 2 -45c0 -16 1 -57 1 -73zM153 368v-53c0 -63 7 -97 28 -97c4 0 8 2 10 4c7 4 13 9 15 32c1 17 1 76 1 96
c0 13 0 71 -27 71c-6 0 -12 -5 -15 -9c-7 -10 -11 -32 -12 -44z" />
    <glyph glyph-name="h" unicode="h" 
d="M20 403c0 9 -2 54 -2 65c0 16 3 98 3 117v37c0 8 -2 49 -2 58c0 7 0 31 24 31c5 0 30 -2 36 -2c9 0 56 4 66 4c18 0 25 -13 25 -26c0 -5 -2 -33 -2 -39c0 -7 1 -40 1 -47s-1 -39 -1 -47c0 -12 1 -18 8 -18c4 0 4 0 12 8c5 5 36 23 72 23c17 0 68 -5 95 -36
c18 -21 25 -45 25 -88c0 -10 -2 -56 -2 -67c0 -49 -1 -129 -1 -179c0 -10 2 -59 2 -70c0 -8 -1 -46 -1 -55c0 -6 1 -36 1 -43c0 -29 -22 -29 -29 -29c-8 0 -46 2 -55 2c-6 0 -36 -2 -43 -2c-29 0 -28 5 -26 56c0 7 -1 40 -1 47c0 6 1 36 1 43c0 14 -2 84 -2 99
c0 28 0 71 2 99c0 3 2 35 2 38c0 38 -15 38 -25 38c-31 0 -32 -24 -33 -43c-1 -29 -1 -38 -1 -56c0 -9 1 -55 1 -65c1 -28 1 -69 1 -97c0 -10 -2 -59 -2 -70c0 -13 1 -27 2 -39c0 -5 3 -26 3 -30c0 -5 -1 -21 -22 -21c-7 0 -42 2 -50 2c-7 0 -43 -3 -51 -3
c-19 0 -32 2 -33 31c0 11 1 62 1 74c0 14 -1 83 -1 99c0 34 1 89 1 123c0 11 1 66 1 78z" />
    <glyph glyph-name="i" unicode="i" horiz-adv-x="187" 
d="M19 684c0 19 9 28 28 28c5 0 10 0 16 -1c8 -1 17 -1 25 -1c6 0 31 0 50 1c2 0 12 1 14 1c14 0 16 -17 17 -24c0 -4 -1 -23 -1 -28c0 -4 2 -26 2 -31c0 -14 -10 -20 -23 -20c-6 0 -35 1 -42 1s-41 -2 -49 -2c-2 0 -13 -1 -16 -1c-20 0 -20 25 -20 41c0 5 -1 30 -1 36z
M17 535c0 5 0 15 12 21c6 3 12 4 17 4s32 -2 38 -2c9 0 53 2 63 2c20 0 25 -13 25 -29c0 -5 0 -6 -1 -23s-2 -33 -2 -50c0 -13 2 -79 2 -94c0 -12 -2 -70 -2 -83c0 -28 2 -56 2 -83c0 -11 -3 -66 -3 -78s4 -71 4 -84c0 -6 0 -34 -26 -34c-5 0 -27 2 -32 2
c-11 0 -57 -3 -67 -3c-23 0 -33 7 -33 35c0 6 0 8 1 26c1 17 1 24 1 84c0 9 1 53 1 63s-1 59 -1 70s3 61 3 72c0 7 -1 41 -1 49c0 10 1 61 1 73s0 24 -1 35c0 4 -1 22 -1 27z" />
    <glyph glyph-name="j" unicode="j" horiz-adv-x="208" 
d="M43 678c0 19 3 31 23 31c5 0 28 -1 33 -1h23c8 0 15 0 23 1c7 1 13 2 19 2c14 0 27 -5 27 -23c0 -4 -1 -22 -1 -26s2 -26 2 -31c0 -23 -21 -23 -30 -23c-7 0 -40 1 -48 1c-7 0 -40 -2 -48 -2c-22 0 -22 15 -22 27c0 6 -1 37 -1 44zM46 466c0 10 -4 57 -4 68s6 24 26 24
c3 0 10 0 17 -1c7 0 15 -1 17 -1c6 0 27 1 45 1c3 1 18 3 21 3c25 0 25 -26 25 -33c0 -10 -1 -61 -1 -73c0 -7 1 -45 1 -54c0 -12 -1 -69 -1 -82c0 -11 2 -60 2 -72c0 -11 -2 -66 -2 -78c0 -18 1 -103 1 -122c0 -29 -3 -46 -10 -66c-11 -31 -30 -53 -61 -60
c-9 -2 -58 -4 -68 -4c-26 0 -54 7 -54 35c0 10 2 58 2 69c0 9 0 17 -1 26c-1 4 -1 9 -1 13c0 19 8 19 28 19c10 0 19 4 19 21c0 15 0 38 -1 53c-1 8 -1 16 -2 24v64c0 10 2 59 2 69c0 13 -2 74 -2 88c0 10 2 58 2 69z" />
    <glyph glyph-name="k" unicode="k" horiz-adv-x="375" 
d="M16 449v78c0 16 -2 96 -2 115c0 10 -1 26 -1 36c0 25 17 26 24 26c10 1 62 0 74 0c6 0 12 0 19 1c4 0 8 1 13 1c12 0 20 -6 22 -17c1 -5 0 -30 0 -35c0 -15 -2 -87 -2 -103v-152c0 -4 0 -7 1 -7c4 0 25 26 35 62c7 30 7 41 7 74c0 22 12 29 26 29c5 0 10 -1 16 -2
c14 -2 28 -2 49 -2c6 0 39 1 47 1c19 0 19 -19 19 -22c0 -6 -5 -39 -10 -59c-8 -32 -41 -123 -61 -150c-8 -11 -8 -12 -8 -19c0 -4 1 -9 2 -13c3 -11 25 -64 29 -76c7 -18 12 -36 19 -54c5 -15 12 -30 17 -45c4 -10 17 -58 21 -68c5 -15 6 -19 6 -26c0 -23 -22 -23 -30 -23
c-7 0 -41 2 -48 2c-9 0 -48 -3 -54 -3c-12 0 -19 6 -22 10c-6 9 -25 104 -30 123c-3 10 -6 19 -8 29c-9 31 -18 48 -19 48c-2 0 -4 -7 -4 -12c0 -2 1 -11 1 -13c0 -12 1 -46 1 -55c0 -7 -2 -43 -2 -51c0 -7 4 -41 4 -49c0 -9 0 -30 -26 -30c-5 0 -31 2 -37 2
c-9 0 -52 -3 -62 -3c-28 0 -28 23 -28 28c0 6 3 35 4 41c0 2 -1 34 -1 38c-1 13 1 77 1 92c0 49 -1 126 -1 175c0 11 0 22 -1 34c0 5 -1 10 -1 16c0 4 1 23 1 28z" />
    <glyph glyph-name="l" unicode="l" horiz-adv-x="187" 
d="M18 675c0 22 11 34 33 34c6 0 36 -3 43 -3c3 0 13 1 23 1c10 1 20 1 23 1c31 0 32 -19 32 -36c0 -8 -3 -51 -3 -60v-78c0 -15 -2 -88 -2 -105c0 -19 1 -38 1 -57c0 -12 -2 -72 -2 -85c0 -11 2 -65 2 -78c0 -29 -2 -59 -2 -89c0 -12 3 -68 3 -81c0 -27 -1 -40 -32 -40
c-5 0 -30 2 -36 2c-10 0 -26 0 -41 -1c-4 -1 -9 -1 -13 -1c-20 0 -30 8 -30 28c0 8 3 61 3 63c0 10 -2 56 -2 67c0 14 1 83 1 99s-1 98 -1 117c0 12 2 73 2 86c0 8 -1 47 -1 55c0 17 1 97 1 115c0 7 -2 38 -2 46z" />
    <glyph glyph-name="m" unicode="m" horiz-adv-x="583" 
d="M170 242v-41c0 -15 0 -29 1 -44c0 -5 -1 -33 -1 -39c0 -8 3 -44 3 -52c0 -46 0 -68 -27 -68c-7 0 -37 2 -44 2c-8 0 -46 -2 -54 -2c-9 0 -30 0 -30 32c0 5 1 9 1 14c2 19 3 37 3 56c0 14 -3 82 -3 97c0 43 1 85 2 127c0 7 -1 42 -1 50c0 9 2 53 2 62c0 17 -1 34 -2 51
c0 5 -2 31 -2 37c0 29 24 29 33 29c4 0 27 -1 32 -1c3 0 35 0 49 2c4 0 8 1 13 1c17 0 17 -9 17 -21c0 -8 5 -13 8 -13c2 0 4 1 16 11c10 7 37 26 75 26c40 0 67 -18 77 -25c2 -2 12 -11 15 -11c1 0 1 0 7 5c3 3 5 4 8 6c35 18 52 27 87 27c55 0 78 -25 86 -34
c24 -27 26 -73 26 -96c0 -11 -2 -65 -2 -78c0 -15 1 -88 1 -105c0 -13 -1 -78 -1 -92c0 -9 1 -50 1 -59c0 -8 2 -48 2 -57c0 -24 -3 -40 -29 -40c-7 0 -39 3 -47 3c-7 0 -43 -3 -52 -3c-27 0 -27 19 -27 42c0 9 2 53 2 63c0 18 -1 37 -1 56c0 24 2 47 2 71c0 7 -1 37 -1 45
v106c0 7 -2 23 -3 25c-1 4 -5 13 -18 13c-24 0 -28 -31 -28 -53c0 -7 0 -14 1 -21c0 -19 1 -75 1 -96c0 -8 -2 -48 -2 -57v-66c0 -8 2 -46 2 -55c0 -11 1 -29 1 -40c0 -24 -4 -33 -39 -33c-8 0 -45 1 -53 1c-5 0 -27 -1 -32 -1c-25 0 -30 14 -30 38c0 13 3 77 3 92
c0 12 -1 71 -1 85c0 48 3 124 3 172c0 25 -6 35 -22 35c-12 0 -19 -7 -23 -19c-6 -14 -6 -24 -4 -54c0 -15 -1 -89 -1 -106z" />
    <glyph glyph-name="n" unicode="n" horiz-adv-x="375" 
d="M18 527c0 25 18 27 29 27c5 0 34 -1 40 -1h8c6 0 34 2 40 2c4 0 17 0 21 -8c2 -4 0 -9 2 -14c1 -3 4 -6 7 -6c1 0 26 16 31 18c13 7 34 13 50 13c42 0 75 -22 89 -45c10 -18 20 -36 20 -89c0 -19 -1 -39 -1 -58c0 -7 1 -43 1 -50s-1 -38 -1 -45c0 -11 3 -65 3 -77
c0 -13 -2 -79 -2 -93c0 -10 2 -56 2 -67c0 -34 -18 -35 -44 -35c-5 0 -29 1 -35 1c-13 0 -26 -1 -40 -1c-11 0 -31 0 -31 30c0 13 2 74 2 88s-2 79 -2 94c0 19 2 113 2 134c0 50 0 72 -20 72c-14 0 -23 -19 -23 -52c0 -16 1 -92 1 -109c0 -10 -2 -57 -2 -68
c0 -12 4 -71 4 -84c0 -5 -2 -30 -2 -36c0 -4 2 -22 2 -27c0 -37 -14 -41 -33 -41c-7 0 -40 2 -48 2c-6 0 -35 -3 -42 -3c-16 0 -27 11 -27 31v46c0 16 2 98 2 116c0 12 -2 67 -2 80c0 11 2 67 2 79c0 20 -2 116 -2 138c0 5 -1 32 -1 38z" />
    <glyph glyph-name="o" unicode="o" 
d="M16 312c0 95 5 129 24 169c17 33 42 53 48 57c22 14 65 30 118 30c95 0 140 -60 153 -92c14 -33 19 -94 19 -207c0 -151 -15 -176 -31 -202c-22 -37 -62 -74 -150 -74c-44 0 -89 10 -121 41c-26 24 -31 39 -39 61c-11 33 -14 40 -17 75c-4 48 -4 134 -4 142zM195 424
c-31 0 -31 -31 -29 -91v-135c0 -28 0 -61 28 -61c35 0 35 40 35 60c0 18 -3 104 -3 124c0 7 1 39 1 47c0 24 -3 56 -32 56z" />
    <glyph glyph-name="p" unicode="p" 
d="M166 532c1 0 4 2 5 4l8 8c9 8 32 23 62 23c79 0 114 -60 125 -92c3 -11 11 -53 12 -65c2 -26 4 -139 4 -148c0 -26 -1 -117 -18 -165c-5 -13 -19 -44 -24 -52c-22 -34 -65 -46 -93 -46c-26 0 -46 6 -57 12c-7 4 -10 5 -14 5c-9 0 -9 -12 -9 -15c0 -5 7 -49 7 -58
c0 -12 -10 -20 -22 -20c-4 0 -8 0 -12 1c-11 1 -24 2 -46 2c-8 0 -43 -1 -51 -1c-17 0 -23 12 -23 22c0 4 1 8 2 13c1 14 2 32 2 50c0 16 -2 93 -2 110v37c0 7 -1 43 -1 51c0 5 1 33 1 39s-1 38 -1 45c0 12 2 74 2 88s-1 82 -1 97c0 5 -2 31 -2 36c0 29 0 47 27 47
c8 0 48 -2 57 -2c5 0 29 2 35 2c9 0 15 -2 18 -10c2 -3 2 -7 4 -11c0 -3 2 -7 5 -7zM199 423c-6 0 -12 -2 -16 -6c-14 -12 -15 -28 -15 -38c-1 -18 0 -107 0 -127c0 -6 -1 -33 -1 -40c0 -27 4 -63 34 -63c20 0 31 21 31 50v125c0 16 -1 34 -2 51s-3 48 -31 48z" />
    <glyph glyph-name="q" unicode="q" 
d="M16 282c0 36 2 72 5 108c7 69 18 94 24 106c11 20 46 70 107 70c4 0 38 0 60 -17c3 -3 18 -18 20 -18c3 0 4 3 5 7c2 5 2 8 3 12c4 8 12 9 19 9c6 0 32 -2 37 -2c8 0 45 2 53 2c29 0 29 -21 29 -37v-22c-2 -29 -2 -116 -2 -128v-15c0 -8 2 -47 2 -56c1 -7 -1 -41 -1 -49
c0 -6 1 -31 1 -37c0 -7 -1 -38 -1 -45c-1 -9 0 -51 0 -61c0 -14 -2 -83 -2 -99c0 -12 1 -37 3 -52c0 -4 1 -8 1 -12c0 -16 -11 -22 -26 -22c-8 0 -43 2 -52 2h-9c-7 0 -38 -4 -45 -4c-20 0 -23 13 -23 22s7 50 7 58c0 6 -2 14 -9 14c-4 0 -6 -1 -14 -6
c-14 -7 -35 -12 -55 -12c-30 0 -54 11 -69 20c-6 4 -15 11 -27 29c-27 42 -41 87 -41 235zM198 423c-8 0 -20 -5 -26 -20c-6 -17 -6 -42 -6 -190c0 -23 1 -33 3 -40c6 -22 23 -25 28 -25c14 0 26 11 30 26c4 12 4 19 4 80c0 9 -1 51 -1 60c0 7 1 41 1 49c0 21 -2 33 -6 40
c-6 15 -18 20 -27 20z" />
    <glyph glyph-name="r" unicode="r" horiz-adv-x="250" 
d="M16 527c0 10 0 29 30 29h39c6 0 38 1 45 1c13 0 25 0 27 -17c1 -2 0 -13 0 -15c0 -6 2 -36 2 -43c11 30 30 79 64 79c4 0 9 0 12 -3c5 -3 9 -11 9 -22c0 -4 0 -8 -1 -12c-1 -13 -1 -34 -1 -41c0 -20 0 -40 1 -60c0 -6 2 -33 2 -39c0 -5 0 -21 -17 -21c-2 0 -13 3 -15 3
c-7 0 -43 -10 -43 -86v-51c0 -9 -1 -53 -1 -64c0 -5 0 -8 1 -28c0 -7 -1 -43 -1 -51c0 -5 1 -11 1 -16c1 -5 4 -29 4 -34c0 -31 -14 -36 -28 -36c-6 0 -33 2 -39 2c-8 0 -49 -3 -58 -3c-27 0 -31 11 -31 27v61c0 10 -2 60 -2 71c0 12 2 67 2 80v167c0 18 -2 103 -2 122z" />
    <glyph glyph-name="s" unicode="s" horiz-adv-x="313" 
d="M303 165c0 -33 -5 -61 -13 -79c-16 -33 -22 -41 -37 -54c-31 -29 -61 -40 -118 -40c-56 0 -64 2 -88 8c-20 5 -37 10 -37 36c0 7 1 43 1 51c0 9 0 18 -1 27c0 4 -1 8 -1 12c0 16 13 28 26 28c2 0 4 0 6 -1c7 -1 14 -5 21 -8c6 -2 38 -5 42 -5c14 0 39 7 39 30
c0 21 -15 34 -24 42c-8 8 -16 14 -25 22c-12 11 -35 34 -49 61c-25 50 -28 74 -28 100c0 36 9 67 15 79c1 2 14 25 19 32c30 44 84 56 127 56h9c17 -1 34 -3 52 -4c22 -2 41 -3 45 -25c2 -7 0 -39 0 -47c0 -7 2 -37 2 -43c0 -23 -21 -30 -30 -30c-5 0 -9 2 -24 8
c-8 3 -17 5 -25 5c-18 0 -34 -8 -34 -26c0 -17 19 -36 44 -61c31 -30 49 -48 65 -82c12 -25 21 -46 21 -92z" />
    <glyph glyph-name="t" unicode="t" horiz-adv-x="229" 
d="M181 262v-49c0 -6 1 -36 1 -43v-10c0 -8 9 -13 11 -14c1 0 10 1 12 1c3 0 18 -2 18 -28c0 -6 -1 -39 -1 -46s1 -39 1 -46c0 -18 -11 -25 -20 -25h-6c-6 1 -21 1 -28 1c-8 0 -49 -3 -58 -3c-56 0 -80 31 -80 98c0 10 2 58 2 69c1 15 0 91 0 108c0 12 1 69 1 82
c0 4 1 21 1 25c0 10 -7 10 -20 10c-15 0 -16 10 -16 21c0 6 1 39 1 46v55c0 3 0 10 9 12c2 1 12 0 14 0c12 0 12 7 11 14c-1 5 0 33 0 39c0 10 0 20 -1 30c-1 8 -2 15 -2 22c0 20 8 39 27 39c7 0 42 -2 50 -2c6 0 35 2 42 2c16 0 29 -6 30 -26c1 -4 0 -23 0 -27s1 -26 1 -31
c0 -6 -2 -38 -2 -46c0 -12 1 -14 9 -14c3 -1 16 0 19 0c14 0 16 -10 17 -16c0 -5 -1 -28 -1 -34c0 -9 2 -56 2 -67c0 -18 -10 -18 -15 -18c-3 0 -17 1 -18 1c-5 0 -11 -4 -11 -14v-17c0 -6 1 -33 1 -40c0 -8 -1 -49 -1 -59z" />
    <glyph glyph-name="u" unicode="u" 
d="M14 513c0 11 0 43 29 44c5 0 10 -1 15 -2c4 0 32 -1 37 -1c3 0 13 1 22 2c10 0 20 1 23 1c6 0 25 0 25 -27c0 -6 -1 -38 -1 -45c0 -13 3 -79 3 -94c0 -12 -3 -68 -3 -81c-1 -14 1 -85 1 -101c0 -6 -1 -35 -1 -42c0 -13 6 -27 31 -27c23 0 33 14 33 62c0 9 -2 52 -2 62v60
c0 38 0 77 -1 115c0 11 -2 68 -2 81c0 16 0 36 28 36c1 0 23 -2 24 -2c7 -1 14 -1 21 -1c16 0 23 0 27 1c2 0 21 3 23 3c25 0 31 -14 31 -26c0 -3 -1 -18 -1 -21s-1 -38 -1 -52c0 -7 1 -44 1 -52c1 -14 1 -77 1 -96c0 -17 -3 -102 -3 -122c0 -9 2 -52 2 -62
c0 -5 -1 -30 -1 -36c0 -7 3 -45 3 -53c0 -26 -8 -36 -28 -36c-6 0 -36 2 -43 2c-22 0 -36 -2 -40 -2c-5 -1 -10 -2 -16 -2c-16 0 -20 7 -21 10s0 7 -1 11c-1 3 -2 7 -4 7c-3 0 -6 -4 -8 -6c-3 -3 -5 -4 -8 -6c-33 -19 -45 -20 -81 -20c-26 0 -44 3 -62 13
c-49 27 -49 80 -49 98c0 8 1 48 1 57c0 10 -2 57 -2 68c0 18 1 107 1 127c0 35 0 70 -1 104c0 15 -2 37 -2 51z" />
    <glyph glyph-name="v" unicode="v" horiz-adv-x="375" 
d="M9 494c-6 30 -7 34 -7 40c0 19 16 21 24 21c4 0 22 -2 26 -2h32c6 0 34 3 41 3c32 0 32 -13 33 -43c1 -26 1 -32 8 -92c2 -19 3 -37 4 -56c1 -22 1 -43 5 -66c3 -25 6 -43 11 -43c1 0 2 2 5 15c5 20 7 43 10 82c0 4 8 85 8 87c2 10 4 19 6 29c2 12 3 25 4 59
c0 9 1 28 23 28c6 0 41 -3 49 -3c4 0 16 1 28 1c12 1 24 1 29 1c23 0 23 -16 23 -21c0 -1 0 -12 -3 -26c-4 -15 -8 -31 -10 -46c-1 -13 -3 -27 -5 -40c-6 -37 -38 -183 -40 -192c-2 -10 -5 -20 -8 -30c-5 -25 -8 -51 -14 -75c-3 -17 -8 -33 -10 -49c-1 -7 -2 -14 -3 -20
c-7 -51 -9 -55 -45 -55c-8 0 -50 1 -60 1c-8 0 -47 -1 -56 -1c-14 0 -19 8 -20 10c-3 4 -4 7 -7 30c-2 13 -6 26 -8 39c-3 16 -5 33 -7 49c-4 19 -8 38 -12 58c-7 27 -24 117 -27 140c-2 13 -3 26 -5 38c-3 22 -8 42 -12 64c-4 21 -6 44 -10 65z" />
    <glyph glyph-name="w" unicode="w" horiz-adv-x="562" 
d="M222 341v2c0 8 -1 16 -3 24c-2 18 -6 35 -9 52c-2 15 -11 87 -15 103c-1 6 -3 12 -3 17c0 16 10 17 18 17c5 0 9 0 14 -1h40c5 0 32 1 39 1c34 0 35 -16 36 -31c1 -18 1 -37 1 -55c0 -11 1 -23 1 -34c1 -18 4 -36 5 -54c1 -21 2 -42 3 -64c3 -38 10 -103 15 -140
c2 9 3 18 4 27c2 15 2 30 4 44c1 10 2 20 4 29c3 31 22 211 23 235c1 41 9 41 39 41c9 0 50 -2 60 -2c4 0 26 1 31 1c10 0 27 -1 27 -24c0 -7 -2 -14 -3 -21c-4 -19 -8 -37 -12 -55c-7 -42 -12 -84 -19 -125c-4 -30 -11 -60 -16 -90c-3 -19 -6 -37 -9 -56
c-4 -19 -9 -38 -12 -57c-4 -24 -7 -49 -12 -73c-2 -10 -4 -19 -6 -29c-4 -20 -8 -24 -27 -24c-11 0 -67 3 -80 3c-5 0 -31 -2 -36 -2c-22 0 -25 8 -30 34c-5 24 -10 56 -13 80c-3 26 -4 29 -7 39c-4 -14 -8 -29 -11 -43c-3 -13 -6 -25 -9 -37s-6 -25 -9 -37
c-5 -18 -9 -36 -34 -36c-4 0 -8 0 -12 1c-9 0 -38 1 -42 1c-8 0 -46 -3 -54 -3c-25 0 -27 14 -34 55c-3 23 -7 46 -10 70l-12 69c-5 39 -9 79 -16 118c-3 19 -7 37 -10 55c-5 31 -7 62 -11 93c-2 12 -11 74 -11 77c0 19 13 20 30 21h39c7 0 37 1 44 1c32 0 33 -16 34 -29
c1 -23 14 -147 22 -200l12 -93c2 -18 5 -35 8 -53l9 40c2 8 8 45 10 53c5 22 14 43 15 65z" />
    <glyph glyph-name="x" unicode="x" 
d="M32 505c-9 17 -10 25 -10 30c0 18 18 18 28 18h48c4 0 23 1 28 1h26c18 0 23 -10 27 -22c3 -9 13 -52 16 -62c3 -8 5 -15 8 -23c2 -8 5 -12 8 -12c1 0 3 1 5 12c4 18 4 19 9 32c4 10 8 21 10 32c8 32 10 42 33 42h15c10 0 20 1 30 1h12c5 0 24 1 29 1c9 0 31 0 31 -22
c0 -5 -2 -10 -4 -15c-6 -17 -12 -33 -18 -50c-4 -11 -7 -22 -12 -33c-4 -10 -10 -20 -15 -30c-7 -14 -12 -28 -18 -42c-5 -13 -11 -25 -17 -38c-11 -24 -12 -26 -12 -31s2 -11 4 -16c4 -10 25 -60 30 -72c7 -20 14 -41 21 -61c6 -14 12 -27 17 -41c8 -20 17 -42 25 -60
c3 -9 7 -21 7 -27c0 -17 -15 -18 -23 -18c-7 0 -43 1 -51 1c-7 0 -45 -1 -53 -1c-20 0 -28 17 -28 18c-2 4 -7 27 -9 32c-2 8 -5 15 -8 22c-3 9 -5 18 -8 28c-2 5 -12 38 -15 38c-4 0 -11 -34 -13 -40c-3 -7 -6 -15 -9 -22c-3 -8 -6 -17 -8 -25c-9 -35 -12 -46 -30 -50h-97
c-2 0 -15 -1 -18 -1c-6 0 -20 1 -20 18c0 10 4 18 10 29c8 16 15 33 22 49c4 8 18 46 22 54c6 15 14 30 21 44c3 8 7 16 10 24c7 17 19 42 31 62c3 6 6 12 6 15c0 5 -2 10 -5 14c-3 7 -18 44 -22 52c-5 10 -11 20 -16 30c-4 9 -22 54 -26 64c-8 17 -17 34 -24 51z" />
    <glyph glyph-name="y" unicode="y" 
d="M288 71c-6 -19 -19 -67 -25 -81c-26 -66 -72 -73 -133 -73c-23 0 -52 2 -73 7c-7 2 -23 7 -28 22c-2 4 -2 9 -2 56c0 6 -1 35 -1 41c0 32 14 33 24 33c6 0 11 -2 15 -4c3 -2 6 -5 10 -7c4 -3 9 -4 14 -4c16 0 20 12 20 21c0 3 -7 34 -8 39c-5 21 -11 41 -17 62
c-4 16 -7 31 -11 47c-5 19 -11 39 -17 58c-5 18 -10 35 -14 53c-1 6 -9 35 -10 42c-2 7 -2 16 -4 24l-3 15c-2 7 -3 15 -5 22c-1 5 -21 81 -21 93c0 20 23 20 33 20c5 0 33 -1 39 -1c11 0 65 3 68 3c28 0 28 -17 29 -35c1 -44 2 -49 5 -67c1 -8 3 -15 4 -23
c3 -17 3 -35 5 -53c1 -13 7 -60 9 -66c4 -21 4 -24 4 -30c0 -8 3 -13 5 -13c3 0 5 11 6 13c10 46 11 51 12 79c1 22 1 24 5 48c3 19 5 38 5 57c0 8 1 16 1 23c3 51 4 66 21 66c2 0 15 -1 18 -1c8 0 19 -1 29 -1c27 0 33 1 37 2c4 0 21 3 24 3c17 0 32 -3 32 -20
c-2 -14 -2 -15 -3 -29c-2 -17 -6 -35 -10 -53c-6 -28 -10 -57 -15 -86c-3 -15 -6 -27 -12 -48c-4 -13 -5 -27 -9 -40c-2 -11 -5 -21 -8 -32c-5 -25 -6 -28 -10 -44c-6 -20 -29 -117 -35 -138z" />
    <glyph glyph-name="z" unicode="z" horiz-adv-x="333" 
d="M219 152h12c3 0 18 -1 21 -1c4 0 20 0 27 2c1 0 14 2 15 2c5 0 17 -1 22 -14c2 -8 3 -42 4 -50c0 -5 -1 -29 -1 -34c0 -4 1 -23 1 -28c0 -28 -19 -28 -34 -28c-10 0 -63 3 -75 3c-14 0 -27 -1 -41 -1c-31 0 -61 0 -91 -1c-12 -1 -23 -1 -34 -1c-33 0 -33 6 -33 44
c0 7 1 39 1 47c0 15 2 19 10 36c4 8 19 50 23 59c6 13 12 25 17 38c5 14 10 28 15 41s15 33 21 44c18 33 39 79 39 92c0 8 -6 12 -14 12c-3 0 -18 -1 -21 -1c-4 0 -25 2 -29 2s-23 -5 -27 -5c-12 0 -24 7 -24 27c0 4 1 9 1 13c2 13 2 30 2 45c0 4 -2 26 -2 31
c0 28 22 28 43 28c6 0 36 -2 43 -2c6 0 38 1 45 1h33c6 0 34 1 40 1c5 0 26 -1 31 -1c4 0 26 1 31 1c24 0 25 -12 25 -58c0 -42 -1 -46 -17 -78c-14 -27 -22 -56 -33 -84c-8 -17 -16 -33 -24 -50c-9 -22 -16 -45 -25 -67c-7 -16 -16 -42 -16 -50c0 -11 10 -15 19 -15z" />
    <glyph glyph-name="braceleft" unicode="{" horiz-adv-x="354" 
d="M353 668l1 -29c0 -6 -1 -9 -3 -17c-6 -24 -14 -25 -37 -27c-5 0 -10 -1 -15 -3c-13 -3 -14 -4 -25 -15c-4 -3 -9 -5 -12 -9c-2 -2 -4 -5 -5 -8c-8 -14 -8 -18 -8 -52c0 -16 -2 -32 -2 -49c-1 -20 0 -40 -6 -59c-1 -2 -21 -49 -48 -64c-8 -5 -17 -7 -25 -11
c-19 -9 -21 -9 -33 -12v-1c8 -1 16 -3 24 -5c5 -2 11 -5 16 -7c6 -2 12 -3 17 -6c2 -1 33 -27 41 -50c3 -8 4 -17 7 -25c7 -21 8 -26 8 -47c0 -4 -1 -25 -1 -29c0 -10 1 -20 2 -30c1 -15 0 -31 4 -46c7 -24 24 -39 48 -41c3 -1 17 0 20 0c24 0 32 -14 32 -23
c0 -1 -1 -9 -1 -11c0 -4 1 -8 1 -12c0 -2 1 -26 1 -30c0 -25 -5 -36 -50 -36c-11 0 -53 1 -63 3l-21 6c-8 2 -16 3 -23 5c-6 2 -35 12 -64 46c-14 16 -15 19 -23 41c-7 20 -8 22 -8 49c0 5 1 27 1 32c0 6 -2 36 -2 43v26c0 40 -19 78 -56 87c-8 2 -17 3 -25 7
c-20 9 -20 29 -20 38v38c0 6 0 20 8 29c7 7 13 8 31 11c29 5 45 26 54 47c7 17 7 22 7 47c0 3 2 18 2 22c1 7 0 42 0 50c0 11 0 50 7 68c10 25 19 34 27 43c20 19 50 50 99 54c6 1 34 0 41 0c5 0 33 1 39 1c38 0 38 -21 38 -39z" />
    <glyph glyph-name="braceright" unicode="}" horiz-adv-x="354" 
d="M216 308v1c-8 1 -16 2 -23 5c-1 0 -36 14 -36 14c-4 2 -32 30 -39 48c-2 7 -4 15 -6 22c-8 26 -10 32 -10 52c0 4 2 24 2 29c0 6 -2 36 -2 42c0 74 -45 74 -69 74c-28 0 -33 14 -34 17c0 3 1 14 1 17c0 4 -1 8 -1 12c-1 8 -1 22 -1 31c0 31 13 35 54 35c23 0 58 -3 59 -4
c7 -1 13 -3 20 -5s15 -3 22 -5c10 -3 35 -17 41 -22c13 -10 36 -36 42 -52c2 -5 3 -10 5 -15c7 -20 7 -22 7 -40c0 -6 -1 -36 -1 -42c0 -5 3 -30 3 -36c0 -4 -1 -25 -1 -30c0 -28 4 -36 14 -52c7 -14 15 -29 42 -35c8 -2 16 -2 23 -6c3 -1 23 -10 23 -39c0 -7 -1 -15 -1 -22
v-17c0 -5 0 -20 -8 -28c-7 -7 -12 -8 -31 -11c-45 -8 -60 -59 -61 -74v-23c0 -5 -2 -26 -2 -31c0 -6 1 -36 1 -43c0 -69 -21 -95 -46 -117c-33 -29 -57 -45 -111 -45c-4 0 -20 2 -23 2c-5 0 -28 -2 -33 -2c-24 0 -33 13 -35 16c-3 6 -3 9 -3 33c0 3 -1 17 -1 20
c0 9 4 24 6 27c6 14 14 15 35 17c2 0 20 2 27 7c5 3 9 8 13 11c4 4 8 6 11 10c13 12 13 28 13 60c0 10 1 20 2 31c0 5 1 10 1 15c0 3 -1 18 -1 21c0 15 2 30 6 40c1 1 23 50 49 65c7 4 15 6 23 10c20 9 22 10 34 12z" />
    <glyph glyph-name="exclamdown" unicode="&#xa1;" horiz-adv-x="208" 
d="M29 599v43c0 5 -2 34 -2 40c0 29 22 29 30 29s15 -1 22 -2c10 -1 19 -1 29 -1c6 0 37 1 44 1c32 0 32 -8 32 -30c0 -6 -2 -36 -2 -43c0 -11 2 -63 2 -75c0 -11 -5 -24 -24 -24c-6 0 -40 2 -48 2c-9 0 -50 -2 -59 -2c-25 0 -25 23 -25 29c0 5 1 28 1 33zM13 26
c0 10 6 60 7 71c3 31 9 181 12 215l9 78c2 21 4 42 4 63c0 32 1 49 28 49c8 0 50 -2 60 -2c11 0 30 0 30 -19c0 -7 -1 -41 -1 -43s2 -60 3 -72c2 -36 7 -71 10 -106c2 -35 2 -70 4 -105c1 -20 3 -39 3 -59c0 -5 -1 -29 -1 -34s3 -31 3 -37c0 -20 -16 -23 -41 -23
c-6 0 -38 2 -45 2s-41 -3 -48 -3c-10 0 -37 0 -37 25z" />
    <glyph glyph-name="cent" unicode="&#xa2;" horiz-adv-x="271" 
d="M163 654h16c2 0 11 1 13 1s13 -1 13 -14c0 -11 -1 -63 0 -75c26 0 28 0 33 -2c8 -3 15 -11 15 -21v-83c0 -19 -2 -33 -12 -41c-7 -5 -10 -5 -27 -5c-39 0 -44 -64 -44 -123c0 -97 7 -107 14 -117c7 -11 17 -16 27 -16c7 0 13 1 19 1c23 0 23 -25 23 -30
c0 -7 -2 -42 -3 -49c0 -7 1 -40 1 -47c0 -36 -34 -36 -47 -36c0 -8 -1 -48 -1 -57c0 -2 1 -14 1 -16c0 -14 -10 -18 -16 -18c-2 0 -23 2 -28 2c-1 0 -9 -1 -10 -1c-13 0 -13 13 -12 18c0 11 -1 66 -1 78c-20 5 -42 11 -75 55c-17 23 -22 37 -29 76c-8 38 -10 49 -10 148
c0 72 5 120 22 174c18 58 44 88 93 103c1 25 1 50 1 74c0 11 1 20 12 22c2 0 10 -1 12 -1z" />
    <glyph glyph-name="sterling" unicode="&#xa3;" horiz-adv-x="437" 
d="M240 695c28 0 99 -6 140 -62c23 -32 30 -77 30 -88c0 -7 -4 -18 -21 -18h-55c-4 0 -27 -1 -32 -1c-4 0 -12 0 -18 8c-3 3 -4 8 -6 12c-6 11 -20 18 -37 18c-27 0 -50 -21 -50 -61c0 -18 7 -70 9 -77c1 -4 2 -7 2 -11c1 -10 1 -13 20 -12c4 1 27 0 32 0c7 0 40 1 47 0
c3 0 19 1 23 1c6 0 14 -3 14 -16c0 -4 -2 -23 -2 -28s3 -33 3 -39c0 -11 -11 -13 -16 -13c-7 0 -43 2 -51 2c-6 0 -34 -1 -40 -1c-4 0 -6 0 -6 -3c0 -1 2 -10 3 -12c1 -5 7 -38 7 -57c0 -35 -11 -70 -18 -79c-6 -8 -6 -8 -6 -11c0 -5 0 -5 11 -7c7 -1 11 -4 16 -7
c15 -8 26 -11 37 -11c22 0 31 11 35 17c4 7 6 14 10 22c5 9 8 10 12 10c2 0 4 -1 6 -1c4 0 20 -1 29 -1c7 0 44 2 52 2c5 0 14 -3 14 -15c0 -51 -21 -89 -29 -100c-36 -58 -93 -61 -107 -61c-12 0 -30 1 -52 8c-16 4 -32 11 -47 16c-8 3 -17 6 -27 6c-16 0 -22 -7 -24 -13
c-1 -3 -1 -6 -2 -8c-2 -3 -6 -6 -11 -6c-2 0 -12 1 -14 1h-8c-5 0 -30 1 -35 1c-8 0 -46 -2 -47 -2c-7 0 -16 4 -16 14c0 4 2 34 8 56c12 39 38 62 54 70c5 3 10 5 15 8c3 2 7 4 9 7c4 6 7 31 7 46c0 23 -5 58 -12 82c-1 5 -2 11 -3 16c-2 10 -2 13 -7 13
c-2 0 -11 -1 -13 -1h-18c-3 0 -14 -1 -17 -1c-16 0 -15 18 -14 26c0 8 -1 46 -1 55c0 14 8 14 26 14c1 0 11 -1 13 -1c4 0 5 1 5 4c0 1 -3 14 -3 15c-3 9 -8 50 -8 77c0 106 57 197 184 197z" />
    <glyph glyph-name="yen" unicode="&#xa5;" horiz-adv-x="417" 
d="M385 239v-20c0 -12 -3 -24 -27 -24c-5 0 -27 2 -32 2h-21c-25 0 -25 -6 -23 -27c1 -5 0 -29 0 -35c0 -23 2 -47 4 -71c0 -10 2 -27 2 -37c0 -28 -24 -28 -31 -28c-8 0 -46 2 -54 2c-10 0 -20 0 -29 -1c-12 -1 -20 -2 -23 -2c-18 0 -27 9 -27 28c0 5 1 31 1 37
c0 8 -1 48 -1 57c0 7 1 43 1 51c0 2 1 14 1 14c0 6 -7 11 -13 11c-8 0 -44 -1 -52 -1c-27 0 -30 10 -31 16c-1 4 -1 35 -1 36c0 27 14 27 41 27c6 0 34 -2 40 -2c5 0 12 2 12 7c0 2 -1 5 -3 8c-1 4 -11 31 -12 35c-1 5 -3 11 -6 13s-23 2 -27 2s-21 -2 -25 -2
c-13 0 -22 7 -22 18c0 2 1 12 1 15c0 4 -1 26 -1 31c0 13 10 15 17 15c4 0 7 -1 10 -1c2 0 10 1 12 1c7 0 8 7 8 7c0 5 -9 27 -10 30c-10 24 -35 102 -48 151c-3 15 -7 30 -12 45c-6 17 -8 22 -8 32c0 18 13 24 27 24c5 0 11 -1 16 -1c11 -1 21 -2 32 -2c10 0 58 3 67 3
c23 0 27 -14 30 -35c3 -12 4 -24 6 -36c3 -20 9 -39 13 -58c2 -8 8 -39 8 -45c3 -17 8 -43 11 -43c1 0 2 3 3 6c2 5 13 66 16 79c12 55 13 61 15 92c1 19 2 41 35 41c8 0 50 -3 59 -3c4 0 16 1 28 1c12 1 25 1 29 1c20 0 25 -11 25 -21c0 -4 -1 -13 -7 -29
c-7 -19 -8 -21 -12 -40c-3 -14 -7 -29 -11 -43c-5 -15 -31 -88 -36 -104c-3 -14 -9 -43 -9 -45c0 -7 9 -8 13 -8c3 0 15 3 18 3c15 0 15 -9 15 -29v-9c0 -4 2 -22 2 -26c0 -16 -11 -16 -16 -16c-4 0 -21 1 -25 1c-5 0 -26 -1 -30 -3c-5 -3 -15 -35 -18 -42
c-1 -3 -4 -7 -4 -10c0 -7 9 -9 28 -9c6 0 34 2 41 2c19 0 22 -18 22 -19s-1 -6 -1 -7c-1 -4 -1 -7 -1 -10z" />
    <glyph glyph-name="florin" unicode="&#x192;" horiz-adv-x="333" 
d="M82 393h-8c-9 0 -20 6 -20 18c0 4 1 8 1 12c2 9 2 16 3 24c2 20 2 22 2 40c0 31 7 34 13 36c4 2 9 2 12 4c4 3 6 8 7 13c3 14 5 29 5 42c0 29 7 62 10 70c6 17 32 59 94 59c4 0 16 -1 29 -1c12 -1 25 -2 29 -2h37c22 0 27 -16 27 -31c0 -7 -2 -14 -3 -21
c-5 -23 -6 -28 -6 -45c0 -34 -11 -34 -41 -34c-9 0 -23 -2 -27 -13c-1 -2 -5 -24 -5 -26c0 -8 6 -13 14 -13c2 0 12 1 15 1c30 0 41 -6 41 -23c0 -9 -4 -50 -4 -59c-1 -26 -2 -49 -23 -51h-16c-25 0 -30 -19 -31 -54c-1 -5 0 -27 0 -32c0 -7 -1 -15 -2 -22
c-2 -26 -3 -67 -6 -93c-1 -9 -3 -18 -5 -27c-3 -22 -6 -94 -6 -95c-2 -59 -2 -65 -7 -83c-10 -39 -48 -68 -99 -68c-8 0 -46 2 -54 2c-5 0 -29 -2 -34 -2c-24 0 -28 14 -28 20c0 1 2 11 3 16v14c0 4 1 38 1 43c1 10 1 20 6 28c2 3 10 15 20 15c5 0 12 -3 18 -3
c24 0 26 43 26 61c1 32 1 35 4 60c3 24 3 30 3 77c0 26 3 57 7 98c3 22 3 25 3 29c0 6 -2 14 -5 16z" />
    <glyph glyph-name="quotesingle" unicode="'" horiz-adv-x="167" 
d="M154 669l-53 -261h-31l-55 250c-2 10 -2 22 -2 23c0 50 44 68 75 68c25 0 68 -13 68 -64c0 -4 0 -9 -2 -16z" />
    <glyph glyph-name="quotedblleft" unicode="&#x201c;" horiz-adv-x="354" 
d="M11 553c0 22 3 38 12 62c10 31 18 47 42 80c9 11 12 11 38 12c4 0 24 1 28 1c16 0 17 -11 17 -13c0 -5 -1 -7 -9 -16c-15 -17 -18 -39 -18 -44c0 -8 4 -15 11 -18c5 -2 12 -1 17 -4c4 -2 12 -9 12 -30c0 -4 -1 -25 -1 -30c0 -11 3 -63 3 -74c0 -6 0 -11 -2 -15
c-3 -8 -12 -18 -27 -18c-5 0 -28 3 -33 3c-3 0 -36 0 -46 -1c-5 -1 -9 -1 -13 -1c-12 0 -22 6 -26 17c-2 6 -2 9 -3 45c0 6 -2 37 -2 44zM191 546c0 44 8 83 49 139c14 20 15 21 40 21c4 0 25 1 29 1s20 0 20 -14c0 -5 -2 -7 -9 -15c-15 -16 -18 -36 -18 -43
c0 -12 7 -17 12 -19s11 -2 16 -5c10 -6 10 -21 10 -27c0 -7 -1 -40 -1 -47c0 -9 2 -51 2 -61s0 -31 -32 -31c-7 0 -38 2 -46 2c-5 0 -33 -2 -40 -2c-20 0 -27 15 -27 17c-3 6 -3 10 -3 26c0 8 -2 49 -2 58z" />
    <glyph glyph-name="guillemotleft" unicode="&#xab;" horiz-adv-x="313" 
d="M84 287c4 -7 5 -8 14 -16c4 -4 21 -22 25 -26c14 -13 17 -16 17 -28c0 -4 -1 -8 -1 -12c-1 -14 -1 -45 -1 -46c0 -10 0 -21 1 -31c0 -4 2 -19 2 -23c0 -6 -4 -9 -6 -9c-5 0 -18 14 -25 21c-15 15 -36 37 -55 55c-5 6 -30 33 -33 35c-10 9 -11 11 -11 25c0 7 1 39 1 46
c0 11 -2 59 -2 70c0 10 4 13 15 23c8 7 78 75 88 86c6 6 15 15 20 15c3 0 6 -5 6 -10c0 -2 0 -5 -1 -7c0 -2 -1 -38 -1 -41c0 -6 1 -43 1 -49c1 -4 1 -9 1 -13c0 -12 -4 -15 -13 -24c-11 -10 -28 -27 -42 -41zM239 284c8 -11 28 -33 44 -46c11 -9 15 -12 15 -26
c0 -7 -2 -44 -2 -53c0 -10 0 -21 1 -31c0 -4 2 -24 2 -24c0 -7 -7 -8 -9 -8c-4 0 -13 9 -19 15c-10 11 -82 83 -85 86c-10 9 -16 14 -16 26c0 3 1 16 1 19c0 10 -1 60 -1 71c-1 5 -2 25 -2 28c0 6 2 9 8 14c29 30 32 33 41 40c6 5 6 6 12 13s44 43 49 49c4 5 6 8 11 8
c7 0 7 -8 7 -10c0 -3 -1 -5 -1 -8c-1 -8 -2 -39 -2 -45s0 -12 1 -18c0 -5 2 -28 2 -34c0 -11 -3 -14 -14 -24c-2 -2 -36 -36 -43 -42z" />
    <glyph glyph-name="guilsinglleft" unicode="&#x2039;" horiz-adv-x="167" 
d="M91 286c20 -21 23 -23 33 -34c23 -23 24 -24 24 -36c0 -3 -1 -7 -1 -11c-1 -16 -1 -41 -1 -47c0 -10 0 -21 1 -31c0 -2 2 -20 2 -22c0 -6 -4 -9 -7 -9s-4 1 -13 9c-15 16 -91 94 -96 98c-11 10 -15 13 -15 28c0 6 2 32 2 38c0 10 -2 67 -2 70c0 8 1 17 6 23
c2 4 61 59 69 67c5 6 10 12 16 17c3 3 6 5 9 8c5 5 9 12 17 16c2 1 4 2 6 2c4 0 6 -7 6 -11c0 -2 -1 -5 -1 -7c-1 -9 -1 -38 -1 -42c0 -35 1 -44 1 -49c1 -4 1 -8 1 -12c0 -10 -2 -13 -11 -20l-13 -13z" />
    <glyph glyph-name="guilsinglright" unicode="&#x203a;" horiz-adv-x="167" 
d="M76 281c-20 21 -23 24 -33 34c-23 24 -24 25 -24 36c0 4 1 8 1 11c1 16 1 41 1 47c0 11 0 21 -1 31c0 2 -2 21 -2 22c0 6 4 10 7 10s4 -1 13 -10c15 -15 91 -93 96 -98c11 -10 15 -13 15 -28c0 -5 -2 -31 -2 -37c0 -10 2 -68 2 -70c0 -9 -1 -17 -6 -24
c-2 -3 -61 -58 -69 -66c-5 -6 -10 -12 -16 -18c-3 -2 -6 -4 -9 -7c-5 -6 -9 -13 -17 -17c-2 -1 -4 -2 -6 -2c-4 0 -6 7 -6 11c0 3 1 5 1 7c1 10 1 38 1 43c0 35 -1 43 -1 49c-1 3 -1 7 -1 11c0 11 2 13 11 21c5 4 9 9 13 13c5 4 27 26 32 31z" />
    <glyph glyph-name="fi" unicode="&#xfb01;" horiz-adv-x="437" 
d="M269 684c0 19 9 28 28 28c5 0 10 0 16 -1c8 -1 17 -1 25 -1c6 0 31 0 50 1c2 0 12 1 14 1c14 0 16 -17 17 -24c0 -4 -1 -23 -1 -28c0 -4 2 -26 2 -31c0 -14 -10 -20 -23 -20c-6 0 -35 1 -42 1s-41 -2 -49 -2c-2 0 -13 -1 -16 -1c-20 0 -20 25 -20 41c0 5 -1 30 -1 36z
M17 519h9c12 0 12 8 12 15c0 8 -2 50 -2 60c0 39 0 109 96 113c6 0 39 -1 47 -1c4 0 24 1 29 1c35 0 35 -16 35 -47c0 -6 1 -34 1 -40v-23c-1 -23 -16 -24 -20 -24s-22 4 -26 4c-11 0 -21 -8 -21 -27c0 -28 1 -28 16 -28c3 0 20 1 24 1c28 0 28 -20 28 -28
c0 -5 -1 -28 -1 -34s1 -39 1 -47c0 -10 0 -19 -11 -21c-3 -1 -17 0 -19 0c-26 0 -27 -14 -27 -20v-43c0 -12 3 -115 4 -128c1 -8 2 -16 2 -25c0 -5 -1 -34 -1 -40c0 -9 -1 -55 -1 -65c0 -2 3 -49 3 -49c0 -16 -13 -22 -15 -23c-5 -1 -22 -1 -32 -1c-5 0 -30 1 -36 1
s-35 -2 -42 -2c-19 0 -34 2 -34 20c0 10 5 60 5 71c0 14 -3 79 -3 94c0 12 2 75 2 89c0 10 -2 57 -2 68v24c0 3 2 18 2 18c0 7 -6 12 -12 12c-4 0 -7 -1 -10 -1c-14 0 -14 9 -14 25c0 6 1 34 1 40s-1 34 -1 41c0 5 0 20 13 20zM267 535c0 5 0 15 12 21c6 3 12 4 17 4
s32 -2 38 -2c9 0 53 2 63 2c20 0 25 -13 25 -29c0 -5 0 -6 -1 -23s-2 -33 -2 -50c0 -13 2 -79 2 -94c0 -12 -2 -70 -2 -83c0 -28 2 -56 2 -83c0 -11 -3 -66 -3 -78s4 -71 4 -84c0 -6 0 -34 -26 -34c-5 0 -27 2 -32 2c-11 0 -57 -3 -67 -3c-23 0 -33 7 -33 35c0 6 0 8 1 26
c1 17 1 24 1 84c0 9 1 53 1 63s-1 59 -1 70s3 61 3 72c0 7 -1 41 -1 49c0 10 1 61 1 73s0 24 -1 35c0 4 -1 22 -1 27z" />
    <glyph glyph-name="fl" unicode="&#xfb02;" horiz-adv-x="437" 
d="M419 612v-78c0 -15 -2 -88 -2 -105c0 -19 1 -38 1 -57c0 -12 -2 -71 -2 -85c0 -11 2 -65 2 -77c0 -30 -2 -60 -2 -90c0 -11 3 -68 3 -81c0 -27 -1 -39 -32 -39c-5 0 -30 1 -36 1c-10 0 -26 0 -41 -1c-4 0 -9 -1 -13 -1c-20 0 -30 8 -30 28c0 9 3 61 3 64c0 9 -2 56 -2 66
c0 14 1 83 1 99c0 17 -1 99 -1 117c0 12 2 73 2 87c0 7 -1 46 -1 54c0 17 1 97 1 115c0 7 -2 38 -2 45c0 22 11 34 33 34c3 0 12 -1 21 -1c9 -1 19 -2 22 -2s13 1 23 2c10 0 20 1 23 1c31 0 32 -20 32 -36c0 -9 -3 -51 -3 -60zM17 519h9c12 0 12 8 12 15c0 8 -2 50 -2 60
c0 39 0 109 96 113c6 0 39 -1 47 -1c4 0 24 1 29 1c35 0 36 -16 36 -47c0 -6 1 -34 1 -40c0 -3 -1 -19 -1 -23c0 -23 -16 -24 -20 -24s-22 4 -26 4c-11 0 -21 -8 -21 -27c0 -28 1 -28 16 -28c4 0 21 1 25 1c27 0 27 -20 27 -28v-34c0 -6 1 -39 1 -47c0 -10 -1 -19 -12 -21
c-2 -1 -16 0 -19 0c-26 0 -27 -14 -27 -20v-43c0 -12 3 -115 4 -128c1 -8 2 -16 2 -25c0 -5 -1 -34 -1 -40c0 -9 -1 -55 -1 -65c0 -2 3 -49 3 -49c0 -16 -13 -22 -15 -23c-5 -1 -22 -1 -32 -1c-5 0 -30 1 -36 1s-35 -2 -42 -2c-19 0 -34 2 -34 20c0 10 5 60 5 71
c0 14 -3 79 -3 94c0 12 2 75 2 89c0 10 -2 57 -2 68v24c0 3 2 18 2 18c0 7 -6 12 -12 12c-4 0 -7 -1 -10 -1c-14 0 -14 9 -14 25c0 6 1 34 1 40s-1 34 -1 41c0 5 0 20 13 20z" />
    <glyph glyph-name="endash" unicode="&#x2013;" horiz-adv-x="417" 
d="M5 328c0 14 15 22 26 22c7 0 39 -2 47 -2c6 0 35 2 42 2c3 0 20 -1 23 -1s17 1 20 1c10 0 21 -2 31 -2c3 0 19 1 22 1s20 -1 24 -1s26 2 31 2s30 -2 35 -2c11 0 65 2 78 2c12 0 23 -3 23 -30v-40c0 -6 1 -37 1 -44c0 -8 0 -21 -15 -26c-3 -2 -5 -2 -22 0
c-4 0 -23 -1 -28 -1c-3 0 -18 1 -22 1c-2 0 -14 -1 -16 -1h-12c-2 0 -13 -1 -16 -1c-2 0 -57 -1 -62 -1c-8 0 -45 1 -54 1c-4 0 -27 1 -33 1c-3 0 -19 -1 -23 -1s-24 2 -28 2c-6 0 -32 -1 -38 -1c-32 0 -32 18 -32 42c0 2 0 49 -1 61c0 2 -1 13 -1 16z" />
    <glyph glyph-name="periodcentered" unicode="&#xb7;" horiz-adv-x="187" 
d="M143 365c8 0 12 -1 15 -2c2 -1 13 -9 13 -22c0 -2 -1 -4 -1 -6c0 -10 -1 -33 -1 -50c0 -7 1 -44 1 -52c0 -25 -3 -41 -26 -40c-15 1 -50 1 -66 1c-6 0 -33 -2 -39 -2c-12 0 -25 5 -25 26c0 6 2 35 2 41c0 22 0 49 -1 64c0 5 -1 10 -1 14c0 17 5 27 23 27h8
c6 -1 14 -1 49 -1c8 0 17 0 25 1c8 0 16 1 24 1z" />
    <glyph glyph-name="bullet" unicode="&#x2022;" horiz-adv-x="333" 
d="M169 508c79 0 153 -58 153 -156c-1 -86 -61 -155 -152 -155c-99 0 -158 80 -158 155c0 83 67 156 157 156z" />
    <glyph glyph-name="quotesinglbase" unicode="&#x201a;" horiz-adv-x="187" 
d="M84 172c8 0 43 4 51 4c28 0 38 -19 38 -36v-94c0 -21 0 -55 -30 -102c-11 -19 -22 -23 -34 -23c-4 0 -23 1 -27 1h-12c-4 0 -26 -1 -30 -1c-5 0 -17 1 -17 11c0 13 4 15 12 20s17 11 17 27c0 12 -9 18 -11 19c-6 3 -13 4 -18 8c-9 6 -9 16 -9 22c0 9 2 54 2 64
c0 6 -2 40 -2 47c0 34 21 35 32 35c6 0 32 -2 38 -2z" />
    <glyph glyph-name="quotedblbase" unicode="&#x201e;" horiz-adv-x="354" 
d="M10 143c0 14 1 33 34 33c6 0 36 -3 43 -3c6 0 37 2 44 2c4 0 12 0 21 -11c6 -9 6 -18 6 -31c0 -8 2 -45 2 -54c0 -62 -14 -94 -47 -142c-11 -16 -15 -20 -25 -22c-3 -1 -45 -2 -49 -2c-10 0 -17 6 -17 13c0 4 2 8 4 11c4 6 9 10 13 15c3 6 10 24 10 33c0 8 -4 15 -11 19
c-6 3 -13 3 -18 6c-9 6 -9 20 -9 27c0 6 2 37 2 44c0 9 -3 52 -3 62zM189 141c0 5 0 13 4 20c6 10 16 14 25 14c4 0 26 -3 31 -3c11 0 38 0 48 1c4 0 8 1 12 1c29 0 29 -26 29 -42c0 -9 3 -53 3 -63c0 -13 -1 -27 -8 -50c-13 -47 -27 -66 -47 -93c-9 -13 -10 -13 -67 -13
c-9 0 -15 6 -15 12s4 12 8 16c2 3 4 5 6 7c9 12 12 30 12 38c0 16 -9 17 -17 18c-12 2 -19 8 -21 25c-1 7 0 39 0 47c0 15 0 32 -2 49c-1 5 -1 11 -1 16z" />
    <glyph glyph-name="quotedblright" unicode="&#x201d;" horiz-adv-x="354" 
d="M9 676c0 25 14 32 32 32c4 0 14 -1 25 -1c11 -1 22 -2 26 -2c7 0 14 1 21 2c5 0 10 1 15 1s29 -3 29 -33c0 -4 1 -25 1 -30c0 -6 2 -35 2 -42c0 -6 -1 -16 -2 -26c-7 -52 -26 -81 -44 -106c-17 -25 -18 -25 -57 -25c-2 0 -13 -1 -16 -1c-10 0 -19 6 -19 13c0 4 2 8 5 12
c3 5 8 9 11 13c9 12 11 30 11 35c0 8 -4 14 -11 18c-6 3 -13 3 -18 6c-8 6 -9 16 -9 27c0 6 1 34 1 40c0 14 0 35 -2 52c0 5 -1 10 -1 15zM188 675c0 21 14 32 29 32c5 0 27 -2 32 -2c12 0 34 0 46 1c4 0 9 1 13 1c30 0 30 -27 30 -53c0 -8 3 -48 3 -57
c0 -17 -1 -21 -13 -61c-8 -30 -25 -55 -35 -69c-12 -16 -14 -18 -22 -19c-12 -3 -24 -1 -36 -2c-4 -1 -8 -1 -12 -1c-10 0 -20 5 -20 13c0 3 3 8 5 11c4 5 8 8 11 13c5 8 11 23 11 34c0 18 -7 19 -19 21c-9 2 -21 5 -21 36c0 4 1 24 1 29c0 7 0 38 -2 55c0 6 -1 12 -1 18z
" />
    <glyph glyph-name="guillemotright" unicode="&#xbb;" horiz-adv-x="313" 
d="M31 244c11 11 29 29 41 40c-17 18 -38 40 -47 47c-9 8 -13 12 -13 24c0 3 0 7 1 11c1 14 1 25 1 33c0 7 0 32 -1 41c0 3 -2 19 -2 23c0 7 6 9 8 9c5 0 9 -4 12 -8c5 -4 62 -63 69 -70c40 -38 40 -39 40 -49c0 -4 -1 -22 -1 -26v-39c1 -8 3 -44 3 -52
c0 -10 -2 -12 -12 -20l-16 -16s-30 -29 -36 -34c-8 -9 -43 -43 -44 -46c-6 -6 -9 -10 -14 -10s-6 7 -6 10s1 6 2 9c0 5 1 38 1 39c0 10 0 20 -1 30c0 4 -3 27 -3 28c0 7 2 12 18 26zM196 250c5 4 27 26 32 31c-20 21 -23 24 -33 34c-23 24 -24 25 -24 36c0 4 1 8 1 11
c1 16 1 41 1 47c0 11 0 21 -1 31c0 2 -2 21 -2 22c0 6 4 10 7 10s4 -1 13 -10c15 -15 91 -93 96 -98c11 -10 15 -13 15 -28c0 -5 -2 -31 -2 -37c0 -10 2 -68 2 -70c0 -9 -1 -17 -6 -24c-2 -3 -61 -58 -69 -66c-5 -6 -10 -12 -16 -18c-3 -2 -6 -4 -9 -7c-5 -6 -9 -13 -17 -17
c-2 -1 -4 -2 -6 -2c-5 0 -6 7 -6 11c0 3 0 5 1 7c1 10 1 38 1 43c0 35 -1 43 -1 49c-1 3 -1 7 -1 11c0 11 2 13 11 21c5 4 9 9 13 13z" />
    <glyph glyph-name="ellipsis" unicode="&#x2026;" horiz-adv-x="1000" 
d="M216 170c8 0 12 -1 15 -2c2 -1 13 -9 13 -22c0 -2 -1 -4 -1 -6c0 -10 -1 -33 -1 -50c0 -7 1 -44 1 -52c0 -25 -3 -41 -26 -40c-15 1 -50 1 -66 1c-6 0 -33 -2 -39 -2c-11 0 -25 4 -25 26c0 6 2 35 2 41c0 22 0 49 -1 64c0 5 -1 10 -1 14c0 17 5 27 23 27h8
c6 -1 14 -1 49 -1c8 0 17 0 25 1c8 0 16 1 24 1zM549 170c8 0 12 -1 15 -2c2 -1 13 -9 13 -22c0 -2 -1 -4 -1 -6c0 -10 -1 -33 -1 -50c0 -7 1 -44 1 -52c0 -25 -3 -41 -26 -40c-15 1 -50 1 -66 1c-6 0 -33 -2 -39 -2c-11 0 -25 4 -25 26c0 6 2 35 2 41c0 22 0 49 -1 64
c0 5 -1 10 -1 14c0 17 5 27 23 27h8c6 -1 14 -1 49 -1c8 0 17 0 25 1c8 0 16 1 24 1zM882 170c8 0 12 -1 15 -2c2 -1 13 -9 13 -22c0 -2 -1 -4 -1 -6c0 -10 -1 -33 -1 -50c0 -7 1 -44 1 -52c0 -25 -3 -41 -26 -40c-15 1 -50 1 -66 1c-6 0 -33 -2 -39 -2c-11 0 -25 4 -25 26
c0 6 2 35 2 41c0 22 0 49 -1 64c0 5 -1 10 -1 14c0 17 5 27 23 27h8c6 -1 14 -1 49 -1c8 0 17 0 25 1c8 0 16 1 24 1z" />
    <glyph glyph-name="questiondown" unicode="&#xbf;" horiz-adv-x="292" 
d="M74 678c0 24 22 27 26 27c4 1 21 0 25 0c8 -1 48 0 57 0c41 0 50 0 50 -27c0 -8 -2 -47 -2 -56s1 -51 1 -61c0 -16 -7 -28 -25 -28c-5 0 -27 2 -32 2h-24c-5 0 -28 1 -34 1c-2 0 -16 -1 -19 -1c-15 0 -25 9 -25 29c0 13 3 77 3 92c0 3 -1 19 -1 22zM96 462
c0 16 0 37 23 37c3 0 18 -1 22 -1h44c8 0 20 0 26 -16c1 -3 7 -43 7 -65c0 -54 -5 -82 -23 -150c-9 -33 -15 -54 -15 -69c0 -28 19 -41 34 -41c4 0 7 1 11 2c7 2 13 6 19 7h2c20 0 20 -22 20 -28c0 -5 -1 -29 -1 -35c0 -9 1 -52 1 -61c0 -16 -3 -32 -31 -39
c-12 -3 -54 -7 -76 -7s-50 3 -78 18c-9 4 -23 13 -33 26c-24 28 -24 50 -24 86c0 5 -1 28 -1 33v9c3 46 34 111 42 128c7 14 14 27 19 40c11 29 13 59 13 89c0 12 -1 25 -1 37z" />
    <glyph glyph-name="grave" unicode="`" horiz-adv-x="208" 
d="M10 696c0 11 11 12 14 12s14 -1 17 -1c6 0 38 -1 45 -1s44 2 53 2c18 0 23 -4 28 -21c4 -12 22 -61 25 -67s5 -9 5 -13c0 -6 -3 -9 -10 -12c-6 -1 -9 -1 -40 0h-40c-6 0 -7 1 -19 13c-5 5 -62 64 -64 67c-8 7 -14 12 -14 21z" />
    <glyph glyph-name="acute" unicode="&#xb4;" horiz-adv-x="208" 
d="M11 608c0 5 3 10 5 15c3 8 18 48 22 57c1 3 3 7 4 11c4 11 6 17 27 17c7 0 40 -2 48 -2h16c7 0 41 2 49 2c9 0 15 -5 15 -12c0 -9 -4 -14 -21 -30c-6 -6 -11 -12 -17 -17c-10 -11 -27 -28 -29 -31c-4 -4 -21 -22 -24 -23s-37 0 -44 0c-4 0 -25 -1 -30 -1s-21 0 -21 14z
" />
    <glyph glyph-name="circumflex" unicode="&#x2c6;" horiz-adv-x="208" 
d="M-27 606c0 7 5 12 10 19c5 6 9 13 14 19c9 13 24 33 32 46c6 9 12 18 27 18c4 0 23 -2 27 -2h30c5 0 27 2 32 2c9 0 14 0 19 -2c8 -3 11 -7 31 -38c7 -11 26 -37 29 -40c5 -6 12 -15 12 -23c0 -9 -9 -12 -15 -12c-7 0 -39 1 -46 1s-13 0 -20 -1c-5 -1 -10 -2 -14 -2
c-16 0 -21 13 -26 25c-1 4 -5 13 -13 13c-4 0 -8 -4 -11 -9c-2 -6 -2 -12 -5 -17c-1 -4 -5 -11 -13 -11c-5 0 -33 2 -39 2c-5 0 -30 -1 -35 -1c-23 0 -26 8 -26 13z" />
    <glyph glyph-name="tilde" unicode="&#x2dc;" horiz-adv-x="208" 
d="M30 606h-3c-3 0 -7 1 -10 2c-5 1 -30 4 -36 5c-5 1 -10 3 -15 3c-12 1 -21 2 -21 11c0 3 10 82 99 82c31 0 79 -15 110 -15c6 0 13 1 18 7c3 4 8 10 11 10c0 1 0 1 1 1c2 0 4 -1 7 -2c4 -1 32 -5 38 -6c31 -5 35 -6 35 -11l-3 -12c-14 -47 -51 -72 -100 -72
c-8 0 -26 0 -72 10c-15 3 -19 4 -26 4c-4 0 -11 0 -16 -3c-7 -4 -11 -12 -17 -14z" />
    <glyph glyph-name="macron" unicode="&#xaf;" horiz-adv-x="208" 
d="M224 674v-23c0 -13 0 -42 -25 -42c-3 0 -16 1 -19 1c-6 0 -35 -2 -42 -2c-5 0 -31 1 -37 1c-10 0 -59 -4 -70 -4s-30 1 -39 7s-9 11 -8 20c1 4 0 25 0 29c0 29 16 30 24 30c4 0 25 -1 29 -1c8 0 46 2 55 2c4 0 26 -2 31 -2c10 0 57 4 68 4c23 0 33 -6 33 -20z" />
    <glyph glyph-name="breve" unicode="&#x2d8;" horiz-adv-x="208" 
d="M-2 692c0 20 19 20 27 20c34 0 40 -2 43 -18c1 -7 1 -15 4 -21c5 -9 17 -19 33 -19c6 0 12 1 18 4c15 6 18 16 19 30c3 25 17 25 43 25c19 0 26 -11 26 -27c0 -29 -25 -100 -108 -100c-15 0 -68 3 -92 53c-10 21 -13 49 -13 53z" />
    <glyph glyph-name="dotaccent" unicode="&#x2d9;" horiz-adv-x="208" 
d="M43 688c0 18 13 20 19 21c10 0 55 -1 66 -1c2 0 16 1 20 1c17 0 17 -12 17 -24c0 -4 -1 -24 -1 -29c0 -8 1 -16 1 -24c0 -18 -7 -25 -31 -25c-8 -1 -56 -2 -64 -2c-25 0 -25 8 -25 24c0 3 -1 46 -1 48c0 4 -1 8 -1 11z" />
    <glyph glyph-name="dieresis" unicode="&#xa8;" horiz-adv-x="208" 
d="M-34 685c0 24 20 24 26 24c5 0 31 -2 37 -2c5 0 31 1 37 1c23 0 23 -11 23 -37c0 -3 1 -21 1 -25c0 0 -1 -23 -2 -26c-1 -2 -7 -15 -20 -15c-2 0 -13 1 -15 1c-6 0 -36 -1 -42 -1h-17c-26 0 -26 15 -26 33c0 7 -2 40 -2 47zM121 688c0 20 13 20 19 20c10 0 55 -1 66 -1
c2 0 16 1 20 1c17 0 17 -11 17 -23c0 -4 -1 -25 -1 -29c0 -8 1 -17 1 -25c0 -17 -7 -24 -31 -25c-8 0 -56 -2 -63 -2c-26 0 -26 8 -26 24c0 3 -1 47 -1 49c0 3 -1 7 -1 11z" />
    <glyph glyph-name="ring" unicode="&#x2da;" horiz-adv-x="208" 
d="M-12 673c0 59 54 99 116 99c75 0 117 -54 117 -100c0 -59 -57 -101 -119 -101c-75 0 -114 52 -114 102zM103 713c-34 0 -55 -20 -55 -44c0 -25 27 -41 55 -41c39 0 54 27 54 45c0 19 -21 40 -54 40z" />
    <glyph glyph-name="cedilla" unicode="&#xb8;" horiz-adv-x="208" 
d="M59 -169v1c0 3 10 13 17 20c4 5 7 10 7 16c0 10 -7 15 -13 19c-5 3 -26 18 -26 44c0 28 28 51 58 51c23 0 61 -16 61 -66c0 -25 -9 -57 -32 -83c-8 -10 -18 -19 -27 -28c-5 -5 -12 -13 -20 -13c-11 0 -25 33 -25 39z" />
    <glyph glyph-name="hungarumlaut" unicode="&#x2dd;" horiz-adv-x="208" 
d="M-38 604c0 6 3 13 6 20c7 17 13 34 19 52c7 18 12 29 33 29c5 0 30 -1 36 -1h29c20 0 26 -5 26 -18c0 -7 -3 -10 -12 -20c-6 -7 -11 -14 -17 -20c-9 -10 -19 -20 -28 -31c-7 -8 -13 -16 -21 -20c-6 -3 -11 -3 -55 -3c-11 0 -16 6 -16 12zM97 603c0 6 2 12 5 19
c8 18 14 36 20 54c5 15 10 28 30 28c5 0 31 -2 37 -2c5 0 28 1 33 1c6 0 24 0 24 -17c0 -8 0 -8 -31 -43c-8 -10 -18 -19 -27 -29c-16 -20 -19 -24 -44 -24c-41 0 -47 3 -47 13z" />
    <glyph glyph-name="ogonek" unicode="&#x2db;" horiz-adv-x="208" 
d="M97 6l68 2c-4 -4 -8 -9 -16 -18c-3 -4 -7 -8 -10 -12c-4 -5 -6 -10 -10 -16c-6 -10 -7 -12 -7 -16c0 -8 5 -15 15 -17c2 -1 16 0 19 0c10 0 15 -3 15 -15c0 -2 -2 -34 -3 -39c-2 -6 -6 -10 -12 -13c-10 -4 -47 -9 -49 -9s-16 3 -25 5c-17 6 -18 7 -29 16
c-6 5 -16 13 -16 34c0 22 8 44 23 60c9 12 27 28 37 38z" />
    <glyph glyph-name="caron" unicode="&#x2c7;" horiz-adv-x="208" 
d="M21 706c8 0 44 2 49 2c4 0 10 0 16 -9c5 -7 6 -14 11 -21c2 -4 6 -7 10 -7c8 0 10 8 12 15c5 21 12 21 18 21c5 0 26 -2 31 -2c7 0 41 2 49 2c9 0 19 -6 19 -15c0 -2 -5 -10 -8 -15c-13 -15 -33 -45 -49 -68c-7 -10 -11 -16 -31 -16c-6 0 -35 1 -42 1c-10 0 -21 0 -31 -1
c-5 -1 -10 -2 -15 -2c-20 0 -26 10 -32 19c-12 20 -35 50 -49 69c-2 4 -6 12 -6 16c0 7 5 12 17 12c4 0 26 -1 31 -1z" />
    <glyph glyph-name="emdash" unicode="&#x2014;" horiz-adv-x="562" 
d="M9 251v37c0 5 -2 33 -2 39c0 13 11 24 27 24c6 0 32 -2 38 -2c8 -1 50 0 59 0c13 0 78 -1 93 -1c88 0 188 0 277 1c4 0 23 1 28 1c6 0 21 0 22 -29c1 -6 0 -31 0 -37c0 -7 1 -42 1 -51c0 -14 -9 -25 -23 -25c-4 0 -23 2 -27 2c-3 0 -16 -1 -19 -1s-16 1 -19 1
c-2 0 -13 -1 -15 -1h-16c-6 0 -12 -1 -18 -1h-50c-5 0 -32 1 -38 1c-8 0 -15 0 -23 -1c-5 -1 -11 -2 -16 -2c-2 0 -13 1 -15 1h-68c-18 0 -108 2 -128 2c-5 0 -33 -1 -40 -1c-28 0 -28 24 -28 43z" />
    <glyph glyph-name="AE" unicode="&#xc6;" horiz-adv-x="542" 
d="M405 295h-8c-7 0 -14 -2 -14 -14c0 -6 1 -12 2 -19c4 -42 5 -47 10 -71c6 -31 14 -31 29 -31c20 -1 50 0 70 0c18 0 41 0 41 -32c0 -10 -2 -26 -2 -36c0 -9 0 -55 -1 -65c-1 -26 -12 -28 -104 -28c-11 0 -64 2 -76 2c-10 0 -21 0 -31 -1c-9 0 -18 -2 -27 -2
c-32 0 -36 12 -37 27s-2 29 -2 43c-1 18 -2 50 -41 50c-4 0 -17 0 -27 -6c-11 -7 -20 -13 -20 -67c0 -23 -1 -45 -35 -45c-7 0 -44 3 -53 3c-7 0 -44 -3 -52 -3c-14 0 -28 0 -28 24c0 13 3 31 4 36c5 25 11 50 17 75c5 25 9 50 12 75c2 12 3 25 5 38c3 24 27 140 32 167
c6 33 6 37 15 72c19 74 27 122 37 185c5 26 7 34 36 34c6 0 38 -2 45 -2c8 0 49 2 58 2c5 0 32 -1 38 -1c9 0 52 1 62 1c11 0 63 -2 75 -2c17 1 33 1 50 1c27 0 38 -14 38 -38c0 -6 -2 -36 -2 -43c0 -5 1 -28 1 -34c0 -37 -18 -37 -61 -37c-21 0 -42 1 -63 1
c-5 0 -29 1 -32 1c-1 0 -13 0 -13 -8c0 -1 5 -57 8 -68c0 -4 1 -8 2 -12c0 -4 0 -8 1 -13c1 -3 2 -8 5 -10c2 -1 4 -1 20 -1c10 0 21 2 31 2c11 1 21 1 31 1h28c2 0 14 1 16 1c15 0 24 -14 24 -33c0 -7 -1 -40 -1 -48c0 -58 -1 -75 -46 -75c-7 0 -42 3 -50 3
c-5 0 -11 0 -17 1zM218 471c-9 0 -15 -47 -15 -52c-1 -8 -3 -15 -5 -23c-2 -9 -9 -51 -11 -61c-4 -19 -5 -28 -5 -42c0 -21 19 -22 29 -22c12 0 29 1 29 23c0 4 0 8 -1 12c-4 21 -10 114 -13 135c-2 12 -3 18 -3 22c0 6 -4 8 -5 8z" />
    <glyph glyph-name="ordfeminine" unicode="&#xaa;" horiz-adv-x="292" 
d="M54 680c0 11 3 18 21 23c26 8 39 8 45 8c5 0 26 1 31 1c1 0 64 0 89 -30c6 -7 14 -17 14 -63c0 -3 -1 -21 -1 -25c0 -5 1 -32 1 -39c0 -30 -1 -78 -1 -108c0 -4 1 -28 1 -33c0 -8 -1 -18 -1 -23v-18c0 -3 0 -16 -18 -16c-5 0 -27 1 -32 1c-4 0 -23 -2 -27 -2
c-2 0 -7 0 -9 5c-1 1 0 12 -3 12c-1 0 -2 -1 -4 -3c-10 -12 -27 -16 -43 -16c-13 0 -33 1 -52 16c-26 23 -34 71 -34 108c0 36 5 75 23 97c22 29 53 32 63 32c14 0 20 -2 35 -9c1 -1 3 -2 4 -2c6 0 7 6 7 9c0 23 -13 28 -38 28c-9 0 -19 -1 -29 -4c-4 -1 -19 -9 -22 -9
c-8 0 -15 6 -17 8c-3 4 -3 7 -3 30c1 3 0 18 0 22zM141 526c-5 0 -14 -4 -18 -19c-1 -5 -1 -19 -1 -35c0 -20 4 -36 19 -36c19 0 18 26 18 34v32c0 16 -10 24 -18 24z" />
    <glyph glyph-name="Lslash" unicode="&#x141;" horiz-adv-x="313" 
d="M27 361v23c0 13 2 76 2 90c0 7 -1 43 -1 51c0 14 3 85 3 101c0 7 -2 45 -2 54c0 11 1 28 23 28c3 0 6 0 9 -1c19 -1 37 -3 56 -3c8 0 17 0 25 1c14 2 15 2 19 2c19 0 27 -13 27 -25c0 0 -1 -20 -1 -22c-3 -44 -3 -49 -3 -67c0 -11 2 -68 2 -81c0 -5 -3 -25 -3 -30
s2 -6 3 -6c3 0 32 22 36 25c9 8 12 10 18 10c10 0 10 -13 10 -14c0 -3 -1 -18 -1 -21c0 -6 1 -33 1 -40c0 -13 -4 -16 -21 -27c-45 -31 -45 -32 -45 -48v-62c0 -26 -1 -53 -1 -79c0 -42 0 -68 37 -68c1 0 22 1 34 2c8 1 21 3 24 3c25 0 32 -16 32 -44c0 -7 -2 -37 -2 -44
c0 -5 2 -28 2 -33c0 -23 -14 -36 -38 -36c-4 0 -12 0 -16 1c-4 0 -24 2 -28 2c-7 0 -42 -2 -49 -2c-8 0 -45 2 -54 2c-8 0 -49 -3 -58 -3c-34 0 -39 25 -40 30c-1 4 -1 6 -1 24c0 5 1 29 1 34c1 9 1 41 1 50c0 8 -2 46 -2 54v46c0 2 1 10 1 12c0 4 -3 8 -5 8s-9 -7 -12 -7
c-1 0 -9 1 -9 13c0 2 1 16 1 20s-2 28 -2 33c0 20 4 22 14 28c7 3 11 6 13 16z" />
    <glyph glyph-name="Oslash" unicode="&#xd8;" horiz-adv-x="458" 
d="M381 55c-46 -54 -109 -62 -158 -62c-105 0 -139 41 -158 65c-4 -6 -21 -32 -25 -38c-3 -5 -6 -9 -11 -9s-6 1 -18 9c-4 4 -10 6 -14 10c-1 2 -4 8 -4 10s3 8 5 12c8 13 19 31 38 64c-10 52 -10 61 -10 95c0 20 -2 117 -2 139c0 27 1 71 1 98c0 43 5 133 17 169
c11 32 33 53 54 67c30 21 57 34 126 34c110 0 135 -27 162 -56c7 10 16 24 22 35s12 12 20 9c4 -2 7 -7 12 -10c4 -4 11 -5 15 -10c1 -2 2 -5 2 -8c0 -4 -2 -8 -4 -11c-10 -18 -26 -45 -36 -62c11 -42 12 -55 12 -142c0 -2 2 -90 2 -98c1 -24 1 -61 1 -87
c0 -85 -5 -170 -49 -223zM184 347l85 134c0 46 -1 51 -3 62c-4 19 -18 33 -38 33c-22 0 -32 -13 -36 -21c-8 -15 -8 -86 -8 -137c0 -20 -2 -51 0 -71zM270 378l-87 -134c1 -47 2 -60 8 -73c5 -11 16 -23 34 -23c5 0 12 1 20 5c17 8 25 23 25 60c0 8 -2 45 -2 54
c0 19 2 84 2 84c1 14 1 18 0 27z" />
    <glyph glyph-name="OE" unicode="&#x152;" horiz-adv-x="604" 
d="M424 237v-46c0 -25 17 -31 40 -31c6 0 33 1 39 1c16 0 40 1 56 1c36 0 35 -25 35 -70v-44c0 -23 -3 -49 -42 -49c-7 0 -42 3 -50 3c-7 0 -41 -2 -49 -2s-51 2 -61 2c-13 0 -16 0 -65 -2h-32c-6 -1 -12 -3 -18 -4c-14 -3 -46 -7 -61 -7c-48 0 -76 10 -87 14
c-17 7 -42 18 -63 46c-13 16 -33 44 -41 110c-3 30 -3 212 -3 283c0 24 1 37 3 63c4 60 6 87 17 114c21 55 82 81 102 86c17 5 59 10 80 10c16 0 37 0 50 -2c15 -3 29 -7 44 -8c5 -1 39 -1 40 -1c5 0 28 2 34 2c13 1 34 1 51 1c7 0 41 -1 48 -1c6 0 33 1 39 1
c21 0 50 0 50 -36c0 -5 -2 -30 -2 -35c0 -6 1 -33 1 -39c0 -31 -13 -42 -36 -42c-8 0 -16 1 -23 1h-15c-8 -1 -48 0 -57 0c-20 0 -29 -11 -29 -31c0 -4 1 -26 1 -30c0 -3 -2 -18 -2 -22c0 -5 1 -10 4 -15c4 -6 10 -14 31 -14c9 0 71 4 84 4c8 0 31 0 38 -20c2 -4 2 -6 2 -28
c0 -8 1 -50 1 -59c0 -32 -8 -49 -48 -49c-8 0 -50 4 -59 4c-7 0 -48 0 -48 -35c0 -3 1 -20 1 -24zM180 296v-82c0 -33 3 -68 41 -68c9 0 17 2 22 6c10 6 15 18 18 30c2 11 5 141 5 153c0 55 0 128 -3 182c-1 19 -3 55 -38 55c-10 0 -32 -4 -39 -28c-5 -18 -7 -97 -7 -100
c0 -10 3 -60 3 -71s-2 -65 -2 -77z" />
    <glyph glyph-name="ordmasculine" unicode="&#xba;" horiz-adv-x="292" 
d="M30 550c0 59 2 97 31 129c22 25 57 33 90 33c40 0 94 -19 104 -82c6 -34 6 -72 6 -108c0 -95 -10 -111 -20 -128c-11 -19 -34 -47 -95 -47c-27 0 -49 6 -66 17c-13 8 -27 23 -33 37c-12 30 -17 48 -17 149zM144 618c-17 0 -17 -20 -16 -55v-85c0 -19 0 -37 16 -37
c20 0 20 23 20 36c0 11 -2 65 -2 77v30c0 18 -2 34 -18 34z" />
    <glyph glyph-name="ae" unicode="&#xe6;" horiz-adv-x="583" 
d="M45 478v27c0 29 6 34 22 40c38 15 70 16 110 16c42 0 59 -1 95 -11c4 -1 24 -8 26 -8c5 0 10 4 16 7c13 7 45 16 81 16c72 0 102 -30 119 -47c32 -33 53 -87 53 -154c0 -7 -1 -60 -1 -67c-1 -7 -1 -29 -1 -37c0 -11 -2 -17 -11 -28c-6 -7 -12 -14 -32 -14
c-6 0 -31 2 -37 2c-5 0 -31 -2 -37 -2c-7 0 -45 3 -54 3c-24 0 -39 0 -39 -25c0 -3 0 -17 9 -31c11 -20 30 -34 77 -34c17 0 33 3 48 10c11 5 20 12 31 13h4c16 0 31 -10 31 -28c0 -5 -1 -10 -1 -15c-1 -8 -1 -16 -1 -24c0 -6 1 -34 1 -41s-1 -13 -3 -16
c-9 -22 -78 -33 -118 -33c-16 0 -39 0 -47 1c-1 0 -31 4 -34 6l-6 2c-2 0 -7 -3 -10 -5c-3 -1 -5 -1 -8 -1c-8 0 -44 2 -53 2c-6 0 -37 -2 -44 -2c-4 0 -7 0 -9 1c-3 2 -3 3 -3 15c0 7 -5 11 -8 11s-7 -4 -10 -7c-12 -13 -34 -23 -65 -23c-12 0 -20 1 -26 2
c-23 4 -47 18 -59 30c-21 21 -45 69 -45 155c0 40 2 107 30 153c18 30 57 58 104 58c19 0 28 -4 53 -15c4 -2 8 -4 12 -4c7 0 9 3 11 9c0 3 2 22 2 22c0 3 0 7 -5 14c-4 7 -13 22 -58 22c-28 0 -42 -4 -49 -6c-5 -2 -29 -14 -35 -14c-9 0 -21 9 -24 15c-3 7 -3 16 -2 40z
M391 442c-7 0 -17 -2 -25 -13c-9 -14 -11 -30 -11 -68c0 -9 0 -22 11 -26c5 -2 30 -2 33 -2c6 0 19 0 25 11c2 5 2 34 2 41c0 12 -1 23 -5 34c-7 20 -23 23 -30 23zM178 272c-6 0 -11 -2 -15 -6c-19 -14 -20 -41 -20 -58c0 -47 1 -64 10 -76c5 -7 14 -12 23 -12
c10 0 19 6 24 14c8 10 9 24 9 34c1 10 0 56 0 67c0 25 -20 37 -31 37z" />
    <glyph glyph-name="dotlessi" unicode="&#x131;" horiz-adv-x="187" 
d="M17 534c0 7 1 15 11 21c8 5 13 5 17 5c5 0 29 -2 34 -2c10 0 56 2 66 2c8 0 27 0 27 -28c0 -13 -3 -77 -3 -91c0 -12 2 -69 2 -82s-2 -77 -2 -92c0 -10 2 -62 2 -73c0 -24 -3 -49 -3 -73c0 -12 4 -73 4 -87c0 -31 -21 -32 -26 -32c-3 0 -21 2 -25 2h-23
c-12 0 -24 -1 -36 -2c-5 0 -11 -1 -16 -1c-29 0 -31 17 -31 33c0 6 0 10 1 27c1 24 1 61 1 92c0 8 1 45 1 54c0 10 -1 57 -1 68c0 10 2 61 2 72c0 8 -1 44 -1 52c0 11 1 66 1 78c0 8 -2 48 -2 57z" />
    <glyph glyph-name="lslash" unicode="&#x142;" horiz-adv-x="208" 
d="M25 674c0 8 0 36 34 36c3 0 12 -1 22 -2c9 -1 19 -2 22 -2c6 0 38 3 45 3c13 0 33 -1 33 -33c0 -12 -4 -73 -4 -86c0 -17 1 -33 1 -50v-33c0 -3 -2 -15 -2 -18c0 -2 0 -3 1 -3c2 0 5 1 7 2c8 6 9 6 12 6c13 0 13 -11 13 -16c0 -3 -2 -20 -2 -24s2 -21 2 -25
c0 -15 -7 -20 -12 -23c-14 -8 -18 -11 -20 -20v-20c0 -10 -1 -58 -1 -69c0 -12 2 -69 2 -82c0 -11 -2 -69 -2 -83c0 -20 1 -41 2 -62c2 -24 2 -26 2 -34c0 -23 -3 -35 -32 -35c-5 0 -28 2 -33 2c-9 0 -49 -2 -58 -2c-25 0 -30 11 -30 34c0 8 3 48 3 57c0 6 -1 35 -2 42v60
c0 7 1 39 1 47c0 2 -1 12 -1 14s2 12 2 14s0 5 -5 5c-1 0 -3 0 -4 -1c-2 0 -10 -8 -12 -8c-5 0 -8 5 -8 10v28c0 5 -1 28 -1 33c0 3 0 6 1 9c4 8 15 11 21 19c5 6 5 9 5 33c0 8 1 51 1 61c0 9 -1 53 -1 63c0 16 1 92 1 109c0 6 -3 37 -3 44z" />
    <glyph glyph-name="oslash" unicode="&#xf8;" horiz-adv-x="417" 
d="M22 266v51c0 8 1 16 2 24c1 13 2 27 2 41c0 9 0 19 1 29c0 8 5 49 25 82c23 38 42 46 60 54c28 13 45 20 113 20c27 0 42 -5 63 -12c19 -8 32 -12 57 -40c2 3 12 15 14 17c10 12 11 13 14 13c5 0 23 -16 28 -19c7 -4 8 -5 8 -8c0 -8 -7 -16 -15 -26
c-7 -8 -13 -17 -19 -26c4 -19 7 -38 8 -57c1 -14 1 -29 1 -43l3 -33c0 -9 -1 -53 -1 -63c0 -7 1 -43 1 -51c0 -41 -4 -65 -9 -92c-8 -36 -15 -59 -37 -83c-31 -34 -63 -41 -81 -45c-21 -5 -25 -5 -61 -5c-43 0 -49 2 -82 16c-23 10 -26 13 -53 38c-10 -13 -12 -15 -25 -33
c-3 -5 -6 -8 -11 -8c-3 0 -6 1 -8 3c-3 3 -5 6 -8 8c-5 4 -11 6 -14 11c-2 3 -3 6 -3 9c0 5 3 9 7 15c6 6 29 41 35 49c-4 17 -8 35 -9 52c-2 16 -1 33 -2 49c0 9 -4 53 -4 63zM165 276c8 8 17 19 24 28c6 8 34 49 42 58c8 10 12 15 12 30c0 19 -12 39 -37 39
c-16 0 -34 -3 -38 -32c0 -3 -4 -56 -4 -63c0 -9 1 -51 1 -60zM243 286l-15 -18c-9 -12 -17 -25 -26 -36c-4 -5 -8 -9 -11 -13c-27 -34 -27 -36 -27 -45c0 -22 12 -47 37 -47c16 0 30 8 36 24c5 10 5 15 5 32c0 10 3 59 3 70c0 14 0 16 -2 33z" />
    <glyph glyph-name="oe" unicode="&#x153;" horiz-adv-x="604" 
d="M310 534c21 14 47 30 104 30c81 0 116 -33 142 -70c10 -15 34 -59 34 -127c0 -9 -3 -116 -4 -120c-2 -6 -14 -30 -35 -30c-5 0 -25 2 -30 2c-6 0 -37 -2 -44 -2c-10 0 -57 3 -68 3c-21 0 -35 0 -35 -25c0 -8 2 -24 13 -39c10 -13 27 -26 68 -26c39 0 60 10 71 16
c8 3 15 6 20 6c6 0 30 -5 30 -27c0 -4 0 -9 -1 -13c-1 -12 -1 -24 -1 -36c0 -5 1 -29 1 -34c0 -12 -4 -21 -14 -27c-13 -8 -52 -20 -114 -20c-53 0 -89 4 -137 34c-15 -11 -47 -34 -116 -34c-15 0 -42 2 -53 4c-1 0 -40 9 -68 35c-45 41 -50 91 -53 119c-3 38 -5 78 -5 128
c0 76 2 110 5 140c6 52 17 71 36 93c26 30 59 55 128 55c45 0 90 -8 126 -35zM412 442c-35 0 -38 -53 -38 -65c0 -3 1 -18 1 -22c0 -23 12 -23 23 -23c4 0 20 -1 24 -1c14 0 23 6 25 11c3 5 3 31 3 37c0 16 0 63 -38 63zM228 231v139c0 27 0 58 -31 58
c-26 0 -33 -26 -33 -53c0 -9 2 -51 2 -61c0 -15 -3 -91 -3 -108c0 -12 1 -38 5 -48c5 -13 20 -22 30 -22c21 0 29 18 30 39c1 12 1 16 0 56z" />
    <glyph glyph-name="germandbls" unicode="&#xdf;" 
d="M216 541c0 20 -13 29 -24 29s-21 -8 -25 -19c-3 -11 -3 -27 -3 -41c0 -4 1 -27 1 -32c0 -8 -2 -50 -2 -59c0 -16 3 -92 3 -109c0 -12 -3 -71 -3 -85c0 -15 4 -89 4 -105c0 -8 -2 -47 -2 -56c0 -5 1 -30 1 -35c0 -17 -4 -30 -24 -30c-6 0 -30 2 -36 2h-9
c-15 -1 -45 -3 -51 -3c-30 0 -30 19 -30 30c0 7 1 42 1 50c0 9 -3 56 -3 67c0 2 2 31 2 36c1 12 3 101 3 112c0 33 -2 66 -2 98c0 11 2 64 2 76c0 9 -2 55 -2 65c0 94 44 132 58 142c33 25 102 36 121 36c23 0 66 -9 78 -13s34 -14 55 -38c25 -27 37 -59 37 -100
c0 -20 -12 -53 -16 -61c-4 -11 -28 -57 -28 -66c0 -6 2 -12 5 -18c4 -11 9 -22 13 -33c3 -10 6 -20 10 -30c3 -8 6 -16 9 -23c6 -17 12 -33 18 -50c9 -28 18 -58 18 -89c0 -3 -1 -22 -1 -26c-1 -11 0 -21 -1 -31c-1 -12 -3 -24 -7 -35c-17 -57 -38 -72 -54 -83
c-27 -20 -34 -20 -81 -20c-12 0 -32 0 -47 10c-11 7 -18 19 -18 33c0 6 3 33 3 40c0 15 -1 30 -3 45c-1 7 -2 14 -2 15c0 16 13 17 14 17c3 0 13 -3 15 -3c7 0 26 4 26 35c0 27 -7 55 -17 80c-6 14 -13 28 -19 42c-19 43 -23 94 -23 103c0 21 7 43 15 60c2 6 6 11 8 17
c6 13 13 39 13 53z" />
    <glyph glyph-name="Igrave" unicode="&#xcc;" horiz-adv-x="208" 
d="M25 667c0 29 7 39 32 39c7 0 40 -2 48 -2s49 2 58 2c23 0 24 -23 24 -29s-1 -13 -2 -19c-1 -12 -2 -25 -2 -37c0 -34 0 -67 -1 -101c0 -17 1 -45 1 -62c0 -6 -2 -34 -2 -41c0 -10 1 -60 1 -71s-2 -64 -2 -76c0 -9 1 -51 1 -60c0 -16 -3 -96 -3 -114c0 -14 1 -29 1 -43
c1 -4 2 -22 2 -26c0 -8 -4 -23 -24 -26c-4 -1 -28 0 -34 0c-11 0 -67 -1 -79 -1c-24 0 -24 25 -24 37v2c0 14 2 83 2 98c1 31 0 79 0 109c0 18 4 106 4 126c0 10 -2 59 -2 70c0 8 2 44 3 52c0 13 -1 75 -1 89c0 5 1 31 1 37c0 7 -2 39 -2 47zM-25 865c0 10 10 13 15 13
c3 0 5 -1 8 -1c7 -1 36 -1 45 -1h6c16 0 41 2 57 2c20 0 22 -6 29 -28c3 -9 19 -52 23 -60c3 -6 4 -9 4 -13c0 -10 -10 -13 -21 -13c-5 -1 -27 1 -33 1c-5 0 -31 -1 -36 -1c-7 0 -8 2 -15 10c-3 4 -6 7 -10 10c-9 9 -51 54 -61 64c-5 4 -11 9 -11 17z" />
    <glyph glyph-name="threesuperior" unicode="&#xb3;" horiz-adv-x="292" 
d="M215 515l3 -3c17 -13 18 -15 27 -25c18 -24 22 -60 22 -78c0 -33 0 -39 -10 -65s-16 -32 -30 -47c-16 -17 -35 -37 -99 -37c-36 0 -53 5 -102 35c-12 7 -17 11 -17 23c0 4 1 5 11 19c17 22 18 25 25 36c8 13 9 14 23 14c9 0 10 -2 18 -11c8 -10 21 -15 34 -15
c33 0 41 22 41 51c0 11 -2 44 -42 44c-4 0 -22 -2 -26 -2c-7 0 -21 3 -21 19c0 3 1 17 1 20c0 5 -3 29 -3 34c0 22 20 23 22 23s16 -2 19 -2c26 0 49 16 49 40c0 19 -16 33 -36 33c-10 0 -19 -3 -27 -8c-6 -4 -6 -4 -10 -12c-2 -3 -4 -7 -12 -7c-5 0 -8 2 -9 3
c0 0 -28 33 -34 38c-8 8 -9 10 -9 19c0 8 0 9 13 22c28 28 74 39 95 39c4 0 16 0 19 -1c3 0 12 -1 15 -2c12 -1 46 -7 70 -39c17 -23 23 -42 23 -76c0 -26 -7 -57 -43 -82z" />
    <glyph glyph-name="Oacute" unicode="&#xd3;" horiz-adv-x="437" 
d="M22 445c0 45 5 137 17 172c17 47 61 70 76 78c17 9 40 21 106 21c27 0 68 -4 93 -14c19 -7 45 -25 60 -44c36 -51 38 -110 40 -163c0 -28 0 -56 1 -84c1 -50 3 -100 3 -150c0 -108 -12 -181 -68 -228c-38 -31 -81 -42 -141 -42c-71 0 -114 28 -136 53
c-30 35 -34 57 -40 85c-8 38 -8 39 -8 91c0 19 -3 110 -3 130c0 6 1 36 1 43s-1 44 -1 52zM218 573c-2 0 -25 0 -33 -27c-5 -18 -5 -77 -5 -97c0 -39 1 -102 1 -142c0 -21 0 -102 3 -118c2 -12 9 -41 34 -41c28 0 40 24 40 55c0 11 -2 60 -2 72c0 16 2 98 2 116
c0 34 -1 93 -3 128c-1 16 -3 54 -37 54zM162 778c0 6 28 73 31 83c4 11 6 16 25 16c10 0 58 -1 68 -1c14 0 27 0 40 1c2 1 5 1 7 1c9 0 15 -5 15 -12s-2 -10 -19 -27c-10 -11 -57 -59 -63 -66c-5 -6 -7 -9 -12 -9c-7 0 -38 1 -46 1c-3 0 -22 -1 -26 -1s-20 0 -20 14z" />
    <glyph glyph-name="Idieresis" unicode="&#xcf;" horiz-adv-x="208" 
d="M25 667c0 29 7 39 32 39c7 0 40 -2 48 -2s49 2 58 2c23 0 24 -23 24 -29s-1 -13 -2 -19c-1 -12 -2 -25 -2 -37c0 -34 0 -67 -1 -101c0 -17 1 -45 1 -62c0 -6 -2 -34 -2 -41c0 -10 1 -60 1 -71s-2 -64 -2 -76c0 -9 1 -51 1 -60c0 -16 -3 -96 -3 -114c0 -14 1 -29 1 -43
c1 -4 2 -22 2 -26c0 -8 -4 -23 -24 -26c-4 -1 -28 0 -34 0c-11 0 -67 -1 -79 -1c-24 0 -24 25 -24 37v2c0 14 2 83 2 98c1 31 0 79 0 109c0 18 4 106 4 126c0 10 -2 59 -2 70c0 8 2 44 3 52c0 13 -1 75 -1 89c0 5 1 31 1 37c0 7 -2 39 -2 47zM-33 843c0 22 19 23 27 23
c5 0 27 -2 32 -2c6 0 36 1 43 1c3 0 11 0 16 -5s5 -9 5 -36c0 -3 1 -18 1 -22c0 -8 -1 -28 -7 -34c-5 -5 -9 -5 -26 -5c-10 0 -55 -1 -65 -1c-20 0 -24 15 -24 20v16c0 9 0 26 -1 34c0 4 -1 7 -1 11zM124 801v5c0 5 -2 32 -2 38c0 19 9 22 25 22c8 0 51 -1 61 -1
c2 0 15 1 18 1c14 0 16 -9 17 -14s0 -29 0 -34c0 -4 1 -21 1 -25c0 -20 -3 -28 -29 -29c-4 -1 -64 -2 -71 -2c-12 0 -17 5 -19 12c-1 3 -1 22 -1 27z" />
    <glyph glyph-name="Ccedilla" unicode="&#xc7;" horiz-adv-x="333" 
d="M137 688c17 11 38 24 93 24c4 0 58 -1 73 -7c3 -1 27 -10 27 -32c0 -4 -1 -22 -1 -26c0 -10 1 -60 1 -71c0 -5 0 -33 -28 -33c-7 0 -13 2 -20 3c-8 2 -16 3 -24 3c-25 0 -52 -11 -63 -41c-10 -27 -12 -121 -12 -156c0 -42 0 -90 10 -125c8 -26 26 -52 65 -58
c6 -1 25 -1 37 -1c34 -2 36 -21 36 -36c0 -7 -1 -43 -1 -51c0 -6 2 -35 2 -42c0 -19 -11 -43 -49 -43h-16c-50 4 -91 6 -130 24c-17 8 -33 16 -63 56c-47 60 -51 166 -51 272c0 45 2 68 4 111c5 70 9 104 38 155c25 45 45 57 72 74zM148 -68c0 31 31 53 57 53
c33 0 62 -27 62 -66c0 -19 -6 -51 -31 -83c-3 -4 -36 -42 -48 -42c-13 0 -26 35 -26 39s3 8 8 12c13 11 17 15 17 24c0 10 -8 16 -16 22c-1 1 -23 23 -23 41z" />
    <glyph glyph-name="Ugrave" unicode="&#xd9;" horiz-adv-x="437" 
d="M21 668c0 38 23 40 27 40c9 0 56 -2 66 -2c5 0 30 2 35 2c12 0 34 -3 34 -29c0 -30 -2 -80 -2 -110c0 -11 1 -64 1 -76c0 -16 -3 -94 -3 -112c0 -10 3 -57 3 -68c0 -16 -1 -42 -1 -59c0 -8 -1 -51 -1 -61c0 -26 8 -42 36 -42c26 0 42 9 42 42v52c0 6 -1 23 -1 32
c-1 6 -1 60 -1 70c0 8 2 46 2 54c0 15 -2 86 -2 103c0 12 1 76 1 90c0 8 -2 45 -2 53v17c0 3 -1 17 -1 21c0 19 16 24 32 24c7 0 44 -1 52 -1c6 0 34 1 40 1c7 0 37 0 37 -37c0 -4 -2 -28 -2 -33c0 -11 3 -62 3 -74c0 -7 -1 -43 -1 -51c0 -9 2 -51 2 -61s-3 -60 -3 -71
c0 -10 2 -61 2 -72c0 -13 -3 -75 -3 -89c0 -8 2 -51 2 -60c0 -43 -18 -94 -71 -133c-37 -28 -70 -37 -121 -37c-90 0 -123 19 -150 45c-47 44 -48 88 -49 132c0 25 0 50 -1 75c0 13 -3 81 -3 96c0 25 2 50 2 75c0 10 2 57 2 68c0 4 -1 22 -1 27c0 12 2 24 2 37
c0 5 0 7 -1 25c-1 15 -1 26 -1 47c0 7 -2 42 -2 50zM90 865c0 10 10 13 15 13c3 0 5 -1 8 -1c7 -1 36 -1 45 -1h6c16 0 41 2 57 2c20 0 22 -6 29 -28c3 -9 19 -52 23 -60c3 -6 4 -9 4 -13c0 -10 -10 -13 -21 -13c-5 -1 -27 1 -33 1c-5 0 -31 -1 -36 -1c-7 0 -8 2 -15 10
c-3 4 -6 7 -10 10c-9 9 -51 54 -61 64c-5 4 -11 9 -11 17z" />
    <glyph glyph-name="thorn" unicode="&#xfe;" 
d="M17 671c0 29 16 29 26 29c6 0 13 0 19 -1c13 -1 41 -2 41 -2c5 0 27 3 31 3c28 0 28 -24 28 -32c0 -9 -2 -55 -2 -65c0 -7 1 -38 1 -45c0 -14 4 -17 9 -17c6 0 7 1 20 9c14 8 40 13 58 13c35 0 62 -13 82 -37c34 -41 48 -96 48 -260c0 -129 -14 -172 -33 -206
c-24 -41 -61 -65 -105 -65c-15 0 -29 3 -40 9c-5 2 -10 5 -15 8c-3 1 -7 2 -10 2c-11 0 -13 -12 -13 -29c0 -7 4 -38 4 -45s-4 -22 -26 -22c-5 0 -10 1 -14 1c-9 1 -18 1 -27 1s-51 -2 -61 -2c-15 0 -23 9 -23 24c0 8 4 50 4 60c0 9 -1 51 -1 61v231c0 13 0 23 1 49v207
c0 14 -1 64 -1 80c0 6 -1 34 -1 41zM198 419c-32 0 -32 -41 -32 -73c0 -22 2 -127 2 -151c0 -45 26 -46 30 -46c2 0 20 0 28 24c5 15 5 24 5 103c0 9 1 53 1 62c0 26 -2 45 -9 61c-2 8 -7 20 -25 20z" />
    <glyph glyph-name="Udieresis" unicode="&#xdc;" horiz-adv-x="437" 
d="M21 668c0 38 23 40 27 40c9 0 56 -2 66 -2c5 0 30 2 35 2c12 0 34 -3 34 -29c0 -30 -2 -80 -2 -110c0 -11 1 -64 1 -76c0 -16 -3 -94 -3 -112c0 -10 3 -57 3 -68c0 -16 -1 -42 -1 -59c0 -8 -1 -51 -1 -61c0 -26 8 -42 36 -42c26 0 42 9 42 42v52c0 6 -1 23 -1 32
c-1 6 -1 60 -1 70c0 8 2 46 2 54c0 15 -2 86 -2 103c0 12 1 76 1 90c0 8 -2 45 -2 53v17c0 3 -1 17 -1 21c0 19 16 24 32 24c7 0 44 -1 52 -1c6 0 34 1 40 1c7 0 37 0 37 -37c0 -4 -2 -28 -2 -33c0 -11 3 -62 3 -74c0 -7 -1 -43 -1 -51c0 -9 2 -51 2 -61s-3 -60 -3 -71
c0 -10 2 -61 2 -72c0 -13 -3 -75 -3 -89c0 -8 2 -51 2 -60c0 -43 -18 -94 -71 -133c-37 -28 -70 -37 -121 -37c-90 0 -123 19 -150 45c-47 44 -48 88 -49 132c0 25 0 50 -1 75c0 13 -3 81 -3 96c0 25 2 50 2 75c0 10 2 57 2 68c0 4 -1 22 -1 27c0 12 2 24 2 37
c0 5 0 7 -1 25c-1 15 -1 26 -1 47c0 7 -2 42 -2 50zM77 843c0 22 19 23 27 23c5 0 27 -2 32 -2c6 0 36 1 43 1c3 0 11 0 16 -5s5 -9 5 -36c0 -3 1 -18 1 -22c0 -8 -1 -28 -7 -34c-5 -5 -9 -5 -26 -5c-10 0 -55 -1 -65 -1c-20 0 -24 15 -24 20v16c0 9 0 26 -1 34
c0 4 -1 7 -1 11zM234 801v5c0 5 -2 32 -2 38c0 19 9 22 25 22c8 0 51 -1 61 -1c2 0 15 1 18 1c14 0 16 -9 17 -14s0 -29 0 -34c0 -4 1 -21 1 -25c0 -20 -3 -28 -29 -29c-4 -1 -64 -2 -71 -2c-12 0 -17 5 -19 12c-1 3 -1 22 -1 27z" />
    <glyph glyph-name="Odieresis" unicode="&#xd6;" horiz-adv-x="437" 
d="M22 445c0 45 5 137 17 172c17 47 61 70 76 78c17 9 40 21 106 21c27 0 68 -4 93 -14c19 -7 45 -25 60 -44c36 -51 38 -110 40 -163c0 -28 0 -56 1 -84c1 -50 3 -100 3 -150c0 -108 -12 -181 -68 -228c-38 -31 -81 -42 -141 -42c-71 0 -114 28 -136 53
c-30 35 -34 57 -40 85c-8 38 -8 39 -8 91c0 19 -3 110 -3 130c0 6 1 36 1 43s-1 44 -1 52zM218 573c-2 0 -25 0 -33 -27c-5 -18 -5 -77 -5 -97c0 -39 1 -102 1 -142c0 -21 0 -102 3 -118c2 -12 9 -41 34 -41c28 0 40 24 40 55c0 11 -2 60 -2 72c0 16 2 98 2 116
c0 34 -1 93 -3 128c-1 16 -3 54 -37 54zM81 843c0 22 19 23 27 23c5 0 27 -2 32 -2c6 0 36 1 43 1c3 0 11 0 16 -5s5 -9 5 -36c0 -3 1 -18 1 -22c0 -8 -1 -28 -7 -34c-5 -5 -9 -5 -26 -5c-10 0 -55 -1 -65 -1c-20 0 -24 15 -24 20v16c0 9 0 26 -1 34c0 4 -1 7 -1 11z
M238 801v5c0 5 -2 32 -2 38c0 19 9 22 25 22c8 0 51 -1 61 -1c2 0 15 1 18 1c14 0 16 -9 17 -14s0 -29 0 -34c0 -4 1 -21 1 -25c0 -20 -3 -28 -29 -29c-4 -1 -64 -2 -71 -2c-12 0 -17 5 -19 12c-1 3 -1 22 -1 27z" />
    <glyph glyph-name="Egrave" unicode="&#xc8;" horiz-adv-x="375" 
d="M368 102v-57c0 -16 -2 -41 -31 -46c-7 -1 -79 0 -93 0c-6 0 -34 -1 -40 -1c-8 0 -44 3 -53 3c-12 0 -73 -3 -87 -3c-20 0 -36 12 -36 37c0 4 2 104 2 123c0 22 -4 130 -4 154c0 9 1 52 1 62c0 28 -1 57 -1 85c0 11 1 62 1 74c0 9 -2 51 -2 61v37c0 6 -1 32 -1 38
c0 20 8 36 35 36c3 0 12 0 21 -1c9 0 19 -1 22 -1c14 0 81 4 97 4c11 0 63 -2 75 -2c11 0 23 1 35 1c38 0 43 -17 43 -47c0 -10 -1 -20 -1 -30c0 -4 1 -27 1 -32c0 -33 -11 -44 -41 -44c-8 0 -17 1 -25 1h-17c-8 0 -16 1 -24 1c-6 0 -33 -1 -39 -1c-7 0 -16 0 -21 -11
c-4 -7 -4 -10 -3 -38c0 -5 -1 -25 -1 -30c0 -22 6 -30 37 -30c11 0 43 0 66 1c8 1 16 1 24 1c11 0 27 -1 36 -13c6 -8 6 -9 6 -65c0 -5 1 -26 1 -31c0 -37 -14 -49 -46 -49c-8 0 -49 3 -58 3c-51 0 -57 -8 -60 -22c-1 -5 1 -31 1 -37c0 -4 -1 -25 -1 -30c0 -38 9 -42 34 -41
c6 0 37 -1 44 -1c4 0 25 1 30 1c68 0 73 -3 73 -60zM58 865c0 10 10 13 15 13c3 0 5 -1 8 -1c7 -1 36 -1 45 -1h6c16 0 41 2 57 2c20 0 22 -6 29 -28c3 -9 19 -52 23 -60c3 -6 4 -9 4 -13c0 -10 -10 -13 -21 -13c-5 -1 -27 1 -33 1c-5 0 -31 -1 -36 -1c-7 0 -8 2 -15 10
c-3 4 -6 7 -10 10c-9 9 -51 54 -61 64c-5 4 -11 9 -11 17z" />
    <glyph glyph-name="Acircumflex" unicode="&#xc2;" horiz-adv-x="417" 
d="M-2 22c0 20 7 53 13 79c9 39 16 78 22 117c4 30 7 59 13 88c2 16 6 32 10 47c7 36 13 72 21 107c5 24 10 48 16 72c7 33 15 67 21 101l3 21s3 14 4 21c2 14 4 31 23 31c10 0 58 -2 68 -2s54 2 64 2c13 0 23 0 29 -15c5 -11 13 -84 17 -100c1 -9 4 -17 5 -26
c2 -11 4 -22 6 -32c3 -18 7 -36 11 -54c19 -84 40 -236 42 -254c5 -39 10 -78 18 -117c3 -15 6 -31 9 -46c2 -6 6 -28 6 -38c0 -15 -10 -24 -27 -24c-7 0 -39 2 -46 2c-9 0 -48 -4 -57 -4c-34 0 -35 14 -35 35c0 5 -2 30 -2 35c-1 21 -2 53 -38 53c-5 0 -8 -1 -16 -2
c-11 -3 -15 -4 -21 -14c-7 -13 -7 -15 -9 -70c-1 -15 -2 -35 -36 -35c-3 0 -11 1 -19 2s-14 1 -31 1c-10 0 -20 0 -30 -1c-16 -2 -18 -2 -31 -2c-21 0 -23 14 -23 22zM210 449c-3 0 -8 -37 -9 -40c-2 -19 -18 -110 -18 -119c0 -13 13 -16 27 -16c10 0 27 0 27 19
c0 9 -18 134 -19 139c0 12 -4 17 -8 17zM83 778c0 5 1 7 10 17c5 6 9 11 12 17c4 7 27 38 32 45c5 8 13 19 25 19c2 0 17 -1 20 -1c5 0 27 -1 33 -1s36 3 43 3c22 0 29 -12 35 -23c12 -18 27 -38 40 -55c4 -6 12 -16 12 -25c0 -8 -8 -11 -16 -11c-4 0 -23 1 -27 1
c-9 0 -40 -2 -40 -2c-4 0 -9 -1 -13 -1c-16 0 -22 19 -25 25c-1 4 -4 12 -12 12c-5 0 -9 -5 -11 -9c-3 -6 -2 -12 -5 -17c-1 -2 -5 -10 -14 -10c-4 0 -33 2 -40 2c-5 0 -31 -1 -36 -1c-10 0 -23 0 -23 15z" />
    <glyph glyph-name="twosuperior" unicode="&#xb2;" horiz-adv-x="292" 
d="M89 534h-39c-26 0 -26 5 -26 37c0 18 8 74 9 81c7 22 23 41 45 52c16 8 44 14 60 14c17 -1 34 -2 49 -7c5 -2 25 -11 29 -13c18 -11 49 -43 49 -116c0 -7 -1 -33 -3 -40c0 -3 -1 -5 -2 -8c0 -3 0 -6 -1 -10c-1 -5 -9 -30 -18 -45c-5 -10 -11 -20 -16 -31
c-15 -30 -41 -62 -56 -76c-2 -1 -4 -3 -4 -4c0 -2 3 -2 18 -2c4 0 23 -1 27 -1c5 0 26 2 31 2c17 0 22 -6 22 -23c0 -4 -2 -25 -2 -29c0 -3 1 -16 1 -19c0 -15 -1 -29 -19 -29c-4 0 -7 1 -11 1c-12 2 -45 2 -46 2c-7 0 -40 -1 -48 -1c-20 0 -39 1 -59 1c-6 0 -36 -1 -43 -1
c-14 0 -18 6 -17 27c0 6 -1 35 -1 41c0 13 2 15 15 25c4 4 9 8 13 12c12 11 47 50 54 60c4 6 8 13 12 19c6 9 12 18 18 26c6 10 12 20 17 30c9 16 17 30 17 80c0 9 0 34 -25 34s-31 -25 -31 -50c0 -3 2 -17 2 -20c0 -2 -1 -18 -21 -19z" />
    <glyph glyph-name="Ntilde" unicode="&#xd1;" horiz-adv-x="479" 
d="M27 95v71c0 12 -1 70 -1 83c0 28 0 94 1 121c0 4 2 40 2 45c0 26 -2 53 -2 79c0 13 2 76 2 90c0 13 -3 76 -3 90c0 15 6 25 19 27c2 1 20 1 24 1h26c10 0 59 2 64 2c19 0 30 -2 44 -40c4 -10 19 -62 22 -74c7 -20 14 -39 21 -58c6 -20 11 -41 17 -61c3 -14 23 -79 25 -94
c3 -13 8 -15 8 -15c3 0 3 22 3 24c0 7 -3 58 -4 82c-1 19 -2 38 -2 57c0 8 1 47 1 56c0 20 -2 40 -5 70c0 7 -1 19 -1 28c0 14 7 23 19 23c4 0 22 -1 26 -1h35c14 0 28 0 42 2c5 1 10 2 16 2c14 0 25 -6 25 -25v-49c-1 -37 -2 -118 -2 -157c0 -10 1 -61 1 -73
c0 -16 -3 -92 -3 -110c0 -34 3 -68 3 -102c0 -23 -1 -46 -1 -68c0 -11 2 -67 2 -80c0 -35 -12 -41 -28 -41c-4 0 -9 0 -14 1c-12 1 -23 1 -34 1c-18 0 -30 0 -42 -2c-5 0 -15 -2 -17 -2c-20 0 -25 15 -43 70c-8 27 -21 70 -29 97c-4 11 -8 23 -11 34c-3 10 -6 21 -9 31
c-4 14 -9 27 -13 41s-25 88 -26 88c-2 0 -4 -17 -4 -28c0 -5 0 -10 1 -15c1 -36 2 -72 2 -99c0 -11 -1 -66 -1 -78c0 -24 0 -30 5 -84c0 -7 1 -21 1 -28c0 -29 -20 -29 -30 -29c-9 0 -54 1 -64 1c-6 0 -35 -1 -42 -1c-28 0 -28 21 -28 33c0 9 2 54 2 64zM285 852
c3 0 11 0 18 7c3 4 5 9 9 10h2c2 0 4 0 6 -1c8 -2 21 -4 39 -6c27 -4 35 -5 35 -13c0 0 -7 -28 -21 -46c-28 -35 -65 -37 -83 -37c-17 0 -34 3 -50 7c-16 3 -38 8 -49 8c-5 0 -10 -1 -14 -3c-6 -4 -10 -13 -17 -14h-2c-1 0 -25 4 -30 5c-5 0 -27 5 -32 5c-12 1 -22 2 -22 10
c0 2 4 14 5 17c14 44 49 65 94 65c10 0 19 -1 29 -2c17 -3 33 -7 50 -9c4 0 29 -3 33 -3z" />
    <glyph glyph-name="ccedilla" unicode="&#xe7;" horiz-adv-x="271" 
d="M189 566c12 0 32 -1 44 -1c29 0 28 -24 28 -34c-1 -10 0 -60 0 -72c0 -21 0 -44 -29 -46c-3 0 -19 1 -23 1c-13 0 -22 -11 -23 -13c-12 -16 -19 -47 -19 -114c0 -95 4 -129 50 -129c3 0 19 2 22 2c23 0 23 -25 23 -31c0 -9 -3 -49 -3 -58c0 -5 1 -31 1 -37
c0 -35 -28 -37 -46 -37c-12 0 -23 1 -35 1c-2 1 -12 0 -14 0c-5 0 -16 0 -35 5c-21 5 -35 11 -54 30c-39 37 -44 65 -51 98c-6 32 -10 53 -10 123c0 71 0 149 29 222c17 43 50 90 145 90zM106 -68c0 30 30 51 58 51c34 0 61 -27 61 -65c0 -4 0 -9 -1 -13
c-6 -47 -29 -69 -55 -97c-5 -5 -15 -15 -24 -15c-12 0 -25 35 -25 39s4 8 7 11c3 4 7 6 10 9c4 5 7 11 7 17c0 9 -3 12 -16 22c-10 7 -22 23 -22 41z" />
    <glyph glyph-name="Ograve" unicode="&#xd2;" horiz-adv-x="437" 
d="M22 445c0 45 5 137 17 172c17 47 61 70 76 78c17 9 40 21 106 21c27 0 68 -4 93 -14c19 -7 45 -25 60 -44c36 -51 38 -110 40 -163c0 -28 0 -56 1 -84c1 -50 3 -100 3 -150c0 -108 -12 -181 -68 -228c-38 -31 -81 -42 -141 -42c-71 0 -114 28 -136 53
c-30 35 -34 57 -40 85c-8 38 -8 39 -8 91c0 19 -3 110 -3 130c0 6 1 36 1 43s-1 44 -1 52zM218 573c-2 0 -25 0 -33 -27c-5 -18 -5 -77 -5 -97c0 -39 1 -102 1 -142c0 -21 0 -102 3 -118c2 -12 9 -41 34 -41c28 0 40 24 40 55c0 11 -2 60 -2 72c0 16 2 98 2 116
c0 34 -1 93 -3 128c-1 16 -3 54 -37 54zM90 865c0 10 10 13 15 13c3 0 5 -1 8 -1c7 -1 36 -1 45 -1h6c16 0 41 2 57 2c20 0 22 -6 29 -28c3 -9 19 -52 23 -60c3 -6 4 -9 4 -13c0 -10 -10 -13 -21 -13c-5 -1 -27 1 -33 1c-5 0 -31 -1 -36 -1c-7 0 -8 2 -15 10
c-3 4 -6 7 -10 10c-9 9 -51 54 -61 64c-5 4 -11 9 -11 17z" />
    <glyph glyph-name="onesuperior" unicode="&#xb9;" horiz-adv-x="292" 
d="M29 594c0 6 5 11 8 14c2 3 15 15 18 18c5 6 31 38 37 45c4 4 24 23 28 27c9 10 16 17 26 17c5 0 27 -2 32 -2h28c12 0 22 -1 22 -23v-16c-1 -18 -2 -42 -2 -60c0 -5 1 -28 1 -33c0 -6 -1 -36 -1 -43c0 -5 1 -30 1 -35s-1 -31 -1 -37c0 -9 1 -53 1 -63c0 -6 -2 -36 -2 -43
s2 -44 2 -53c0 -34 0 -41 -26 -41c-6 0 -36 1 -43 1h-27c-14 0 -19 7 -19 24c0 9 1 19 2 28v65c0 27 3 163 3 194c0 1 1 6 1 8c0 1 -1 2 -3 2c-3 0 -17 -18 -20 -22c-9 -13 -13 -19 -19 -19s-10 5 -16 11c-2 2 -13 11 -20 17c-4 3 -11 10 -11 19z" />
    <glyph glyph-name="Adieresis" unicode="&#xc4;" horiz-adv-x="417" 
d="M-2 22c0 20 7 53 13 79c9 39 16 78 22 117c4 30 7 59 13 88c2 16 6 32 10 47c7 36 13 72 21 107c5 24 10 48 16 72c7 33 15 67 21 101l3 21s3 14 4 21c2 14 4 31 23 31c10 0 58 -2 68 -2s54 2 64 2c13 0 23 0 29 -15c5 -11 13 -84 17 -100c1 -9 4 -17 5 -26
c2 -11 4 -22 6 -32c3 -18 7 -36 11 -54c19 -84 40 -236 42 -254c5 -39 10 -78 18 -117c3 -15 6 -31 9 -46c2 -6 6 -28 6 -38c0 -15 -10 -24 -27 -24c-7 0 -39 2 -46 2c-9 0 -48 -4 -57 -4c-34 0 -35 14 -35 35c0 5 -2 30 -2 35c-1 21 -2 53 -38 53c-5 0 -8 -1 -16 -2
c-11 -3 -15 -4 -21 -14c-7 -13 -7 -15 -9 -70c-1 -15 -2 -35 -36 -35c-3 0 -11 1 -19 2s-14 1 -31 1c-10 0 -20 0 -30 -1c-16 -2 -18 -2 -31 -2c-21 0 -23 14 -23 22zM210 449c-3 0 -8 -37 -9 -40c-2 -19 -18 -110 -18 -119c0 -13 13 -16 27 -16c10 0 27 0 27 19
c0 9 -18 134 -19 139c0 12 -4 17 -8 17zM78 843c0 22 19 23 27 23c5 0 27 -2 32 -2c6 0 36 1 43 1c3 0 11 0 16 -5s5 -9 5 -36c0 -3 1 -18 1 -22c0 -8 -1 -28 -7 -34c-5 -5 -9 -5 -26 -5c-10 0 -55 -1 -65 -1c-20 0 -24 15 -24 20v16c0 9 0 26 -1 34c0 4 -1 7 -1 11z
M235 801v5c0 5 -2 32 -2 38c0 19 9 22 25 22c8 0 51 -1 61 -1c2 0 15 1 18 1c14 0 16 -9 17 -14s0 -29 0 -34c0 -4 1 -21 1 -25c0 -20 -3 -28 -29 -29c-4 -1 -64 -2 -71 -2c-12 0 -17 5 -19 12c-1 3 -1 22 -1 27z" />
    <glyph glyph-name="Agrave" unicode="&#xc0;" horiz-adv-x="417" 
d="M-2 22c0 20 7 53 13 79c9 39 16 78 22 117c4 30 7 59 13 88c2 16 6 32 10 47c7 36 13 72 21 107c5 24 10 48 16 72c7 33 15 67 21 101l3 21s3 14 4 21c2 14 4 31 23 31c10 0 58 -2 68 -2s54 2 64 2c13 0 23 0 29 -15c5 -11 13 -84 17 -100c1 -9 4 -17 5 -26
c2 -11 4 -22 6 -32c3 -18 7 -36 11 -54c19 -84 40 -236 42 -254c5 -39 10 -78 18 -117c3 -15 6 -31 9 -46c2 -6 6 -28 6 -38c0 -15 -10 -24 -27 -24c-7 0 -39 2 -46 2c-9 0 -48 -4 -57 -4c-34 0 -35 14 -35 35c0 5 -2 30 -2 35c-1 21 -2 53 -38 53c-5 0 -8 -1 -16 -2
c-11 -3 -15 -4 -21 -14c-7 -13 -7 -15 -9 -70c-1 -15 -2 -35 -36 -35c-3 0 -11 1 -19 2s-14 1 -31 1c-10 0 -20 0 -30 -1c-16 -2 -18 -2 -31 -2c-21 0 -23 14 -23 22zM210 449c-3 0 -8 -37 -9 -40c-2 -19 -18 -110 -18 -119c0 -13 13 -16 27 -16c10 0 27 0 27 19
c0 9 -18 134 -19 139c0 12 -4 17 -8 17zM84 865c0 10 10 13 15 13c3 0 5 -1 8 -1c7 -1 36 -1 45 -1h6c16 0 41 2 57 2c20 0 22 -6 29 -28c3 -9 19 -52 23 -60c3 -6 4 -9 4 -13c0 -10 -10 -13 -21 -13c-5 -1 -27 1 -33 1c-5 0 -31 -1 -36 -1c-7 0 -8 2 -15 10
c-3 4 -6 7 -10 10c-9 9 -51 54 -61 64c-5 4 -11 9 -11 17z" />
    <glyph glyph-name="trademark" unicode="&#x2122;" horiz-adv-x="688" 
d="M674 706v-332h-82l4 177c0 16 1 35 6 68c-7 -28 -8 -33 -14 -54l-56 -191h-75l-59 192c-2 7 -12 43 -14 51c2 -16 5 -32 7 -66l4 -177h-81v332h106l76 -240l71 240h107zM187 639v-265h-84v265h-102v67h286v-67h-100z" />
    <glyph glyph-name="Icircumflex" unicode="&#xce;" horiz-adv-x="208" 
d="M25 667c0 29 7 39 32 39c7 0 40 -2 48 -2s49 2 58 2c23 0 24 -23 24 -29s-1 -13 -2 -19c-1 -12 -2 -25 -2 -37c0 -34 0 -67 -1 -101c0 -17 1 -45 1 -62c0 -6 -2 -34 -2 -41c0 -10 1 -60 1 -71s-2 -64 -2 -76c0 -9 1 -51 1 -60c0 -16 -3 -96 -3 -114c0 -14 1 -29 1 -43
c1 -4 2 -22 2 -26c0 -8 -4 -23 -24 -26c-4 -1 -28 0 -34 0c-11 0 -67 -1 -79 -1c-24 0 -24 25 -24 37v2c0 14 2 83 2 98c1 31 0 79 0 109c0 18 4 106 4 126c0 10 -2 59 -2 70c0 8 2 44 3 52c0 13 -1 75 -1 89c0 5 1 31 1 37c0 7 -2 39 -2 47zM-26 778c0 5 1 7 10 17
c5 6 9 11 12 17c4 7 27 38 32 45c5 8 13 19 25 19c2 0 17 -1 20 -1c5 0 27 -1 33 -1s36 3 43 3c22 0 29 -12 35 -23c12 -18 27 -38 40 -55c4 -6 12 -16 12 -25c0 -8 -8 -11 -16 -11c-4 0 -23 1 -27 1c-9 0 -40 -2 -40 -2c-4 0 -9 -1 -13 -1c-16 0 -22 19 -25 25
c-1 4 -4 12 -12 12c-5 0 -9 -5 -11 -9c-3 -6 -2 -12 -5 -17c-1 -2 -5 -10 -14 -10c-4 0 -33 2 -40 2c-5 0 -31 -1 -36 -1c-10 0 -23 0 -23 15z" />
    <glyph glyph-name="Eacute" unicode="&#xc9;" horiz-adv-x="375" 
d="M368 102v-57c0 -16 -2 -41 -31 -46c-7 -1 -79 0 -93 0c-6 0 -34 -1 -40 -1c-8 0 -44 3 -53 3c-12 0 -73 -3 -87 -3c-20 0 -36 12 -36 37c0 4 2 104 2 123c0 22 -4 130 -4 154c0 9 1 52 1 62c0 28 -1 57 -1 85c0 11 1 62 1 74c0 9 -2 51 -2 61v37c0 6 -1 32 -1 38
c0 20 8 36 35 36c3 0 12 0 21 -1c9 0 19 -1 22 -1c14 0 81 4 97 4c11 0 63 -2 75 -2c11 0 23 1 35 1c38 0 43 -17 43 -47c0 -10 -1 -20 -1 -30c0 -4 1 -27 1 -32c0 -33 -11 -44 -41 -44c-8 0 -17 1 -25 1h-17c-8 0 -16 1 -24 1c-6 0 -33 -1 -39 -1c-7 0 -16 0 -21 -11
c-4 -7 -4 -10 -3 -38c0 -5 -1 -25 -1 -30c0 -22 6 -30 37 -30c11 0 43 0 66 1c8 1 16 1 24 1c11 0 27 -1 36 -13c6 -8 6 -9 6 -65c0 -5 1 -26 1 -31c0 -37 -14 -49 -46 -49c-8 0 -49 3 -58 3c-51 0 -57 -8 -60 -22c-1 -5 1 -31 1 -37c0 -4 -1 -25 -1 -30c0 -38 9 -42 34 -41
c6 0 37 -1 44 -1c4 0 25 1 30 1c68 0 73 -3 73 -60zM130 778c0 6 28 73 31 83c4 11 6 16 25 16c10 0 58 -1 68 -1c14 0 27 0 40 1c2 1 5 1 7 1c9 0 15 -5 15 -12s-2 -10 -19 -27c-10 -11 -57 -59 -63 -66c-5 -6 -7 -9 -12 -9c-7 0 -38 1 -46 1c-3 0 -22 -1 -26 -1
s-20 0 -20 14z" />
    <glyph glyph-name="registered" unicode="&#xae;" horiz-adv-x="833" 
d="M250 586h163c40 0 77 -1 108 -11c58 -18 81 -71 81 -113c0 -68 -51 -92 -80 -105c27 -17 41 -29 51 -86c10 -64 16 -101 39 -143h-126c-14 28 -19 59 -25 99c-13 90 -15 93 -101 93v-192h-110v458zM360 502v-95h48c33 0 51 1 64 9c14 8 20 25 20 40s-6 33 -24 41
c-13 5 -24 5 -75 5h-33zM773 354c0 -198 -156 -357 -358 -357c-185 0 -354 145 -354 356c0 205 163 356 355 356c205 0 357 -162 357 -355zM416 29c184 0 325 145 325 325c0 177 -140 323 -323 323s-325 -146 -325 -324c0 -182 145 -324 323 -324z" />
    <glyph glyph-name="Otilde" unicode="&#xd5;" horiz-adv-x="437" 
d="M22 445c0 45 5 137 17 172c17 47 61 70 76 78c17 9 40 21 106 21c27 0 68 -4 93 -14c19 -7 45 -25 60 -44c36 -51 38 -110 40 -163c0 -28 0 -56 1 -84c1 -50 3 -100 3 -150c0 -108 -12 -181 -68 -228c-38 -31 -81 -42 -141 -42c-71 0 -114 28 -136 53
c-30 35 -34 57 -40 85c-8 38 -8 39 -8 91c0 19 -3 110 -3 130c0 6 1 36 1 43s-1 44 -1 52zM218 573c-2 0 -25 0 -33 -27c-5 -18 -5 -77 -5 -97c0 -39 1 -102 1 -142c0 -21 0 -102 3 -118c2 -12 9 -41 34 -41c28 0 40 24 40 55c0 11 -2 60 -2 72c0 16 2 98 2 116
c0 34 -1 93 -3 128c-1 16 -3 54 -37 54zM265 852c3 0 11 0 18 7c3 4 5 9 9 10h2c2 0 4 0 6 -1c8 -2 21 -4 39 -6c27 -4 35 -5 35 -13c0 0 -7 -28 -21 -46c-28 -35 -65 -37 -83 -37c-17 0 -34 3 -50 7c-16 3 -38 8 -49 8c-5 0 -10 -1 -14 -3c-6 -4 -10 -13 -17 -14h-2
c-1 0 -25 4 -30 5c-5 0 -27 5 -32 5c-12 1 -22 2 -22 10c0 2 4 14 5 17c14 44 49 65 94 65c10 0 19 -1 29 -2c17 -3 33 -7 50 -9c4 0 29 -3 33 -3z" />
    <glyph glyph-name="eth" unicode="&#xf0;" 
d="M176 558l2 2c-12 24 -15 31 -34 31c-4 0 -42 -2 -45 -2c-4 -1 -7 -1 -11 -1c-7 0 -11 2 -13 5c-7 5 -17 40 -17 42c0 8 4 16 15 16c3 0 17 -1 20 -1c17 0 19 1 19 2c0 3 -6 9 -11 13c-5 5 -9 9 -9 19c0 15 9 23 25 23c8 0 45 -1 54 -1c7 0 20 1 35 3c5 0 10 1 15 1
c25 0 32 -8 40 -19c1 -1 15 -19 19 -28c5 -8 6 -10 15 -10c6 0 35 2 41 2s11 -1 15 -5c5 -6 12 -34 12 -39c0 -14 -11 -15 -18 -16h-18c-6 0 -6 -1 -6 -2c0 -2 2 -5 4 -8c8 -15 38 -82 47 -150c6 -46 7 -162 7 -167c0 -26 -4 -105 -6 -119c-12 -115 -90 -156 -164 -156
c-39 0 -106 0 -151 60c-21 27 -33 78 -33 81c-9 40 -9 122 -9 182c0 80 0 147 50 203c22 24 49 41 90 41c4 0 12 -1 20 -2zM195 424c-32 0 -31 -33 -29 -90c1 -21 0 -126 0 -149c0 -36 11 -48 29 -48c34 0 34 43 34 55c0 18 -3 108 -3 128c0 7 1 39 1 47c0 18 -1 57 -32 57z
" />
    <glyph glyph-name="Ucircumflex" unicode="&#xdb;" horiz-adv-x="437" 
d="M21 668c0 38 23 40 27 40c9 0 56 -2 66 -2c5 0 30 2 35 2c12 0 34 -3 34 -29c0 -30 -2 -80 -2 -110c0 -11 1 -64 1 -76c0 -16 -3 -94 -3 -112c0 -10 3 -57 3 -68c0 -16 -1 -42 -1 -59c0 -8 -1 -51 -1 -61c0 -26 8 -42 36 -42c26 0 42 9 42 42v52c0 6 -1 23 -1 32
c-1 6 -1 60 -1 70c0 8 2 46 2 54c0 15 -2 86 -2 103c0 12 1 76 1 90c0 8 -2 45 -2 53v17c0 3 -1 17 -1 21c0 19 16 24 32 24c7 0 44 -1 52 -1c6 0 34 1 40 1c7 0 37 0 37 -37c0 -4 -2 -28 -2 -33c0 -11 3 -62 3 -74c0 -7 -1 -43 -1 -51c0 -9 2 -51 2 -61s-3 -60 -3 -71
c0 -10 2 -61 2 -72c0 -13 -3 -75 -3 -89c0 -8 2 -51 2 -60c0 -43 -18 -94 -71 -133c-37 -28 -70 -37 -121 -37c-90 0 -123 19 -150 45c-47 44 -48 88 -49 132c0 25 0 50 -1 75c0 13 -3 81 -3 96c0 25 2 50 2 75c0 10 2 57 2 68c0 4 -1 22 -1 27c0 12 2 24 2 37
c0 5 0 7 -1 25c-1 15 -1 26 -1 47c0 7 -2 42 -2 50zM89 778c0 5 1 7 10 17c5 6 9 11 12 17c4 7 27 38 32 45c5 8 13 19 25 19c2 0 17 -1 20 -1c5 0 27 -1 33 -1s36 3 43 3c22 0 29 -12 35 -23c12 -18 27 -38 40 -55c4 -6 12 -16 12 -25c0 -8 -8 -11 -16 -11
c-4 0 -23 1 -27 1c-9 0 -40 -2 -40 -2c-4 0 -9 -1 -13 -1c-16 0 -22 19 -25 25c-1 4 -4 12 -12 12c-5 0 -9 -5 -11 -9c-3 -6 -2 -12 -5 -17c-1 -2 -5 -10 -14 -10c-4 0 -33 2 -40 2c-5 0 -31 -1 -36 -1c-10 0 -23 0 -23 15z" />
    <glyph glyph-name="Atilde" unicode="&#xc3;" horiz-adv-x="417" 
d="M-2 22c0 20 7 53 13 79c9 39 16 78 22 117c4 30 7 59 13 88c2 16 6 32 10 47c7 36 13 72 21 107c5 24 10 48 16 72c7 33 15 67 21 101l3 21s3 14 4 21c2 14 4 31 23 31c10 0 58 -2 68 -2s54 2 64 2c13 0 23 0 29 -15c5 -11 13 -84 17 -100c1 -9 4 -17 5 -26
c2 -11 4 -22 6 -32c3 -18 7 -36 11 -54c19 -84 40 -236 42 -254c5 -39 10 -78 18 -117c3 -15 6 -31 9 -46c2 -6 6 -28 6 -38c0 -15 -10 -24 -27 -24c-7 0 -39 2 -46 2c-9 0 -48 -4 -57 -4c-34 0 -35 14 -35 35c0 5 -2 30 -2 35c-1 21 -2 53 -38 53c-5 0 -8 -1 -16 -2
c-11 -3 -15 -4 -21 -14c-7 -13 -7 -15 -9 -70c-1 -15 -2 -35 -36 -35c-3 0 -11 1 -19 2s-14 1 -31 1c-10 0 -20 0 -30 -1c-16 -2 -18 -2 -31 -2c-21 0 -23 14 -23 22zM210 449c-3 0 -8 -37 -9 -40c-2 -19 -18 -110 -18 -119c0 -13 13 -16 27 -16c10 0 27 0 27 19
c0 9 -18 134 -19 139c0 12 -4 17 -8 17zM259 852c3 0 11 0 18 7c3 4 5 9 9 10h2c2 0 4 0 6 -1c8 -2 21 -4 39 -6c27 -4 35 -5 35 -13c0 0 -7 -28 -21 -46c-28 -35 -65 -37 -83 -37c-17 0 -34 3 -50 7c-16 3 -38 8 -49 8c-5 0 -10 -1 -14 -3c-6 -4 -10 -13 -17 -14h-2
c-1 0 -25 4 -30 5c-5 0 -27 5 -32 5c-12 1 -22 2 -22 10c0 2 4 14 5 17c14 44 49 65 94 65c10 0 19 -1 29 -2c17 -3 33 -7 50 -9c4 0 29 -3 33 -3z" />
    <glyph glyph-name="Ecircumflex" unicode="&#xca;" horiz-adv-x="375" 
d="M368 102v-57c0 -16 -2 -41 -31 -46c-7 -1 -79 0 -93 0c-6 0 -34 -1 -40 -1c-8 0 -44 3 -53 3c-12 0 -73 -3 -87 -3c-20 0 -36 12 -36 37c0 4 2 104 2 123c0 22 -4 130 -4 154c0 9 1 52 1 62c0 28 -1 57 -1 85c0 11 1 62 1 74c0 9 -2 51 -2 61v37c0 6 -1 32 -1 38
c0 20 8 36 35 36c3 0 12 0 21 -1c9 0 19 -1 22 -1c14 0 81 4 97 4c11 0 63 -2 75 -2c11 0 23 1 35 1c38 0 43 -17 43 -47c0 -10 -1 -20 -1 -30c0 -4 1 -27 1 -32c0 -33 -11 -44 -41 -44c-8 0 -17 1 -25 1h-17c-8 0 -16 1 -24 1c-6 0 -33 -1 -39 -1c-7 0 -16 0 -21 -11
c-4 -7 -4 -10 -3 -38c0 -5 -1 -25 -1 -30c0 -22 6 -30 37 -30c11 0 43 0 66 1c8 1 16 1 24 1c11 0 27 -1 36 -13c6 -8 6 -9 6 -65c0 -5 1 -26 1 -31c0 -37 -14 -49 -46 -49c-8 0 -49 3 -58 3c-51 0 -57 -8 -60 -22c-1 -5 1 -31 1 -37c0 -4 -1 -25 -1 -30c0 -38 9 -42 34 -41
c6 0 37 -1 44 -1c4 0 25 1 30 1c68 0 73 -3 73 -60zM57 778c0 5 1 7 10 17c5 6 9 11 12 17c4 7 27 38 32 45c5 8 13 19 25 19c2 0 17 -1 20 -1c5 0 27 -1 33 -1s36 3 43 3c22 0 29 -12 35 -23c12 -18 27 -38 40 -55c4 -6 12 -16 12 -25c0 -8 -8 -11 -16 -11
c-4 0 -23 1 -27 1c-9 0 -40 -2 -40 -2c-4 0 -9 -1 -13 -1c-16 0 -22 19 -25 25c-1 4 -4 12 -12 12c-5 0 -9 -5 -11 -9c-3 -6 -2 -12 -5 -17c-1 -2 -5 -10 -14 -10c-4 0 -33 2 -40 2c-5 0 -31 -1 -36 -1c-10 0 -23 0 -23 15z" />
    <glyph glyph-name="Ocircumflex" unicode="&#xd4;" horiz-adv-x="437" 
d="M22 445c0 45 5 137 17 172c17 47 61 70 76 78c17 9 40 21 106 21c27 0 68 -4 93 -14c19 -7 45 -25 60 -44c36 -51 38 -110 40 -163c0 -28 0 -56 1 -84c1 -50 3 -100 3 -150c0 -108 -12 -181 -68 -228c-38 -31 -81 -42 -141 -42c-71 0 -114 28 -136 53
c-30 35 -34 57 -40 85c-8 38 -8 39 -8 91c0 19 -3 110 -3 130c0 6 1 36 1 43s-1 44 -1 52zM218 573c-2 0 -25 0 -33 -27c-5 -18 -5 -77 -5 -97c0 -39 1 -102 1 -142c0 -21 0 -102 3 -118c2 -12 9 -41 34 -41c28 0 40 24 40 55c0 11 -2 60 -2 72c0 16 2 98 2 116
c0 34 -1 93 -3 128c-1 16 -3 54 -37 54zM89 778c0 5 1 7 10 17c5 6 9 11 12 17c4 7 27 38 32 45c5 8 13 19 25 19c2 0 17 -1 20 -1c5 0 27 -1 33 -1s36 3 43 3c22 0 29 -12 35 -23c12 -18 27 -38 40 -55c4 -6 12 -16 12 -25c0 -8 -8 -11 -16 -11c-4 0 -23 1 -27 1
c-9 0 -40 -2 -40 -2c-4 0 -9 -1 -13 -1c-16 0 -22 19 -25 25c-1 4 -4 12 -12 12c-5 0 -9 -5 -11 -9c-3 -6 -2 -12 -5 -17c-1 -2 -5 -10 -14 -10c-4 0 -33 2 -40 2c-5 0 -31 -1 -36 -1c-10 0 -23 0 -23 15z" />
    <glyph glyph-name="copyright" unicode="&#xa9;" horiz-adv-x="833" 
d="M773 354c0 -198 -155 -357 -357 -357c-185 0 -355 145 -355 356c0 204 164 356 356 356c205 0 356 -162 356 -355zM417 29c184 0 324 145 324 324c0 178 -139 324 -322 324c-184 0 -326 -146 -326 -324c0 -182 146 -324 324 -324zM534 270l87 -80
c-64 -67 -129 -84 -196 -84c-164 0 -250 115 -250 247c0 136 92 251 250 251c110 0 167 -55 196 -85l-87 -84c-30 29 -62 49 -110 49c-89 0 -125 -66 -125 -130c0 -77 49 -129 127 -129c60 0 92 30 108 45z" />
    <glyph glyph-name="Iacute" unicode="&#xcd;" horiz-adv-x="208" 
d="M25 667c0 29 7 39 32 39c7 0 40 -2 48 -2s49 2 58 2c23 0 24 -23 24 -29s-1 -13 -2 -19c-1 -12 -2 -25 -2 -37c0 -34 0 -67 -1 -101c0 -17 1 -45 1 -62c0 -6 -2 -34 -2 -41c0 -10 1 -60 1 -71s-2 -64 -2 -76c0 -9 1 -51 1 -60c0 -16 -3 -96 -3 -114c0 -14 1 -29 1 -43
c1 -4 2 -22 2 -26c0 -8 -4 -23 -24 -26c-4 -1 -28 0 -34 0c-11 0 -67 -1 -79 -1c-24 0 -24 25 -24 37v2c0 14 2 83 2 98c1 31 0 79 0 109c0 18 4 106 4 126c0 10 -2 59 -2 70c0 8 2 44 3 52c0 13 -1 75 -1 89c0 5 1 31 1 37c0 7 -2 39 -2 47zM47 778c0 6 28 73 31 83
c4 11 6 16 25 16c10 0 58 -1 68 -1c14 0 27 0 40 1c2 1 5 1 7 1c9 0 15 -5 15 -12s-2 -10 -19 -27c-10 -11 -57 -59 -63 -66c-5 -6 -7 -9 -12 -9c-7 0 -38 1 -46 1c-3 0 -22 -1 -26 -1s-20 0 -20 14z" />
    <glyph glyph-name="Aacute" unicode="&#xc1;" horiz-adv-x="417" 
d="M-2 22c0 20 7 53 13 79c9 39 16 78 22 117c4 30 7 59 13 88c2 16 6 32 10 47c7 36 13 72 21 107c5 24 10 48 16 72c7 33 15 67 21 101l3 21s3 14 4 21c2 14 4 31 23 31c10 0 58 -2 68 -2s54 2 64 2c13 0 23 0 29 -15c5 -11 13 -84 17 -100c1 -9 4 -17 5 -26
c2 -11 4 -22 6 -32c3 -18 7 -36 11 -54c19 -84 40 -236 42 -254c5 -39 10 -78 18 -117c3 -15 6 -31 9 -46c2 -6 6 -28 6 -38c0 -15 -10 -24 -27 -24c-7 0 -39 2 -46 2c-9 0 -48 -4 -57 -4c-34 0 -35 14 -35 35c0 5 -2 30 -2 35c-1 21 -2 53 -38 53c-5 0 -8 -1 -16 -2
c-11 -3 -15 -4 -21 -14c-7 -13 -7 -15 -9 -70c-1 -15 -2 -35 -36 -35c-3 0 -11 1 -19 2s-14 1 -31 1c-10 0 -20 0 -30 -1c-16 -2 -18 -2 -31 -2c-21 0 -23 14 -23 22zM210 449c-3 0 -8 -37 -9 -40c-2 -19 -18 -110 -18 -119c0 -13 13 -16 27 -16c10 0 27 0 27 19
c0 9 -18 134 -19 139c0 12 -4 17 -8 17zM156 778c0 6 28 73 31 83c4 11 6 16 25 16c10 0 58 -1 68 -1c14 0 27 0 40 1c2 1 5 1 7 1c9 0 15 -5 15 -12s-2 -10 -19 -27c-10 -11 -57 -59 -63 -66c-5 -6 -7 -9 -12 -9c-7 0 -38 1 -46 1c-3 0 -22 -1 -26 -1s-20 0 -20 14z" />
    <glyph glyph-name="Thorn" unicode="&#xde;" horiz-adv-x="437" 
d="M25 598v20c-1 13 -3 39 -3 40c0 24 0 44 36 44c4 0 28 -1 33 -1c7 0 45 2 53 2c7 0 13 0 19 -2c14 -6 15 -14 15 -31c1 -21 5 -24 12 -27c9 -3 60 -5 70 -6c19 -2 38 -7 55 -16c53 -28 77 -71 92 -122c6 -20 15 -85 15 -133c0 -55 -9 -110 -36 -158
c-11 -18 -19 -27 -29 -37c-17 -17 -44 -44 -108 -44c-2 0 -13 1 -15 1c0 0 -20 -2 -21 -2c-7 -1 -28 -11 -28 -45c0 -8 3 -45 3 -51c0 -12 -1 -30 -38 -29c-1 0 -16 1 -19 1c-16 1 -31 1 -48 1c-6 0 -13 0 -20 -1c-5 0 -11 -1 -16 -1c-9 0 -23 3 -23 21v7c2 25 3 37 3 48
c0 9 -3 52 -3 62c0 11 2 63 2 75c0 15 -2 90 -2 107c0 11 1 67 1 79c0 11 -2 62 -2 74c0 4 2 107 2 124zM179 459v-27c0 -14 4 -101 4 -101c2 -23 3 -43 31 -43c43 0 48 60 48 77c0 7 -1 37 -1 44c-2 13 -9 43 -16 55c-8 16 -23 25 -39 25c-5 0 -27 -1 -27 -30z" />
    <glyph glyph-name="Uacute" unicode="&#xda;" horiz-adv-x="437" 
d="M21 668c0 38 23 40 27 40c9 0 56 -2 66 -2c5 0 30 2 35 2c12 0 34 -3 34 -29c0 -30 -2 -80 -2 -110c0 -11 1 -64 1 -76c0 -16 -3 -94 -3 -112c0 -10 3 -57 3 -68c0 -16 -1 -42 -1 -59c0 -8 -1 -51 -1 -61c0 -26 8 -42 36 -42c26 0 42 9 42 42v52c0 6 -1 23 -1 32
c-1 6 -1 60 -1 70c0 8 2 46 2 54c0 15 -2 86 -2 103c0 12 1 76 1 90c0 8 -2 45 -2 53v17c0 3 -1 17 -1 21c0 19 16 24 32 24c7 0 44 -1 52 -1c6 0 34 1 40 1c7 0 37 0 37 -37c0 -4 -2 -28 -2 -33c0 -11 3 -62 3 -74c0 -7 -1 -43 -1 -51c0 -9 2 -51 2 -61s-3 -60 -3 -71
c0 -10 2 -61 2 -72c0 -13 -3 -75 -3 -89c0 -8 2 -51 2 -60c0 -43 -18 -94 -71 -133c-37 -28 -70 -37 -121 -37c-90 0 -123 19 -150 45c-47 44 -48 88 -49 132c0 25 0 50 -1 75c0 13 -3 81 -3 96c0 25 2 50 2 75c0 10 2 57 2 68c0 4 -1 22 -1 27c0 12 2 24 2 37
c0 5 0 7 -1 25c-1 15 -1 26 -1 47c0 7 -2 42 -2 50zM162 778c0 6 28 73 31 83c4 11 6 16 25 16c10 0 58 -1 68 -1c14 0 27 0 40 1c2 1 5 1 7 1c9 0 15 -5 15 -12s-2 -10 -19 -27c-10 -11 -57 -59 -63 -66c-5 -6 -7 -9 -12 -9c-7 0 -38 1 -46 1c-3 0 -22 -1 -26 -1
s-20 0 -20 14z" />
    <glyph glyph-name="Aring" unicode="&#xc5;" horiz-adv-x="417" 
d="M-2 22c0 20 7 53 13 79c9 39 16 78 22 117c4 30 7 59 13 88c2 16 6 32 10 47c7 36 13 72 21 107c5 24 10 48 16 72c7 33 15 67 21 101l3 21s3 14 4 21c2 14 4 31 23 31c10 0 58 -2 68 -2s54 2 64 2c13 0 23 0 29 -15c5 -11 13 -84 17 -100c1 -9 4 -17 5 -26
c2 -11 4 -22 6 -32c3 -18 7 -36 11 -54c19 -84 40 -236 42 -254c5 -39 10 -78 18 -117c3 -15 6 -31 9 -46c2 -6 6 -28 6 -38c0 -15 -10 -24 -27 -24c-7 0 -39 2 -46 2c-9 0 -48 -4 -57 -4c-34 0 -35 14 -35 35c0 5 -2 30 -2 35c-1 21 -2 53 -38 53c-5 0 -8 -1 -16 -2
c-11 -3 -15 -4 -21 -14c-7 -13 -7 -15 -9 -70c-1 -15 -2 -35 -36 -35c-3 0 -11 1 -19 2s-14 1 -31 1c-10 0 -20 0 -30 -1c-16 -2 -18 -2 -31 -2c-21 0 -23 14 -23 22zM210 449c-3 0 -8 -37 -9 -40c-2 -19 -18 -110 -18 -119c0 -13 13 -16 27 -16c10 0 27 0 27 19
c0 9 -18 134 -19 139c0 12 -4 17 -8 17zM95 820c0 72 68 101 115 101c79 0 118 -58 118 -98c0 -68 -65 -103 -119 -103c-71 0 -114 47 -114 100zM208 862c-21 0 -53 -14 -53 -45c0 -23 24 -40 53 -40c48 0 56 32 56 45c0 16 -16 40 -56 40z" />
    <glyph glyph-name="Zcaron" unicode="&#x17d;" 
d="M26 671c0 30 19 34 34 34c6 0 33 -2 40 -2c6 0 35 1 42 1c13 0 79 -2 94 -2c46 0 56 0 66 1c9 0 17 1 25 1h27c26 0 28 -16 29 -56c0 -3 1 -33 1 -35c0 -16 -3 -21 -11 -36c-7 -15 -17 -39 -25 -58c-10 -26 -35 -83 -46 -106c-8 -16 -16 -31 -23 -46
c-7 -16 -38 -94 -45 -112c-6 -12 -11 -24 -16 -37c-3 -7 -15 -42 -18 -45c-4 -8 -4 -8 -4 -11c0 -5 3 -5 7 -4h25c6 0 34 2 41 2h33c7 0 44 3 52 3c25 0 32 -16 32 -29c0 -5 -1 -10 -1 -15c-1 -5 -1 -35 -1 -43c0 -5 1 -29 1 -35c0 -10 0 -40 -33 -40c-4 0 -9 1 -14 1
c-10 1 -21 1 -39 1c-9 0 -51 -1 -61 -1c-8 0 -48 2 -57 2c-12 0 -73 -2 -87 -2h-25c-3 0 -22 -1 -26 -1c-32 0 -33 22 -33 31c0 18 -1 55 -1 75c0 26 1 28 15 56c6 13 10 26 15 39c32 78 34 82 48 112c15 29 17 35 36 82c12 31 26 60 42 88c12 22 17 30 21 42c1 4 2 8 4 12
c4 8 5 9 5 12c0 7 -4 7 -6 7c-1 0 -7 -1 -8 -1c-9 0 -51 2 -61 2c-7 0 -39 -2 -46 -3h-19c-12 0 -29 0 -29 23c0 7 1 41 1 48s-1 38 -1 45zM123 875c10 0 20 1 30 2s14 1 17 1c4 0 11 0 17 -9c4 -6 5 -14 10 -21c2 -4 6 -7 11 -7c7 0 9 7 10 10c6 22 9 26 18 26
c5 0 28 -2 33 -2c6 0 33 1 39 1c12 0 29 0 29 -13c0 -6 -3 -8 -10 -17c-2 -3 -43 -60 -47 -68c-6 -8 -11 -15 -27 -15c-6 0 -32 1 -38 1c-12 0 -27 0 -39 -1c-5 -1 -10 -2 -15 -2c-20 0 -26 10 -31 17c-18 28 -21 32 -30 44c-20 25 -27 34 -27 44c0 6 6 10 17 10
c5 0 28 -1 33 -1z" />
    <glyph glyph-name="Eth" unicode="&#xd0;" horiz-adv-x="437" 
d="M1 379v15c0 4 0 8 -1 13c0 3 -1 6 -1 9c0 9 9 10 10 10c3 0 6 -1 9 -1c1 0 10 0 10 12c0 3 -1 13 -1 16c0 5 1 11 1 16c1 16 1 32 1 49c1 18 1 37 1 55c0 12 -3 72 -3 86c0 35 11 46 47 46c11 0 21 -1 31 -1c20 -1 39 -2 59 -2c11 0 68 2 80 2c65 0 102 -38 111 -50
c9 -10 10 -13 23 -40c5 -9 9 -17 13 -26c6 -13 13 -39 17 -63c1 -9 10 -112 10 -152c0 -19 -1 -38 -1 -56c-1 -21 -1 -24 -5 -50c-2 -17 -2 -35 -3 -52c-3 -46 -9 -62 -22 -95c-4 -11 -7 -22 -12 -32c-8 -17 -23 -37 -46 -53c-46 -32 -82 -33 -108 -34h-79
c-9 0 -54 -2 -64 -2c-24 0 -29 5 -35 11c-7 7 -15 15 -15 39c0 8 1 15 1 23c1 12 2 25 2 37c0 18 -4 106 -4 126c0 9 2 51 2 61c0 3 -1 15 -1 18s1 14 1 17c0 4 -1 12 -6 12c-1 0 -7 -1 -8 -1c-11 0 -15 5 -15 13c0 4 1 20 1 24zM183 301v-75c0 -47 0 -65 22 -65
c10 0 21 6 27 13c21 22 21 83 21 152c0 7 2 41 2 48c0 4 -5 79 -6 94c-1 18 -2 36 -11 60c-7 17 -15 26 -30 26c-21 0 -23 -15 -24 -24c-1 -6 0 -38 0 -45v-46c0 -12 2 -15 14 -15c3 0 19 2 22 2c11 0 14 -5 14 -14c0 -5 -2 -25 -2 -30v-24c0 -15 -10 -17 -19 -17
c-3 0 -16 2 -19 2c-5 0 -9 -3 -10 -6c-1 -1 0 -10 0 -12c0 -3 -1 -20 -1 -24z" />
    <glyph glyph-name="Yacute" unicode="&#xdd;" horiz-adv-x="417" 
d="M-3 679c0 19 13 24 23 24c4 0 14 -1 25 -1c10 -1 21 -2 25 -2c5 0 19 1 34 2c14 0 28 1 33 1c24 0 27 -15 32 -35c2 -12 3 -24 5 -36c2 -8 4 -16 5 -24c8 -30 13 -60 16 -79c1 -7 8 -44 11 -44c1 0 2 4 3 7c4 10 13 64 15 75c5 23 11 46 14 69c1 10 1 21 2 32
c1 14 3 36 35 36c9 0 49 -3 58 -3c4 0 15 1 26 1c11 1 22 1 26 1c10 0 31 0 31 -21c0 -4 -1 -11 -3 -19c-4 -11 -9 -23 -13 -34c-3 -10 -4 -21 -7 -32c-4 -17 -9 -34 -16 -51c-8 -23 -16 -46 -23 -69c-11 -35 -17 -71 -29 -106c-5 -14 -10 -28 -15 -41
c-26 -72 -26 -73 -26 -111c-1 -26 -2 -51 -2 -76c0 -15 0 -22 4 -88c0 -4 2 -25 2 -29c0 -5 0 -27 -32 -27c-7 0 -43 2 -51 2c-9 0 -51 -4 -56 -4c-7 0 -26 4 -26 31c0 5 3 31 3 36c0 10 -2 58 -2 69c0 15 4 89 4 105c0 10 -1 21 -3 30c-2 8 -14 45 -23 69
c-2 4 -14 38 -17 49c-8 29 -9 33 -16 50c-9 25 -40 118 -52 165c-4 15 -8 30 -13 45c-6 18 -7 24 -7 33zM151 778c0 6 28 73 31 83c4 11 6 16 25 16c10 0 58 -1 68 -1c14 0 27 0 40 1c2 1 5 1 7 1c9 0 15 -5 15 -12s-2 -10 -19 -27c-10 -11 -57 -59 -63 -66
c-5 -6 -7 -9 -12 -9c-7 0 -38 1 -46 1c-3 0 -22 -1 -26 -1s-20 0 -20 14z" />
    <glyph glyph-name="Ydieresis" unicode="&#x178;" horiz-adv-x="417" 
d="M-3 679c0 19 13 24 23 24c4 0 14 -1 25 -1c10 -1 21 -2 25 -2c5 0 19 1 34 2c14 0 28 1 33 1c24 0 27 -15 32 -35c2 -12 3 -24 5 -36c2 -8 4 -16 5 -24c8 -30 13 -60 16 -79c1 -7 8 -44 11 -44c1 0 2 4 3 7c4 10 13 64 15 75c5 23 11 46 14 69c1 10 1 21 2 32
c1 14 3 36 35 36c9 0 49 -3 58 -3c4 0 15 1 26 1c11 1 22 1 26 1c10 0 31 0 31 -21c0 -4 -1 -11 -3 -19c-4 -11 -9 -23 -13 -34c-3 -10 -4 -21 -7 -32c-4 -17 -9 -34 -16 -51c-8 -23 -16 -46 -23 -69c-11 -35 -17 -71 -29 -106c-5 -14 -10 -28 -15 -41
c-26 -72 -26 -73 -26 -111c-1 -26 -2 -51 -2 -76c0 -15 0 -22 4 -88c0 -4 2 -25 2 -29c0 -5 0 -27 -32 -27c-7 0 -43 2 -51 2c-9 0 -51 -4 -56 -4c-7 0 -26 4 -26 31c0 5 3 31 3 36c0 10 -2 58 -2 69c0 15 4 89 4 105c0 10 -1 21 -3 30c-2 8 -14 45 -23 69
c-2 4 -14 38 -17 49c-8 29 -9 33 -16 50c-9 25 -40 118 -52 165c-4 15 -8 30 -13 45c-6 18 -7 24 -7 33zM71 843c0 22 19 23 27 23c5 0 27 -2 32 -2c6 0 36 1 43 1c3 0 11 0 16 -5s5 -9 5 -36c0 -3 1 -18 1 -22c0 -8 -1 -28 -7 -34c-5 -5 -9 -5 -26 -5c-10 0 -55 -1 -65 -1
c-20 0 -24 15 -24 20v16c0 9 0 26 -1 34c0 4 -1 7 -1 11zM228 801v5c0 5 -2 32 -2 38c0 19 9 22 25 22c8 0 51 -1 61 -1c2 0 15 1 18 1c14 0 16 -9 17 -14s0 -29 0 -34c0 -4 1 -21 1 -25c0 -20 -3 -28 -29 -29c-4 -1 -64 -2 -71 -2c-12 0 -17 5 -19 12c-1 3 -1 22 -1 27z
" />
    <glyph glyph-name="Edieresis" unicode="&#xcb;" horiz-adv-x="375" 
d="M368 102v-57c0 -16 -2 -41 -31 -46c-7 -1 -79 0 -93 0c-6 0 -34 -1 -40 -1c-8 0 -44 3 -53 3c-12 0 -73 -3 -87 -3c-20 0 -36 12 -36 37c0 4 2 104 2 123c0 22 -4 130 -4 154c0 9 1 52 1 62c0 28 -1 57 -1 85c0 11 1 62 1 74c0 9 -2 51 -2 61v37c0 6 -1 32 -1 38
c0 20 8 36 35 36c3 0 12 0 21 -1c9 0 19 -1 22 -1c14 0 81 4 97 4c11 0 63 -2 75 -2c11 0 23 1 35 1c38 0 43 -17 43 -47c0 -10 -1 -20 -1 -30c0 -4 1 -27 1 -32c0 -33 -11 -44 -41 -44c-8 0 -17 1 -25 1h-17c-8 0 -16 1 -24 1c-6 0 -33 -1 -39 -1c-7 0 -16 0 -21 -11
c-4 -7 -4 -10 -3 -38c0 -5 -1 -25 -1 -30c0 -22 6 -30 37 -30c11 0 43 0 66 1c8 1 16 1 24 1c11 0 27 -1 36 -13c6 -8 6 -9 6 -65c0 -5 1 -26 1 -31c0 -37 -14 -49 -46 -49c-8 0 -49 3 -58 3c-51 0 -57 -8 -60 -22c-1 -5 1 -31 1 -37c0 -4 -1 -25 -1 -30c0 -38 9 -42 34 -41
c6 0 37 -1 44 -1c4 0 25 1 30 1c68 0 73 -3 73 -60zM50 843c0 22 19 23 27 23c5 0 27 -2 32 -2c6 0 36 1 43 1c3 0 11 0 16 -5s5 -9 5 -36c0 -3 1 -18 1 -22c0 -8 -1 -28 -7 -34c-5 -5 -9 -5 -26 -5c-10 0 -55 -1 -65 -1c-20 0 -24 15 -24 20v16c0 9 0 26 -1 34
c0 4 -1 7 -1 11zM207 801v5c0 5 -2 32 -2 38c0 19 9 22 25 22c8 0 51 -1 61 -1c2 0 15 1 18 1c14 0 16 -9 17 -14s0 -29 0 -34c0 -4 1 -21 1 -25c0 -20 -3 -28 -29 -29c-4 -1 -64 -2 -71 -2c-12 0 -17 5 -19 12c-1 3 -1 22 -1 27z" />
    <glyph glyph-name="mu" unicode="&#xb5;" 
d="M226 263v60c0 38 0 77 -1 115c0 11 -2 68 -2 81c0 16 0 36 28 36c1 0 23 -2 24 -2c7 -1 14 -1 21 -1c16 0 23 0 27 1c2 0 21 3 23 3c25 0 31 -14 31 -26c0 -3 -1 -17 -1 -21c0 -3 -1 -38 -1 -52c0 -7 1 -44 1 -52c1 -14 1 -77 1 -96c0 -17 -3 -102 -3 -122
c0 -9 2 -52 2 -62c0 -5 -1 -30 -1 -35c0 -8 3 -46 3 -54c0 -26 -8 -36 -28 -36c-6 0 -36 2 -43 2c-21 0 -35 -2 -40 -2c-5 -1 -11 -1 -16 -1c-15 0 -20 6 -21 9c-1 4 0 7 -1 11c-1 3 -2 7 -4 7s-4 -3 -6 -6c-9 -12 -16 -21 -30 -21c-4 0 -9 0 -12 3c-4 4 -5 11 -9 14
c-1 1 -4 2 -6 2c0 -13 1 -15 2 -32v-26c0 -2 2 -17 2 -20c0 -6 -3 -22 -26 -22c-5 0 -9 1 -14 1c-9 1 -18 2 -27 2c-8 0 -49 -3 -58 -3c-15 0 -23 9 -23 24c0 9 4 52 4 61c0 11 -1 22 -1 33c-1 13 -2 75 -2 89c-1 29 -3 87 -3 105c0 19 1 111 1 132c0 34 0 67 -1 100
c0 14 -2 37 -2 51c0 10 0 43 29 43c5 0 10 -1 15 -2c4 0 32 -1 37 -1c6 0 38 3 45 3c6 0 25 0 25 -27c0 -6 -1 -38 -1 -45c0 -13 3 -79 3 -94c0 -12 -3 -68 -3 -81c-1 -14 1 -85 1 -101c0 -6 -1 -35 -1 -42c0 -12 4 -27 31 -27c23 0 33 14 33 63c0 8 -2 51 -2 61z" />
    <glyph glyph-name="Scaron" unicode="&#x160;" horiz-adv-x="354" 
d="M14 41v50c0 5 -1 26 -1 31c0 3 2 19 2 23c1 8 0 16 3 22c4 7 23 17 31 17c5 0 6 -1 17 -8c5 -3 10 -5 15 -7c16 -8 33 -14 51 -14c49 0 51 44 51 49c0 24 -16 40 -44 66c-6 7 -13 13 -20 20c-9 9 -16 19 -23 29c-9 10 -18 19 -26 29c-14 17 -19 26 -28 45
c-17 33 -30 58 -30 119c0 66 9 91 21 112c9 18 39 50 41 52c13 11 63 35 135 35c18 0 70 -1 84 -9c18 -10 18 -22 18 -72v-49c0 -4 0 -14 -5 -21c-6 -9 -22 -17 -31 -17c-5 0 -7 1 -18 6s-28 10 -46 10c-30 0 -45 -14 -45 -40c0 -19 7 -27 21 -41c6 -6 15 -16 21 -22
c5 -5 31 -35 38 -41c26 -23 29 -26 49 -54c16 -23 17 -26 31 -59c11 -28 20 -51 20 -118c0 -23 -2 -91 -57 -141c-21 -19 -47 -38 -74 -45c-31 -8 -51 -9 -69 -9c-29 0 -43 3 -85 12c-30 7 -47 12 -47 40zM92 875c10 0 20 1 30 2s14 1 17 1c4 0 11 0 17 -9
c4 -6 5 -14 10 -21c2 -4 6 -7 11 -7c7 0 9 7 10 10c6 22 9 26 18 26c5 0 28 -2 33 -2c6 0 33 1 39 1c12 0 29 0 29 -13c0 -6 -3 -8 -10 -17c-2 -3 -43 -60 -47 -68c-6 -8 -11 -15 -27 -15c-6 0 -32 1 -38 1c-12 0 -27 0 -39 -1c-5 -1 -10 -2 -15 -2c-20 0 -26 10 -31 17
c-18 28 -21 32 -30 44c-20 25 -27 34 -27 44c0 6 6 10 17 10c5 0 28 -1 33 -1z" />
    <glyph glyph-name="aacute" unicode="&#xe1;" horiz-adv-x="375" 
d="M356 214v-73c0 -8 1 -45 1 -54c0 -7 -2 -42 -2 -50v-15c0 -19 -14 -23 -26 -23c-7 0 -42 1 -50 1c-9 1 -19 0 -28 -1c-5 0 -10 -1 -15 -1c-14 0 -14 6 -14 16c0 7 -3 11 -6 11s-15 -12 -18 -14c-11 -9 -29 -17 -57 -17c-35 0 -55 9 -70 19c-56 35 -64 130 -64 176
c0 72 13 123 36 153c32 43 79 49 98 49c22 0 30 -3 55 -15c2 -1 5 -2 8 -2c5 0 14 5 14 16c0 9 -3 24 -8 31c-5 8 -15 17 -57 17c-26 0 -49 -6 -64 -14c-11 -7 -13 -7 -17 -7c-9 0 -25 9 -27 18c-1 3 -2 15 -2 19c0 3 1 20 1 24c0 11 -1 21 -1 31c0 16 3 26 32 35
c40 13 57 13 78 13c6 0 35 1 41 1c25 0 91 -7 125 -31c27 -19 38 -41 38 -115c0 -7 -1 -41 -1 -49c0 -9 1 -53 1 -62c0 -29 -1 -58 -1 -87zM179 268c-6 0 -18 -4 -26 -19c-7 -14 -7 -23 -7 -51v-19c0 -41 11 -60 33 -60c25 0 31 30 31 33c1 4 1 66 1 76c0 26 -18 40 -32 40z
M142 608c0 5 3 10 5 15c3 8 18 48 22 57c1 3 3 7 4 11c4 11 6 17 27 17c7 0 40 -2 48 -2h16c7 0 41 2 49 2c9 0 15 -5 15 -12c0 -9 -4 -14 -21 -30c-6 -6 -11 -12 -17 -17c-10 -11 -27 -28 -29 -31c-4 -4 -21 -22 -24 -23s-37 0 -44 0c-4 0 -25 -1 -30 -1s-21 0 -21 14z" />
    <glyph glyph-name="acircumflex" unicode="&#xe2;" horiz-adv-x="375" 
d="M356 214v-73c0 -8 1 -45 1 -54c0 -7 -2 -42 -2 -50v-15c0 -19 -14 -23 -26 -23c-7 0 -42 1 -50 1c-9 1 -19 0 -28 -1c-5 0 -10 -1 -15 -1c-14 0 -14 6 -14 16c0 7 -3 11 -6 11s-15 -12 -18 -14c-11 -9 -29 -17 -57 -17c-35 0 -55 9 -70 19c-56 35 -64 130 -64 176
c0 72 13 123 36 153c32 43 79 49 98 49c22 0 30 -3 55 -15c2 -1 5 -2 8 -2c5 0 14 5 14 16c0 9 -3 24 -8 31c-5 8 -15 17 -57 17c-26 0 -49 -6 -64 -14c-11 -7 -13 -7 -17 -7c-9 0 -25 9 -27 18c-1 3 -2 15 -2 19c0 3 1 20 1 24c0 11 -1 21 -1 31c0 16 3 26 32 35
c40 13 57 13 78 13c6 0 35 1 41 1c25 0 91 -7 125 -31c27 -19 38 -41 38 -115c0 -7 -1 -41 -1 -49c0 -9 1 -53 1 -62c0 -29 -1 -58 -1 -87zM179 268c-6 0 -18 -4 -26 -19c-7 -14 -7 -23 -7 -51v-19c0 -41 11 -60 33 -60c25 0 31 30 31 33c1 4 1 66 1 76c0 26 -18 40 -32 40z
M68 606c0 7 5 12 10 19c5 6 9 13 14 19c9 13 24 33 32 46c6 9 12 18 27 18c4 0 23 -2 27 -2h30c5 0 27 2 32 2c9 0 14 0 19 -2c8 -3 11 -7 31 -38c7 -11 26 -37 29 -40c5 -6 12 -15 12 -23c0 -9 -9 -12 -15 -12c-7 0 -39 1 -46 1s-13 0 -20 -1c-5 -1 -10 -2 -14 -2
c-16 0 -21 13 -26 25c-1 4 -5 13 -13 13c-4 0 -8 -4 -11 -9c-2 -6 -2 -12 -5 -17c-1 -4 -5 -11 -13 -11c-5 0 -33 2 -39 2c-5 0 -30 -1 -35 -1c-23 0 -26 8 -26 13z" />
    <glyph glyph-name="adieresis" unicode="&#xe4;" horiz-adv-x="375" 
d="M356 214v-73c0 -8 1 -45 1 -54c0 -7 -2 -42 -2 -50v-15c0 -19 -14 -23 -26 -23c-7 0 -42 1 -50 1c-9 1 -19 0 -28 -1c-5 0 -10 -1 -15 -1c-14 0 -14 6 -14 16c0 7 -3 11 -6 11s-15 -12 -18 -14c-11 -9 -29 -17 -57 -17c-35 0 -55 9 -70 19c-56 35 -64 130 -64 176
c0 72 13 123 36 153c32 43 79 49 98 49c22 0 30 -3 55 -15c2 -1 5 -2 8 -2c5 0 14 5 14 16c0 9 -3 24 -8 31c-5 8 -15 17 -57 17c-26 0 -49 -6 -64 -14c-11 -7 -13 -7 -17 -7c-9 0 -25 9 -27 18c-1 3 -2 15 -2 19c0 3 1 20 1 24c0 11 -1 21 -1 31c0 16 3 26 32 35
c40 13 57 13 78 13c6 0 35 1 41 1c25 0 91 -7 125 -31c27 -19 38 -41 38 -115c0 -7 -1 -41 -1 -49c0 -9 1 -53 1 -62c0 -29 -1 -58 -1 -87zM179 268c-6 0 -18 -4 -26 -19c-7 -14 -7 -23 -7 -51v-19c0 -41 11 -60 33 -60c25 0 31 30 31 33c1 4 1 66 1 76c0 26 -18 40 -32 40z
M75 682c0 24 20 24 26 24c5 0 31 -2 37 -2c5 0 31 1 37 1c23 0 23 -11 23 -37c0 -3 1 -21 1 -25c0 0 -1 -23 -2 -26c-1 -2 -7 -15 -20 -15c-2 0 -13 1 -15 1c-6 0 -36 -1 -42 -1h-17c-26 0 -26 15 -26 33c0 7 -2 40 -2 47zM230 685c0 20 13 20 19 20c10 0 55 -1 66 -1
c2 0 16 1 20 1c17 0 17 -11 17 -23c0 -4 -1 -25 -1 -29c0 -8 1 -17 1 -25c0 -17 -7 -24 -31 -25c-8 0 -56 -2 -63 -2c-26 0 -26 8 -26 24c0 3 -1 47 -1 49c0 3 -1 7 -1 11z" />
    <glyph glyph-name="agrave" unicode="&#xe0;" horiz-adv-x="375" 
d="M356 214v-73c0 -8 1 -45 1 -54c0 -7 -2 -42 -2 -50v-15c0 -19 -14 -23 -26 -23c-7 0 -42 1 -50 1c-9 1 -19 0 -28 -1c-5 0 -10 -1 -15 -1c-14 0 -14 6 -14 16c0 7 -3 11 -6 11s-15 -12 -18 -14c-11 -9 -29 -17 -57 -17c-35 0 -55 9 -70 19c-56 35 -64 130 -64 176
c0 72 13 123 36 153c32 43 79 49 98 49c22 0 30 -3 55 -15c2 -1 5 -2 8 -2c5 0 14 5 14 16c0 9 -3 24 -8 31c-5 8 -15 17 -57 17c-26 0 -49 -6 -64 -14c-11 -7 -13 -7 -17 -7c-9 0 -25 9 -27 18c-1 3 -2 15 -2 19c0 3 1 20 1 24c0 11 -1 21 -1 31c0 16 3 26 32 35
c40 13 57 13 78 13c6 0 35 1 41 1c25 0 91 -7 125 -31c27 -19 38 -41 38 -115c0 -7 -1 -41 -1 -49c0 -9 1 -53 1 -62c0 -29 -1 -58 -1 -87zM179 268c-6 0 -18 -4 -26 -19c-7 -14 -7 -23 -7 -51v-19c0 -41 11 -60 33 -60c25 0 31 30 31 33c1 4 1 66 1 76c0 26 -18 40 -32 40z
M70 696c0 11 11 12 14 12s14 -1 17 -1c6 0 38 -1 45 -1s44 2 53 2c18 0 23 -4 28 -21c4 -12 22 -61 25 -67s5 -9 5 -13c0 -6 -3 -9 -10 -12c-6 -1 -9 -1 -40 0h-40c-6 0 -7 1 -19 13c-5 5 -62 64 -64 67c-8 7 -14 12 -14 21z" />
    <glyph glyph-name="aring" unicode="&#xe5;" horiz-adv-x="375" 
d="M356 214v-73c0 -8 1 -45 1 -54c0 -7 -2 -42 -2 -50v-15c0 -19 -14 -23 -26 -23c-7 0 -42 1 -50 1c-9 1 -19 0 -28 -1c-5 0 -10 -1 -15 -1c-14 0 -14 6 -14 16c0 7 -3 11 -6 11s-15 -12 -18 -14c-11 -9 -29 -17 -57 -17c-35 0 -55 9 -70 19c-56 35 -64 130 -64 176
c0 72 13 123 36 153c32 43 79 49 98 49c22 0 30 -3 55 -15c2 -1 5 -2 8 -2c5 0 14 5 14 16c0 9 -3 24 -8 31c-5 8 -15 17 -57 17c-26 0 -49 -6 -64 -14c-11 -7 -13 -7 -17 -7c-9 0 -25 9 -27 18c-1 3 -2 15 -2 19c0 3 1 20 1 24c0 11 -1 21 -1 31c0 16 3 26 32 35
c40 13 57 13 78 13c6 0 35 1 41 1c25 0 91 -7 125 -31c27 -19 38 -41 38 -115c0 -7 -1 -41 -1 -49c0 -9 1 -53 1 -62c0 -29 -1 -58 -1 -87zM179 268c-6 0 -18 -4 -26 -19c-7 -14 -7 -23 -7 -51v-19c0 -41 11 -60 33 -60c25 0 31 30 31 33c1 4 1 66 1 76c0 26 -18 40 -32 40z
M97 673c0 59 54 99 116 99c75 0 117 -54 117 -100c0 -59 -57 -101 -119 -101c-75 0 -114 52 -114 102zM212 713c-34 0 -55 -20 -55 -44c0 -25 27 -41 55 -41c39 0 54 27 54 45c0 19 -21 40 -54 40z" />
    <glyph glyph-name="atilde" unicode="&#xe3;" horiz-adv-x="375" 
d="M356 214v-73c0 -8 1 -45 1 -54c0 -7 -2 -42 -2 -50v-15c0 -19 -14 -23 -26 -23c-7 0 -42 1 -50 1c-9 1 -19 0 -28 -1c-5 0 -10 -1 -15 -1c-14 0 -14 6 -14 16c0 7 -3 11 -6 11s-15 -12 -18 -14c-11 -9 -29 -17 -57 -17c-35 0 -55 9 -70 19c-56 35 -64 130 -64 176
c0 72 13 123 36 153c32 43 79 49 98 49c22 0 30 -3 55 -15c2 -1 5 -2 8 -2c5 0 14 5 14 16c0 9 -3 24 -8 31c-5 8 -15 17 -57 17c-26 0 -49 -6 -64 -14c-11 -7 -13 -7 -17 -7c-9 0 -25 9 -27 18c-1 3 -2 15 -2 19c0 3 1 20 1 24c0 11 -1 21 -1 31c0 16 3 26 32 35
c40 13 57 13 78 13c6 0 35 1 41 1c25 0 91 -7 125 -31c27 -19 38 -41 38 -115c0 -7 -1 -41 -1 -49c0 -9 1 -53 1 -62c0 -29 -1 -58 -1 -87zM179 268c-6 0 -18 -4 -26 -19c-7 -14 -7 -23 -7 -51v-19c0 -41 11 -60 33 -60c25 0 31 30 31 33c1 4 1 66 1 76c0 26 -18 40 -32 40z
M121 606h-3c-3 0 -7 1 -10 2c-5 1 -30 4 -36 5c-5 1 -10 3 -15 3c-12 1 -21 2 -21 11c0 3 10 82 99 82c31 0 79 -15 110 -15c6 0 13 1 18 7c3 4 8 10 11 10c0 1 0 1 1 1c2 0 4 -1 7 -2c4 -1 32 -5 38 -6c31 -5 35 -6 35 -11l-3 -12c-14 -47 -51 -72 -100 -72
c-8 0 -26 0 -72 10c-15 3 -19 4 -26 4c-4 0 -11 0 -16 -3c-7 -4 -11 -12 -17 -14z" />
    <glyph glyph-name="eacute" unicode="&#xe9;" 
d="M360 85v-41c0 -10 -1 -16 -10 -23c-13 -10 -53 -25 -122 -25c-62 0 -122 11 -165 70c-42 56 -45 119 -45 213c0 7 4 83 5 93c9 126 70 193 176 193c48 0 97 -8 136 -65c35 -50 38 -101 38 -141c0 -12 -2 -105 -3 -111c-2 -4 -13 -31 -35 -30c-4 0 -23 2 -27 2
c-7 0 -42 -3 -50 -3c-10 0 -60 2 -72 2c-9 0 -24 0 -24 -25c0 -11 4 -24 11 -33c19 -27 48 -28 66 -28c37 0 42 2 77 19c6 2 11 4 17 4c13 0 29 -11 29 -25c0 -2 -2 -39 -2 -46zM161 365c0 -7 0 -26 10 -30c5 -2 31 -2 37 -2c17 0 26 4 26 28c0 21 0 41 -3 52
c-9 27 -29 27 -34 27c-36 0 -36 -48 -36 -75zM146 608c0 5 3 10 5 15c3 8 18 48 22 57c1 3 3 7 4 11c4 11 6 17 27 17c7 0 40 -2 48 -2h16c7 0 41 2 49 2c9 0 15 -5 15 -12c0 -9 -4 -14 -21 -30c-6 -6 -11 -12 -17 -17c-10 -11 -27 -28 -29 -31c-4 -4 -21 -22 -24 -23
s-37 0 -44 0c-4 0 -25 -1 -30 -1s-21 0 -21 14z" />
    <glyph glyph-name="ecircumflex" unicode="&#xea;" 
d="M360 85v-41c0 -10 -1 -16 -10 -23c-13 -10 -53 -25 -122 -25c-62 0 -122 11 -165 70c-42 56 -45 119 -45 213c0 7 4 83 5 93c9 126 70 193 176 193c48 0 97 -8 136 -65c35 -50 38 -101 38 -141c0 -12 -2 -105 -3 -111c-2 -4 -13 -31 -35 -30c-4 0 -23 2 -27 2
c-7 0 -42 -3 -50 -3c-10 0 -60 2 -72 2c-9 0 -24 0 -24 -25c0 -11 4 -24 11 -33c19 -27 48 -28 66 -28c37 0 42 2 77 19c6 2 11 4 17 4c13 0 29 -11 29 -25c0 -2 -2 -39 -2 -46zM161 365c0 -7 0 -26 10 -30c5 -2 31 -2 37 -2c17 0 26 4 26 28c0 21 0 41 -3 52
c-9 27 -29 27 -34 27c-36 0 -36 -48 -36 -75zM72 606c0 7 5 12 10 19c5 6 9 13 14 19c9 13 24 33 32 46c6 9 12 18 27 18c4 0 23 -2 27 -2h30c5 0 27 2 32 2c9 0 14 0 19 -2c8 -3 11 -7 31 -38c7 -11 26 -37 29 -40c5 -6 12 -15 12 -23c0 -9 -9 -12 -15 -12
c-7 0 -39 1 -46 1s-13 0 -20 -1c-5 -1 -10 -2 -14 -2c-16 0 -21 13 -26 25c-1 4 -5 13 -13 13c-4 0 -8 -4 -11 -9c-2 -6 -2 -12 -5 -17c-1 -4 -5 -11 -13 -11c-5 0 -33 2 -39 2c-5 0 -30 -1 -35 -1c-23 0 -26 8 -26 13z" />
    <glyph glyph-name="edieresis" unicode="&#xeb;" 
d="M360 85v-41c0 -10 -1 -16 -10 -23c-13 -10 -53 -25 -122 -25c-62 0 -122 11 -165 70c-42 56 -45 119 -45 213c0 7 4 83 5 93c9 126 70 193 176 193c48 0 97 -8 136 -65c35 -50 38 -101 38 -141c0 -12 -2 -105 -3 -111c-2 -4 -13 -31 -35 -30c-4 0 -23 2 -27 2
c-7 0 -42 -3 -50 -3c-10 0 -60 2 -72 2c-9 0 -24 0 -24 -25c0 -11 4 -24 11 -33c19 -27 48 -28 66 -28c37 0 42 2 77 19c6 2 11 4 17 4c13 0 29 -11 29 -25c0 -2 -2 -39 -2 -46zM161 365c0 -7 0 -26 10 -30c5 -2 31 -2 37 -2c17 0 26 4 26 28c0 21 0 41 -3 52
c-9 27 -29 27 -34 27c-36 0 -36 -48 -36 -75zM65 685c0 24 20 24 26 24c5 0 31 -2 37 -2c5 0 31 1 37 1c23 0 23 -11 23 -37c0 -3 1 -21 1 -25c0 0 -1 -23 -2 -26c-1 -2 -7 -15 -20 -15c-2 0 -13 1 -15 1c-6 0 -36 -1 -42 -1h-17c-26 0 -26 15 -26 33c0 7 -2 40 -2 47z
M220 688c0 20 13 20 19 20c10 0 55 -1 66 -1c2 0 16 1 20 1c17 0 17 -11 17 -23c0 -4 -1 -25 -1 -29c0 -8 1 -17 1 -25c0 -17 -7 -24 -31 -25c-8 0 -56 -2 -63 -2c-26 0 -26 8 -26 24c0 3 -1 47 -1 49c0 3 -1 7 -1 11z" />
    <glyph glyph-name="egrave" unicode="&#xe8;" 
d="M360 85v-41c0 -10 -1 -16 -10 -23c-13 -10 -53 -25 -122 -25c-62 0 -122 11 -165 70c-42 56 -45 119 -45 213c0 7 4 83 5 93c9 126 70 193 176 193c48 0 97 -8 136 -65c35 -50 38 -101 38 -141c0 -12 -2 -105 -3 -111c-2 -4 -13 -31 -35 -30c-4 0 -23 2 -27 2
c-7 0 -42 -3 -50 -3c-10 0 -60 2 -72 2c-9 0 -24 0 -24 -25c0 -11 4 -24 11 -33c19 -27 48 -28 66 -28c37 0 42 2 77 19c6 2 11 4 17 4c13 0 29 -11 29 -25c0 -2 -2 -39 -2 -46zM161 365c0 -7 0 -26 10 -30c5 -2 31 -2 37 -2c17 0 26 4 26 28c0 21 0 41 -3 52
c-9 27 -29 27 -34 27c-36 0 -36 -48 -36 -75zM74 696c0 11 11 12 14 12s14 -1 17 -1c6 0 38 -1 45 -1s44 2 53 2c18 0 23 -4 28 -21c4 -12 22 -61 25 -67s5 -9 5 -13c0 -6 -3 -9 -10 -12c-6 -1 -9 -1 -40 0h-40c-6 0 -7 1 -19 13c-5 5 -62 64 -64 67c-8 7 -14 12 -14 21z
" />
    <glyph glyph-name="iacute" unicode="&#xed;" horiz-adv-x="187" 
d="M17 534c0 7 1 15 11 21c8 5 13 5 17 5c5 0 29 -2 34 -2c10 0 56 2 66 2c8 0 27 0 27 -28c0 -13 -3 -77 -3 -91c0 -12 2 -69 2 -82s-2 -77 -2 -92c0 -10 2 -62 2 -73c0 -24 -3 -49 -3 -73c0 -12 4 -73 4 -87c0 -31 -21 -32 -26 -32c-3 0 -21 2 -25 2h-23
c-12 0 -24 -1 -36 -2c-5 0 -11 -1 -16 -1c-29 0 -31 17 -31 33c0 6 0 10 1 27c1 24 1 61 1 92c0 8 1 45 1 54c0 10 -1 57 -1 68c0 10 2 61 2 72c0 8 -1 44 -1 52c0 11 1 66 1 78c0 8 -2 48 -2 57zM37 608c0 5 3 10 5 15c3 8 18 48 22 57c1 3 3 7 4 11c4 11 6 17 27 17
c7 0 40 -2 48 -2h16c7 0 41 2 49 2c9 0 15 -5 15 -12c0 -9 -4 -14 -21 -30c-6 -6 -11 -12 -17 -17c-10 -11 -27 -28 -29 -31c-4 -4 -21 -22 -24 -23s-37 0 -44 0c-4 0 -25 -1 -30 -1s-21 0 -21 14z" />
    <glyph glyph-name="icircumflex" unicode="&#xee;" horiz-adv-x="187" 
d="M17 534c0 7 1 15 11 21c8 5 13 5 17 5c5 0 29 -2 34 -2c10 0 56 2 66 2c8 0 27 0 27 -28c0 -13 -3 -77 -3 -91c0 -12 2 -69 2 -82s-2 -77 -2 -92c0 -10 2 -62 2 -73c0 -24 -3 -49 -3 -73c0 -12 4 -73 4 -87c0 -31 -21 -32 -26 -32c-3 0 -21 2 -25 2h-23
c-12 0 -24 -1 -36 -2c-5 0 -11 -1 -16 -1c-29 0 -31 17 -31 33c0 6 0 10 1 27c1 24 1 61 1 92c0 8 1 45 1 54c0 10 -1 57 -1 68c0 10 2 61 2 72c0 8 -1 44 -1 52c0 11 1 66 1 78c0 8 -2 48 -2 57zM-37 606c0 7 5 12 10 19c5 6 9 13 14 19c9 13 24 33 32 46c6 9 12 18 27 18
c4 0 23 -2 27 -2h30c5 0 27 2 32 2c9 0 14 0 19 -2c8 -3 11 -7 31 -38c7 -11 26 -37 29 -40c5 -6 12 -15 12 -23c0 -9 -9 -12 -15 -12c-7 0 -39 1 -46 1s-13 0 -20 -1c-5 -1 -10 -2 -14 -2c-16 0 -21 13 -26 25c-1 4 -5 13 -13 13c-4 0 -8 -4 -11 -9c-2 -6 -2 -12 -5 -17
c-1 -4 -5 -11 -13 -11c-5 0 -33 2 -39 2c-5 0 -30 -1 -35 -1c-23 0 -26 8 -26 13z" />
    <glyph glyph-name="idieresis" unicode="&#xef;" horiz-adv-x="187" 
d="M17 534c0 7 1 15 11 21c8 5 13 5 17 5c5 0 29 -2 34 -2c10 0 56 2 66 2c8 0 27 0 27 -28c0 -13 -3 -77 -3 -91c0 -12 2 -69 2 -82s-2 -77 -2 -92c0 -10 2 -62 2 -73c0 -24 -3 -49 -3 -73c0 -12 4 -73 4 -87c0 -31 -21 -32 -26 -32c-3 0 -21 2 -25 2h-23
c-12 0 -24 -1 -36 -2c-5 0 -11 -1 -16 -1c-29 0 -31 17 -31 33c0 6 0 10 1 27c1 24 1 61 1 92c0 8 1 45 1 54c0 10 -1 57 -1 68c0 10 2 61 2 72c0 8 -1 44 -1 52c0 11 1 66 1 78c0 8 -2 48 -2 57zM-44 685c0 24 20 24 26 24c5 0 31 -2 37 -2c5 0 31 1 37 1
c23 0 23 -11 23 -37c0 -3 1 -21 1 -25c0 0 -1 -23 -2 -26c-1 -2 -7 -15 -20 -15c-2 0 -13 1 -15 1c-6 0 -36 -1 -42 -1h-17c-26 0 -26 15 -26 33c0 7 -2 40 -2 47zM111 688c0 20 13 20 19 20c10 0 55 -1 66 -1c2 0 16 1 20 1c17 0 17 -11 17 -23c0 -4 -1 -25 -1 -29
c0 -8 1 -17 1 -25c0 -17 -7 -24 -31 -25c-8 0 -56 -2 -63 -2c-26 0 -26 8 -26 24c0 3 -1 47 -1 49c0 3 -1 7 -1 11z" />
    <glyph glyph-name="igrave" unicode="&#xec;" horiz-adv-x="187" 
d="M17 534c0 7 1 15 11 21c8 5 13 5 17 5c5 0 29 -2 34 -2c10 0 56 2 66 2c8 0 27 0 27 -28c0 -13 -3 -77 -3 -91c0 -12 2 -69 2 -82s-2 -77 -2 -92c0 -10 2 -62 2 -73c0 -24 -3 -49 -3 -73c0 -12 4 -73 4 -87c0 -31 -21 -32 -26 -32c-3 0 -21 2 -25 2h-23
c-12 0 -24 -1 -36 -2c-5 0 -11 -1 -16 -1c-29 0 -31 17 -31 33c0 6 0 10 1 27c1 24 1 61 1 92c0 8 1 45 1 54c0 10 -1 57 -1 68c0 10 2 61 2 72c0 8 -1 44 -1 52c0 11 1 66 1 78c0 8 -2 48 -2 57zM-35 696c0 11 11 12 14 12s14 -1 17 -1c6 0 38 -1 45 -1s44 2 53 2
c18 0 23 -4 28 -21c4 -12 22 -61 25 -67s5 -9 5 -13c0 -6 -3 -9 -10 -12c-6 -1 -9 -1 -40 0h-40c-6 0 -7 1 -19 13c-5 5 -62 64 -64 67c-8 7 -14 12 -14 21z" />
    <glyph glyph-name="ntilde" unicode="&#xf1;" horiz-adv-x="375" 
d="M18 527c0 25 18 27 29 27c5 0 34 -1 40 -1h8c6 0 34 2 40 2c4 0 17 0 21 -8c2 -4 0 -9 2 -14c1 -3 4 -6 7 -6c1 0 26 16 31 18c13 7 34 13 50 13c42 0 75 -22 89 -45c10 -18 20 -36 20 -89c0 -19 -1 -39 -1 -58c0 -7 1 -43 1 -50s-1 -38 -1 -45c0 -11 3 -65 3 -77
c0 -13 -2 -79 -2 -93c0 -10 2 -56 2 -67c0 -34 -18 -35 -44 -35c-5 0 -29 1 -35 1c-13 0 -26 -1 -40 -1c-11 0 -31 0 -31 30c0 13 2 74 2 88s-2 79 -2 94c0 19 2 113 2 134c0 50 0 72 -20 72c-14 0 -23 -19 -23 -52c0 -16 1 -92 1 -109c0 -10 -2 -57 -2 -68
c0 -12 4 -71 4 -84c0 -5 -2 -30 -2 -36c0 -4 2 -22 2 -27c0 -37 -14 -41 -33 -41c-7 0 -40 2 -48 2c-6 0 -35 -3 -42 -3c-16 0 -27 11 -27 31v46c0 16 2 98 2 116c0 12 -2 67 -2 80c0 11 2 67 2 79c0 20 -2 116 -2 138c0 5 -1 32 -1 38zM110 606h-3c-3 0 -7 1 -10 2
c-5 1 -30 4 -36 5c-5 1 -10 3 -15 3c-12 1 -21 2 -21 11c0 3 10 82 99 82c31 0 79 -15 110 -15c6 0 13 1 18 7c3 4 8 10 11 10c0 1 0 1 1 1c2 0 4 -1 7 -2c4 -1 32 -5 38 -6c31 -5 35 -6 35 -11l-3 -12c-14 -47 -51 -72 -100 -72c-8 0 -26 0 -72 10c-15 3 -19 4 -26 4
c-4 0 -11 0 -16 -3c-7 -4 -11 -12 -17 -14z" />
    <glyph glyph-name="oacute" unicode="&#xf3;" 
d="M16 312c0 95 5 129 24 169c17 33 42 53 48 57c22 14 65 30 118 30c95 0 140 -60 153 -92c14 -33 19 -94 19 -207c0 -151 -15 -176 -31 -202c-22 -37 -62 -74 -150 -74c-44 0 -89 10 -121 41c-26 24 -31 39 -39 61c-11 33 -14 40 -17 75c-4 48 -4 134 -4 142zM195 424
c-31 0 -31 -31 -29 -91v-135c0 -28 0 -61 28 -61c35 0 35 40 35 60c0 18 -3 104 -3 124c0 7 1 39 1 47c0 24 -3 56 -32 56zM141 608c0 5 3 10 5 15c3 8 18 48 22 57c1 3 3 7 4 11c4 11 6 17 27 17c7 0 40 -2 48 -2h16c7 0 41 2 49 2c9 0 15 -5 15 -12c0 -9 -4 -14 -21 -30
c-6 -6 -11 -12 -17 -17c-10 -11 -27 -28 -29 -31c-4 -4 -21 -22 -24 -23s-37 0 -44 0c-4 0 -25 -1 -30 -1s-21 0 -21 14z" />
    <glyph glyph-name="ocircumflex" unicode="&#xf4;" 
d="M16 312c0 95 5 129 24 169c17 33 42 53 48 57c22 14 65 30 118 30c95 0 140 -60 153 -92c14 -33 19 -94 19 -207c0 -151 -15 -176 -31 -202c-22 -37 -62 -74 -150 -74c-44 0 -89 10 -121 41c-26 24 -31 39 -39 61c-11 33 -14 40 -17 75c-4 48 -4 134 -4 142zM195 424
c-31 0 -31 -31 -29 -91v-135c0 -28 0 -61 28 -61c35 0 35 40 35 60c0 18 -3 104 -3 124c0 7 1 39 1 47c0 24 -3 56 -32 56zM67 606c0 7 5 12 10 19c5 6 9 13 14 19c9 13 24 33 32 46c6 9 12 18 27 18c4 0 23 -2 27 -2h30c5 0 27 2 32 2c9 0 14 0 19 -2c8 -3 11 -7 31 -38
c7 -11 26 -37 29 -40c5 -6 12 -15 12 -23c0 -9 -9 -12 -15 -12c-7 0 -39 1 -46 1s-13 0 -20 -1c-5 -1 -10 -2 -14 -2c-16 0 -21 13 -26 25c-1 4 -5 13 -13 13c-4 0 -8 -4 -11 -9c-2 -6 -2 -12 -5 -17c-1 -4 -5 -11 -13 -11c-5 0 -33 2 -39 2c-5 0 -30 -1 -35 -1
c-23 0 -26 8 -26 13z" />
    <glyph glyph-name="odieresis" unicode="&#xf6;" 
d="M16 312c0 95 5 129 24 169c17 33 42 53 48 57c22 14 65 30 118 30c95 0 140 -60 153 -92c14 -33 19 -94 19 -207c0 -151 -15 -176 -31 -202c-22 -37 -62 -74 -150 -74c-44 0 -89 10 -121 41c-26 24 -31 39 -39 61c-11 33 -14 40 -17 75c-4 48 -4 134 -4 142zM195 424
c-31 0 -31 -31 -29 -91v-135c0 -28 0 -61 28 -61c35 0 35 40 35 60c0 18 -3 104 -3 124c0 7 1 39 1 47c0 24 -3 56 -32 56zM60 683c0 24 20 24 26 24c5 0 31 -2 37 -2c5 0 31 1 37 1c23 0 23 -11 23 -37c0 -3 1 -21 1 -25c0 0 -1 -23 -2 -26c-1 -2 -7 -15 -20 -15
c-2 0 -13 1 -15 1c-6 0 -36 -1 -42 -1h-17c-26 0 -26 15 -26 33c0 7 -2 40 -2 47zM215 686c0 20 13 20 19 20c10 0 55 -1 66 -1c2 0 16 1 20 1c17 0 17 -11 17 -23c0 -4 -1 -25 -1 -29c0 -8 1 -17 1 -25c0 -17 -7 -24 -31 -25c-8 0 -56 -2 -63 -2c-26 0 -26 8 -26 24
c0 3 -1 47 -1 49c0 3 -1 7 -1 11z" />
    <glyph glyph-name="ograve" unicode="&#xf2;" 
d="M16 312c0 95 5 129 24 169c17 33 42 53 48 57c22 14 65 30 118 30c95 0 140 -60 153 -92c14 -33 19 -94 19 -207c0 -151 -15 -176 -31 -202c-22 -37 -62 -74 -150 -74c-44 0 -89 10 -121 41c-26 24 -31 39 -39 61c-11 33 -14 40 -17 75c-4 48 -4 134 -4 142zM195 424
c-31 0 -31 -31 -29 -91v-135c0 -28 0 -61 28 -61c35 0 35 40 35 60c0 18 -3 104 -3 124c0 7 1 39 1 47c0 24 -3 56 -32 56zM69 696c0 11 11 12 14 12s14 -1 17 -1c6 0 38 -1 45 -1s44 2 53 2c18 0 23 -4 28 -21c4 -12 22 -61 25 -67s5 -9 5 -13c0 -6 -3 -9 -10 -12
c-6 -1 -9 -1 -40 0h-40c-6 0 -7 1 -19 13c-5 5 -62 64 -64 67c-8 7 -14 12 -14 21z" />
    <glyph glyph-name="otilde" unicode="&#xf5;" 
d="M16 312c0 95 5 129 24 169c17 33 42 53 48 57c22 14 65 30 118 30c95 0 140 -60 153 -92c14 -33 19 -94 19 -207c0 -151 -15 -176 -31 -202c-22 -37 -62 -74 -150 -74c-44 0 -89 10 -121 41c-26 24 -31 39 -39 61c-11 33 -14 40 -17 75c-4 48 -4 134 -4 142zM195 424
c-31 0 -31 -31 -29 -91v-135c0 -28 0 -61 28 -61c35 0 35 40 35 60c0 18 -3 104 -3 124c0 7 1 39 1 47c0 24 -3 56 -32 56zM120 606h-3c-3 0 -7 1 -10 2c-5 1 -30 4 -36 5c-5 1 -10 3 -15 3c-12 1 -21 2 -21 11c0 3 10 82 99 82c31 0 79 -15 110 -15c6 0 13 1 18 7
c3 4 8 10 11 10c0 1 0 1 1 1c2 0 4 -1 7 -2c4 -1 32 -5 38 -6c31 -5 35 -6 35 -11l-3 -12c-14 -47 -51 -72 -100 -72c-8 0 -26 0 -72 10c-15 3 -19 4 -26 4c-4 0 -11 0 -16 -3c-7 -4 -11 -12 -17 -14z" />
    <glyph glyph-name="scaron" unicode="&#x161;" horiz-adv-x="313" 
d="M303 165c0 -33 -5 -61 -13 -79c-16 -33 -22 -41 -37 -54c-31 -29 -61 -40 -118 -40c-56 0 -64 2 -88 8c-20 5 -37 10 -37 36c0 7 1 43 1 51c0 9 0 18 -1 27c0 4 -1 8 -1 12c0 16 13 28 26 28c2 0 4 0 6 -1c7 -1 14 -5 21 -8c6 -2 38 -5 42 -5c14 0 39 7 39 30
c0 21 -15 34 -24 42c-8 8 -16 14 -25 22c-12 11 -35 34 -49 61c-25 50 -28 74 -28 100c0 36 9 67 15 79c1 2 14 25 19 32c30 44 84 56 127 56h9c17 -1 34 -3 52 -4c22 -2 41 -3 45 -25c2 -7 0 -39 0 -47c0 -7 2 -37 2 -43c0 -23 -21 -30 -30 -30c-5 0 -9 2 -24 8
c-8 3 -17 5 -25 5c-18 0 -34 -8 -34 -26c0 -17 19 -36 44 -61c31 -30 49 -48 65 -82c12 -25 21 -46 21 -92zM70 706c8 0 44 2 49 2c4 0 10 0 16 -9c5 -7 6 -14 11 -21c2 -4 6 -7 10 -7c8 0 10 8 12 15c5 21 12 21 18 21c5 0 26 -2 31 -2c7 0 41 2 49 2c9 0 19 -6 19 -15
c0 -2 -5 -10 -8 -15c-13 -15 -33 -45 -49 -68c-7 -10 -11 -16 -31 -16c-6 0 -35 1 -42 1c-10 0 -21 0 -31 -1c-5 -1 -10 -2 -15 -2c-20 0 -26 10 -32 19c-12 20 -35 50 -49 69c-2 4 -6 12 -6 16c0 7 5 12 17 12c4 0 26 -1 31 -1z" />
    <glyph glyph-name="uacute" unicode="&#xfa;" 
d="M14 513c0 11 0 43 29 44c5 0 10 -1 15 -2c4 0 32 -1 37 -1c3 0 13 1 22 2c10 0 20 1 23 1c6 0 25 0 25 -27c0 -6 -1 -38 -1 -45c0 -13 3 -79 3 -94c0 -12 -3 -68 -3 -81c-1 -14 1 -85 1 -101c0 -6 -1 -35 -1 -42c0 -13 6 -27 31 -27c23 0 33 14 33 62c0 9 -2 52 -2 62v60
c0 38 0 77 -1 115c0 11 -2 68 -2 81c0 16 0 36 28 36c1 0 23 -2 24 -2c7 -1 14 -1 21 -1c16 0 23 0 27 1c2 0 21 3 23 3c25 0 31 -14 31 -26c0 -3 -1 -18 -1 -21s-1 -38 -1 -52c0 -7 1 -44 1 -52c1 -14 1 -77 1 -96c0 -17 -3 -102 -3 -122c0 -9 2 -52 2 -62
c0 -5 -1 -30 -1 -36c0 -7 3 -45 3 -53c0 -26 -8 -36 -28 -36c-6 0 -36 2 -43 2c-22 0 -36 -2 -40 -2c-5 -1 -10 -2 -16 -2c-16 0 -20 7 -21 10s0 7 -1 11c-1 3 -2 7 -4 7c-3 0 -6 -4 -8 -6c-3 -3 -5 -4 -8 -6c-33 -19 -45 -20 -81 -20c-26 0 -44 3 -62 13
c-49 27 -49 80 -49 98c0 8 1 48 1 57c0 10 -2 57 -2 68c0 18 1 107 1 127c0 35 0 70 -1 104c0 15 -2 37 -2 51zM141 608c0 5 3 10 5 15c3 8 18 48 22 57c1 3 3 7 4 11c4 11 6 17 27 17c7 0 40 -2 48 -2h16c7 0 41 2 49 2c9 0 15 -5 15 -12c0 -9 -4 -14 -21 -30
c-6 -6 -11 -12 -17 -17c-10 -11 -27 -28 -29 -31c-4 -4 -21 -22 -24 -23s-37 0 -44 0c-4 0 -25 -1 -30 -1s-21 0 -21 14z" />
    <glyph glyph-name="ucircumflex" unicode="&#xfb;" 
d="M14 513c0 11 0 43 29 44c5 0 10 -1 15 -2c4 0 32 -1 37 -1c3 0 13 1 22 2c10 0 20 1 23 1c6 0 25 0 25 -27c0 -6 -1 -38 -1 -45c0 -13 3 -79 3 -94c0 -12 -3 -68 -3 -81c-1 -14 1 -85 1 -101c0 -6 -1 -35 -1 -42c0 -13 6 -27 31 -27c23 0 33 14 33 62c0 9 -2 52 -2 62v60
c0 38 0 77 -1 115c0 11 -2 68 -2 81c0 16 0 36 28 36c1 0 23 -2 24 -2c7 -1 14 -1 21 -1c16 0 23 0 27 1c2 0 21 3 23 3c25 0 31 -14 31 -26c0 -3 -1 -18 -1 -21s-1 -38 -1 -52c0 -7 1 -44 1 -52c1 -14 1 -77 1 -96c0 -17 -3 -102 -3 -122c0 -9 2 -52 2 -62
c0 -5 -1 -30 -1 -36c0 -7 3 -45 3 -53c0 -26 -8 -36 -28 -36c-6 0 -36 2 -43 2c-22 0 -36 -2 -40 -2c-5 -1 -10 -2 -16 -2c-16 0 -20 7 -21 10s0 7 -1 11c-1 3 -2 7 -4 7c-3 0 -6 -4 -8 -6c-3 -3 -5 -4 -8 -6c-33 -19 -45 -20 -81 -20c-26 0 -44 3 -62 13
c-49 27 -49 80 -49 98c0 8 1 48 1 57c0 10 -2 57 -2 68c0 18 1 107 1 127c0 35 0 70 -1 104c0 15 -2 37 -2 51zM67 606c0 7 5 12 10 19c5 6 9 13 14 19c9 13 24 33 32 46c6 9 12 18 27 18c4 0 23 -2 27 -2h30c5 0 27 2 32 2c9 0 14 0 19 -2c8 -3 11 -7 31 -38
c7 -11 26 -37 29 -40c5 -6 12 -15 12 -23c0 -9 -9 -12 -15 -12c-7 0 -39 1 -46 1s-13 0 -20 -1c-5 -1 -10 -2 -14 -2c-16 0 -21 13 -26 25c-1 4 -5 13 -13 13c-4 0 -8 -4 -11 -9c-2 -6 -2 -12 -5 -17c-1 -4 -5 -11 -13 -11c-5 0 -33 2 -39 2c-5 0 -30 -1 -35 -1
c-23 0 -26 8 -26 13z" />
    <glyph glyph-name="udieresis" unicode="&#xfc;" 
d="M14 513c0 11 0 43 29 44c5 0 10 -1 15 -2c4 0 32 -1 37 -1c3 0 13 1 22 2c10 0 20 1 23 1c6 0 25 0 25 -27c0 -6 -1 -38 -1 -45c0 -13 3 -79 3 -94c0 -12 -3 -68 -3 -81c-1 -14 1 -85 1 -101c0 -6 -1 -35 -1 -42c0 -13 6 -27 31 -27c23 0 33 14 33 62c0 9 -2 52 -2 62v60
c0 38 0 77 -1 115c0 11 -2 68 -2 81c0 16 0 36 28 36c1 0 23 -2 24 -2c7 -1 14 -1 21 -1c16 0 23 0 27 1c2 0 21 3 23 3c25 0 31 -14 31 -26c0 -3 -1 -18 -1 -21s-1 -38 -1 -52c0 -7 1 -44 1 -52c1 -14 1 -77 1 -96c0 -17 -3 -102 -3 -122c0 -9 2 -52 2 -62
c0 -5 -1 -30 -1 -36c0 -7 3 -45 3 -53c0 -26 -8 -36 -28 -36c-6 0 -36 2 -43 2c-22 0 -36 -2 -40 -2c-5 -1 -10 -2 -16 -2c-16 0 -20 7 -21 10s0 7 -1 11c-1 3 -2 7 -4 7c-3 0 -6 -4 -8 -6c-3 -3 -5 -4 -8 -6c-33 -19 -45 -20 -81 -20c-26 0 -44 3 -62 13
c-49 27 -49 80 -49 98c0 8 1 48 1 57c0 10 -2 57 -2 68c0 18 1 107 1 127c0 35 0 70 -1 104c0 15 -2 37 -2 51zM67 683c0 24 20 24 26 24c5 0 31 -2 37 -2c5 0 31 1 37 1c23 0 23 -11 23 -37c0 -3 1 -21 1 -25c0 0 -1 -23 -2 -26c-1 -2 -7 -15 -20 -15c-2 0 -13 1 -15 1
c-6 0 -36 -1 -42 -1h-17c-26 0 -26 15 -26 33c0 7 -2 40 -2 47zM222 686c0 20 13 20 19 20c10 0 55 -1 66 -1c2 0 16 1 20 1c17 0 17 -11 17 -23c0 -4 -1 -25 -1 -29c0 -8 1 -17 1 -25c0 -17 -7 -24 -31 -25c-8 0 -56 -2 -63 -2c-26 0 -26 8 -26 24c0 3 -1 47 -1 49
c0 3 -1 7 -1 11z" />
    <glyph glyph-name="ugrave" unicode="&#xf9;" 
d="M14 513c0 11 0 43 29 44c5 0 10 -1 15 -2c4 0 32 -1 37 -1c3 0 13 1 22 2c10 0 20 1 23 1c6 0 25 0 25 -27c0 -6 -1 -38 -1 -45c0 -13 3 -79 3 -94c0 -12 -3 -68 -3 -81c-1 -14 1 -85 1 -101c0 -6 -1 -35 -1 -42c0 -13 6 -27 31 -27c23 0 33 14 33 62c0 9 -2 52 -2 62v60
c0 38 0 77 -1 115c0 11 -2 68 -2 81c0 16 0 36 28 36c1 0 23 -2 24 -2c7 -1 14 -1 21 -1c16 0 23 0 27 1c2 0 21 3 23 3c25 0 31 -14 31 -26c0 -3 -1 -18 -1 -21s-1 -38 -1 -52c0 -7 1 -44 1 -52c1 -14 1 -77 1 -96c0 -17 -3 -102 -3 -122c0 -9 2 -52 2 -62
c0 -5 -1 -30 -1 -36c0 -7 3 -45 3 -53c0 -26 -8 -36 -28 -36c-6 0 -36 2 -43 2c-22 0 -36 -2 -40 -2c-5 -1 -10 -2 -16 -2c-16 0 -20 7 -21 10s0 7 -1 11c-1 3 -2 7 -4 7c-3 0 -6 -4 -8 -6c-3 -3 -5 -4 -8 -6c-33 -19 -45 -20 -81 -20c-26 0 -44 3 -62 13
c-49 27 -49 80 -49 98c0 8 1 48 1 57c0 10 -2 57 -2 68c0 18 1 107 1 127c0 35 0 70 -1 104c0 15 -2 37 -2 51zM69 696c0 11 11 12 14 12s14 -1 17 -1c6 0 38 -1 45 -1s44 2 53 2c18 0 23 -4 28 -21c4 -12 22 -61 25 -67s5 -9 5 -13c0 -6 -3 -9 -10 -12c-6 -1 -9 -1 -40 0
h-40c-6 0 -7 1 -19 13c-5 5 -62 64 -64 67c-8 7 -14 12 -14 21z" />
    <glyph glyph-name="yacute" unicode="&#xfd;" 
d="M288 71c-6 -19 -19 -67 -25 -81c-26 -66 -72 -73 -133 -73c-23 0 -52 2 -73 7c-7 2 -23 7 -28 22c-2 4 -2 9 -2 56c0 6 -1 35 -1 41c0 32 14 33 24 33c6 0 11 -2 15 -4c3 -2 6 -5 10 -7c4 -3 9 -4 14 -4c16 0 20 12 20 21c0 3 -7 34 -8 39c-5 21 -11 41 -17 62
c-4 16 -7 31 -11 47c-5 19 -11 39 -17 58c-5 18 -10 35 -14 53c-1 6 -9 35 -10 42c-2 7 -2 16 -4 24l-3 15c-2 7 -3 15 -5 22c-1 5 -21 81 -21 93c0 20 23 20 33 20c5 0 33 -1 39 -1c11 0 65 3 68 3c28 0 28 -17 29 -35c1 -44 2 -49 5 -67c1 -8 3 -15 4 -23
c3 -17 3 -35 5 -53c1 -13 7 -60 9 -66c4 -21 4 -24 4 -30c0 -8 3 -13 5 -13c3 0 5 11 6 13c10 46 11 51 12 79c1 22 1 24 5 48c3 19 5 38 5 57c0 8 1 16 1 23c3 51 4 66 21 66c2 0 15 -1 18 -1c8 0 19 -1 29 -1c27 0 33 1 37 2c4 0 21 3 24 3c17 0 32 -3 32 -20
c-2 -14 -2 -15 -3 -29c-2 -17 -6 -35 -10 -53c-6 -28 -10 -57 -15 -86c-3 -15 -6 -27 -12 -48c-4 -13 -5 -27 -9 -40c-2 -11 -5 -21 -8 -32c-5 -25 -6 -28 -10 -44c-6 -20 -29 -117 -35 -138zM141 608c0 5 3 10 5 15c3 8 18 48 22 57c1 3 3 7 4 11c4 11 6 17 27 17
c7 0 40 -2 48 -2h16c7 0 41 2 49 2c9 0 15 -5 15 -12c0 -9 -4 -14 -21 -30c-6 -6 -11 -12 -17 -17c-10 -11 -27 -28 -29 -31c-4 -4 -21 -22 -24 -23s-37 0 -44 0c-4 0 -25 -1 -30 -1s-21 0 -21 14z" />
    <glyph glyph-name="ydieresis" unicode="&#xff;" 
d="M288 71c-6 -19 -19 -67 -25 -81c-26 -66 -72 -73 -133 -73c-23 0 -52 2 -73 7c-7 2 -23 7 -28 22c-2 4 -2 9 -2 56c0 6 -1 35 -1 41c0 32 14 33 24 33c6 0 11 -2 15 -4c3 -2 6 -5 10 -7c4 -3 9 -4 14 -4c16 0 20 12 20 21c0 3 -7 34 -8 39c-5 21 -11 41 -17 62
c-4 16 -7 31 -11 47c-5 19 -11 39 -17 58c-5 18 -10 35 -14 53c-1 6 -9 35 -10 42c-2 7 -2 16 -4 24l-3 15c-2 7 -3 15 -5 22c-1 5 -21 81 -21 93c0 20 23 20 33 20c5 0 33 -1 39 -1c11 0 65 3 68 3c28 0 28 -17 29 -35c1 -44 2 -49 5 -67c1 -8 3 -15 4 -23
c3 -17 3 -35 5 -53c1 -13 7 -60 9 -66c4 -21 4 -24 4 -30c0 -8 3 -13 5 -13c3 0 5 11 6 13c10 46 11 51 12 79c1 22 1 24 5 48c3 19 5 38 5 57c0 8 1 16 1 23c3 51 4 66 21 66c2 0 15 -1 18 -1c8 0 19 -1 29 -1c27 0 33 1 37 2c4 0 21 3 24 3c17 0 32 -3 32 -20
c-2 -14 -2 -15 -3 -29c-2 -17 -6 -35 -10 -53c-6 -28 -10 -57 -15 -86c-3 -15 -6 -27 -12 -48c-4 -13 -5 -27 -9 -40c-2 -11 -5 -21 -8 -32c-5 -25 -6 -28 -10 -44c-6 -20 -29 -117 -35 -138zM60 685c0 24 20 24 26 24c5 0 31 -2 37 -2c5 0 31 1 37 1c23 0 23 -11 23 -37
c0 -3 1 -21 1 -25c0 0 -1 -23 -2 -26c-1 -2 -7 -15 -20 -15c-2 0 -13 1 -15 1c-6 0 -36 -1 -42 -1h-17c-26 0 -26 15 -26 33c0 7 -2 40 -2 47zM215 688c0 20 13 20 19 20c10 0 55 -1 66 -1c2 0 16 1 20 1c17 0 17 -11 17 -23c0 -4 -1 -25 -1 -29c0 -8 1 -17 1 -25
c0 -17 -7 -24 -31 -25c-8 0 -56 -2 -63 -2c-26 0 -26 8 -26 24c0 3 -1 47 -1 49c0 3 -1 7 -1 11z" />
    <glyph glyph-name="zcaron" unicode="&#x17e;" horiz-adv-x="333" 
d="M219 152h12c3 0 18 -1 21 -1c4 0 20 0 27 2c1 0 14 2 15 2c5 0 17 -1 22 -14c2 -8 3 -42 4 -50c0 -5 -1 -29 -1 -34c0 -4 1 -23 1 -28c0 -28 -19 -28 -34 -28c-10 0 -63 3 -75 3c-14 0 -27 -1 -41 -1c-31 0 -61 0 -91 -1c-12 -1 -23 -1 -34 -1c-33 0 -33 6 -33 44
c0 7 1 39 1 47c0 15 2 19 10 36c4 8 19 50 23 59c6 13 12 25 17 38c5 14 10 28 15 41s15 33 21 44c18 33 39 79 39 92c0 8 -6 12 -14 12c-3 0 -18 -1 -21 -1c-4 0 -25 2 -29 2s-23 -5 -27 -5c-12 0 -24 7 -24 27c0 4 1 9 1 13c2 13 2 30 2 45c0 4 -2 26 -2 31
c0 28 22 28 43 28c6 0 36 -2 43 -2c6 0 38 1 45 1h33c6 0 34 1 40 1c5 0 26 -1 31 -1c4 0 26 1 31 1c24 0 25 -12 25 -58c0 -42 -1 -46 -17 -78c-14 -27 -22 -56 -33 -84c-8 -17 -16 -33 -24 -50c-9 -22 -16 -45 -25 -67c-7 -16 -16 -42 -16 -50c0 -11 10 -15 19 -15z
M91 706c8 0 44 2 49 2c4 0 10 0 16 -9c5 -7 6 -14 11 -21c2 -4 6 -7 10 -7c8 0 10 8 12 15c5 21 12 21 18 21c5 0 26 -2 31 -2c7 0 41 2 49 2c9 0 19 -6 19 -15c0 -2 -5 -10 -8 -15c-13 -15 -33 -45 -49 -68c-7 -10 -11 -16 -31 -16c-6 0 -35 1 -42 1c-10 0 -21 0 -31 -1
c-5 -1 -10 -2 -15 -2c-20 0 -26 10 -32 19c-12 20 -35 50 -49 69c-2 4 -6 12 -6 16c0 7 5 12 17 12c4 0 26 -1 31 -1z" />
    </font>
</defs>
</svg>
